<svg width="421" height="356" viewBox="0 0 421 356" fill="none" xmlns="http://www.w3.org/2000/svg">
<path d="M322.999 122.273L258.999 87.5156L195 122.273L258.999 157.03L322.999 122.273Z" fill="#4D4D4D" stroke="#4D4D4D" stroke-miterlimit="1"/>
<path d="M322.999 122.272L259 87.5145V18L322.999 52.7573V122.272Z" fill="#999999" stroke="#4D4D4D" stroke-miterlimit="1"/>
<path d="M258.999 87.5145L195 122.272V52.7573L258.999 18V87.5145Z" fill="#999999" stroke="#4D4D4D" stroke-miterlimit="1"/>
<path d="M258.999 157.03L195 122.272V52.7578L258.999 87.5151V157.03Z" fill="#CCCCCC" stroke="#4D4D4D" stroke-miterlimit="1"/>
<path d="M259 157.03L322.999 122.272V52.7578L259 87.5151V157.03Z" fill="#CCCCCC" stroke="#4D4D4D" stroke-miterlimit="1"/>
<path d="M322.999 52.7573L258.999 18L195 52.7573L258.999 87.5145L322.999 52.7573Z" fill="white" stroke="#4D4D4D" stroke-miterlimit="1"/>
<g filter="url(#filter0_d_605_194)">
<path d="M166.432 83.8228L111.216 56.2148L56 83.8228L111.216 111.431L166.432 83.8228Z" fill="#372F47" stroke="#372F47" stroke-miterlimit="1"/>
<path d="M166.435 83.8239L111.219 56.2159V1L166.435 28.608V83.8239Z" fill="#6E5E8E" stroke="#372F47" stroke-miterlimit="1"/>
<path d="M111.216 56.2159L56 83.8239V28.608L111.216 1V56.2159Z" fill="#6E5E8E" stroke="#372F47" stroke-miterlimit="1"/>
<path d="M111.216 111.431L56 83.8233V28.6074L111.216 56.2154V111.431Z" fill="#937DBD" stroke="#372F47" stroke-miterlimit="1"/>
<path d="M111.219 111.431L166.435 83.8233V28.6074L111.219 56.2154V111.431Z" fill="#937DBD" stroke="#372F47" stroke-miterlimit="1"/>
<path d="M166.432 28.608L111.216 1L56 28.608L111.216 56.2159L166.432 28.608Z" fill="#B89CEC" stroke="#372F47" stroke-miterlimit="1"/>
</g>
<path d="M56.4327 298.575L28.7164 284.717L1 298.575L28.7164 312.433L56.4327 298.575Z" fill="#372F47" stroke="#372F47" stroke-miterlimit="1"/>
<path d="M56.4351 298.575L28.7188 284.716V257L56.4351 270.858V298.575Z" fill="#6E5E8E" stroke="#372F47" stroke-miterlimit="1"/>
<path d="M28.7164 284.716L1 298.575V270.858L28.7164 257V284.716Z" fill="#6E5E8E" stroke="#372F47" stroke-miterlimit="1"/>
<path d="M28.7164 312.432L1 298.574V270.857L28.7164 284.716V312.432Z" fill="#937DBD" stroke="#372F47" stroke-miterlimit="1"/>
<path d="M28.7188 312.432L56.4351 298.574V270.857L28.7188 284.716V312.432Z" fill="#937DBD" stroke="#372F47" stroke-miterlimit="1"/>
<path d="M56.4327 270.858L28.7164 257L1 270.858L28.7164 284.716L56.4327 270.858Z" fill="#B89CEC" stroke="#372F47" stroke-miterlimit="1"/>
<g filter="url(#filter1_d_605_194)">
<path d="M168.433 333.575L140.716 319.717L113 333.575L140.716 347.433L168.433 333.575Z" fill="#372F47" stroke="#372F47" stroke-miterlimit="1"/>
<path d="M168.435 333.575L140.719 319.716V292L168.435 305.858V333.575Z" fill="#6E5E8E" stroke="#372F47" stroke-miterlimit="1"/>
<path d="M140.716 319.716L113 333.575V305.858L140.716 292V319.716Z" fill="#6E5E8E" stroke="#372F47" stroke-miterlimit="1"/>
<path d="M140.716 347.432L113 333.574V305.857L140.716 319.716V347.432Z" fill="#937DBD" stroke="#372F47" stroke-miterlimit="1"/>
<path d="M140.719 347.432L168.435 333.574V305.857L140.719 319.716V347.432Z" fill="#937DBD" stroke="#372F47" stroke-miterlimit="1"/>
<path d="M168.433 305.858L140.716 292L113 305.858L140.716 319.716L168.433 305.858Z" fill="#B89CEC" stroke="#372F47" stroke-miterlimit="1"/>
</g>
<g filter="url(#filter2_d_605_194)">
<path d="M411.625 190.969L334.312 152.312L257 190.969L334.312 229.625L411.625 190.969Z" fill="#372F47" stroke="#372F47" stroke-miterlimit="1"/>
<path d="M411.625 190.969L334.312 152.312V75L411.625 113.656V190.969Z" fill="#6E5E8E" stroke="#372F47" stroke-miterlimit="1"/>
<path d="M334.312 152.312L257 190.969V113.656L334.312 75V152.312Z" fill="#6E5E8E" stroke="#372F47" stroke-miterlimit="1"/>
<path d="M334.312 229.625L257 190.969V113.656L334.312 152.312V229.625Z" fill="#937DBD" stroke="#372F47" stroke-miterlimit="1"/>
<path d="M334.312 229.625L411.625 190.969V113.656L334.312 152.312V229.625Z" fill="#937DBD" stroke="#372F47" stroke-miterlimit="1"/>
<path d="M411.625 113.656L334.312 75L257 113.656L334.312 152.312L411.625 113.656Z" fill="#B89CEC" stroke="#372F47" stroke-miterlimit="1"/>
</g>
<g filter="url(#filter3_d_605_194)">
<path d="M280.537 227.402L194.268 184.268L108 227.402L194.268 270.536L280.537 227.402Z" fill="#372F47" stroke="#372F47" stroke-miterlimit="1"/>
<path d="M280.534 227.402L194.266 184.268V98L280.534 141.134V227.402Z" fill="#6E5E8E" stroke="#372F47" stroke-miterlimit="1"/>
<path d="M194.268 184.268L108 227.402V141.134L194.268 98V184.268Z" fill="#6E5E8E" stroke="#372F47" stroke-miterlimit="1"/>
<path d="M194.268 270.537L108 227.403V141.135L194.268 184.269V270.537Z" fill="#937DBD" stroke="#372F47" stroke-miterlimit="1"/>
<path d="M194.266 270.537L280.534 227.403V141.135L194.266 184.269V270.537Z" fill="#937DBD" stroke="#372F47" stroke-miterlimit="1"/>
<path d="M280.537 141.134L194.268 98L108 141.134L194.268 184.268L280.537 141.134Z" fill="#B89CEC" stroke="#372F47" stroke-miterlimit="1"/>
</g>
<path d="M338.799 257.348L287.9 231.898L237 257.348L287.9 282.798L338.799 257.348Z" fill="#2C4248" stroke="#2C4248" stroke-miterlimit="1"/>
<path d="M338.798 257.349L287.898 231.9V181L338.798 206.45V257.349Z" fill="#598491" stroke="#2C4248" stroke-miterlimit="1"/>
<path d="M287.9 231.9L237 257.349V206.45L287.9 181V231.9Z" fill="#598491" stroke="#2C4248" stroke-miterlimit="1"/>
<path d="M287.9 282.799L237 257.349V206.449L287.9 231.899V282.799Z" fill="#C1B5E7" stroke="#2C4248" stroke-miterlimit="1"/>
<path d="M287.898 282.799L338.798 257.349V206.449L287.898 231.899V282.799Z" fill="#C1B5E7" stroke="#2C4248" stroke-miterlimit="1"/>
<path d="M338.799 206.45L287.9 181L237 206.45L287.9 231.9L338.799 206.45Z" fill="#DFD6FB" stroke="#2C4248" stroke-miterlimit="1"/>
<defs>
<filter id="filter0_d_605_194" x="53.5" y="0.552734" width="119.438" height="119.326" filterUnits="userSpaceOnUse" color-interpolation-filters="sRGB">
<feFlood flood-opacity="0" result="BackgroundImageFix"/>
<feColorMatrix in="SourceAlpha" type="matrix" values="0 0 0 0 0 0 0 0 0 0 0 0 0 0 0 0 0 0 127 0" result="hardAlpha"/>
<feOffset dx="2" dy="4"/>
<feGaussianBlur stdDeviation="2"/>
<feComposite in2="hardAlpha" operator="out"/>
<feColorMatrix type="matrix" values="0 0 0 0 0 0 0 0 0 0 0 0 0 0 0 0 0 0 0.25 0"/>
<feBlend mode="normal" in2="BackgroundImageFix" result="effect1_dropShadow_605_194"/>
<feBlend mode="normal" in="SourceGraphic" in2="effect1_dropShadow_605_194" result="shape"/>
</filter>
<filter id="filter1_d_605_194" x="110.5" y="291.553" width="64.4375" height="64.3281" filterUnits="userSpaceOnUse" color-interpolation-filters="sRGB">
<feFlood flood-opacity="0" result="BackgroundImageFix"/>
<feColorMatrix in="SourceAlpha" type="matrix" values="0 0 0 0 0 0 0 0 0 0 0 0 0 0 0 0 0 0 127 0" result="hardAlpha"/>
<feOffset dx="2" dy="4"/>
<feGaussianBlur stdDeviation="2"/>
<feComposite in2="hardAlpha" operator="out"/>
<feColorMatrix type="matrix" values="0 0 0 0 0 0 0 0 0 0 0 0 0 0 0 0 0 0 0.25 0"/>
<feBlend mode="normal" in2="BackgroundImageFix" result="effect1_dropShadow_605_194"/>
<feBlend mode="normal" in="SourceGraphic" in2="effect1_dropShadow_605_194" result="shape"/>
</filter>
<filter id="filter2_d_605_194" x="256.5" y="74.5527" width="163.625" height="163.52" filterUnits="userSpaceOnUse" color-interpolation-filters="sRGB">
<feFlood flood-opacity="0" result="BackgroundImageFix"/>
<feColorMatrix in="SourceAlpha" type="matrix" values="0 0 0 0 0 0 0 0 0 0 0 0 0 0 0 0 0 0 127 0" result="hardAlpha"/>
<feOffset dx="4" dy="4"/>
<feGaussianBlur stdDeviation="2"/>
<feComposite in2="hardAlpha" operator="out"/>
<feColorMatrix type="matrix" values="0 0 0 0 0 0 0 0 0 0 0 0 0 0 0 0 0 0 0.25 0"/>
<feBlend mode="normal" in2="BackgroundImageFix" result="effect1_dropShadow_605_194"/>
<feBlend mode="normal" in="SourceGraphic" in2="effect1_dropShadow_605_194" result="shape"/>
</filter>
<filter id="filter3_d_605_194" x="107.5" y="97.5527" width="181.531" height="181.432" filterUnits="userSpaceOnUse" color-interpolation-filters="sRGB">
<feFlood flood-opacity="0" result="BackgroundImageFix"/>
<feColorMatrix in="SourceAlpha" type="matrix" values="0 0 0 0 0 0 0 0 0 0 0 0 0 0 0 0 0 0 127 0" result="hardAlpha"/>
<feOffset dx="4" dy="4"/>
<feGaussianBlur stdDeviation="2"/>
<feComposite in2="hardAlpha" operator="out"/>
<feColorMatrix type="matrix" values="0 0 0 0 0 0 0 0 0 0 0 0 0 0 0 0 0 0 0.25 0"/>
<feBlend mode="normal" in2="BackgroundImageFix" result="effect1_dropShadow_605_194"/>
<feBlend mode="normal" in="SourceGraphic" in2="effect1_dropShadow_605_194" result="shape"/>
</filter>
</defs>
</svg>
