<svg width="1125" height="726" viewBox="0 0 1125 726" fill="none" xmlns="http://www.w3.org/2000/svg">
<path d="M3.652 43V12.2H16.984C19.7413 12.2 22.1173 12.6547 24.112 13.564C26.1067 14.444 27.6467 15.72 28.732 17.392C29.8173 19.064 30.36 21.0587 30.36 23.376C30.36 25.664 29.8173 27.644 28.732 29.316C27.6467 30.988 26.1067 32.2787 24.112 33.188C22.1173 34.068 19.7413 34.508 16.984 34.508H7.612L10.78 31.296V43H3.652ZM10.78 32.088L7.612 28.7H16.588C18.788 28.7 20.4307 28.2307 21.516 27.292C22.6013 26.3533 23.144 25.048 23.144 23.376C23.144 21.6747 22.6013 20.3547 21.516 19.416C20.4307 18.4773 18.788 18.008 16.588 18.008H7.612L10.78 14.62V32.088ZM34.9219 43V19.328H41.4779V26.016L40.5539 24.08C41.2579 22.408 42.3872 21.1467 43.9419 20.296C45.4966 19.416 47.3886 18.976 49.6179 18.976V25.312C49.3246 25.2827 49.0606 25.268 48.8259 25.268C48.5912 25.2387 48.3419 25.224 48.0779 25.224C46.2006 25.224 44.6752 25.7667 43.5019 26.852C42.3579 27.908 41.7859 29.5653 41.7859 31.824V43H34.9219ZM64.7914 43.352C62.2687 43.352 60.0247 42.824 58.0594 41.768C56.1234 40.712 54.5834 39.2747 53.4394 37.456C52.3247 35.608 51.7674 33.5107 51.7674 31.164C51.7674 28.788 52.3247 26.6907 53.4394 24.872C54.5834 23.024 56.1234 21.5867 58.0594 20.56C60.0247 19.504 62.2687 18.976 64.7914 18.976C67.2847 18.976 69.514 19.504 71.4794 20.56C73.4447 21.5867 74.9847 23.0093 76.0994 24.828C77.214 26.6467 77.7714 28.7587 77.7714 31.164C77.7714 33.5107 77.214 35.608 76.0994 37.456C74.9847 39.2747 73.4447 40.712 71.4794 41.768C69.514 42.824 67.2847 43.352 64.7914 43.352ZM64.7914 37.72C65.9354 37.72 66.962 37.456 67.8714 36.928C68.7807 36.4 69.4994 35.652 70.0274 34.684C70.5554 33.6867 70.8194 32.5133 70.8194 31.164C70.8194 29.7853 70.5554 28.612 70.0274 27.644C69.4994 26.676 68.7807 25.928 67.8714 25.4C66.962 24.872 65.9354 24.608 64.7914 24.608C63.6474 24.608 62.6207 24.872 61.7114 25.4C60.802 25.928 60.0687 26.676 59.5114 27.644C58.9834 28.612 58.7194 29.7853 58.7194 31.164C58.7194 32.5133 58.9834 33.6867 59.5114 34.684C60.0687 35.652 60.802 36.4 61.7114 36.928C62.6207 37.456 63.6474 37.72 64.7914 37.72ZM83.1954 43V18.8C83.1954 16.1307 83.9874 14.004 85.5714 12.42C87.1554 10.8067 89.4141 10 92.3474 10C93.3447 10 94.2981 10.1027 95.2074 10.308C96.1461 10.5133 96.9381 10.836 97.5834 11.276L95.7794 16.248C95.3981 15.984 94.9727 15.7787 94.5034 15.632C94.0341 15.4853 93.5354 15.412 93.0074 15.412C92.0101 15.412 91.2327 15.7053 90.6754 16.292C90.1474 16.8493 89.8834 17.7 89.8834 18.844V21.044L90.0594 23.992V43H83.1954ZM79.5434 25.136V19.856H95.9554V25.136H79.5434ZM99.8274 43V19.328H106.691V43H99.8274ZM103.259 16.028C101.998 16.028 100.971 15.6613 100.179 14.928C99.3874 14.1947 98.9914 13.2853 98.9914 12.2C98.9914 11.1147 99.3874 10.2053 100.179 9.472C100.971 8.73866 101.998 8.372 103.259 8.372C104.521 8.372 105.547 8.724 106.339 9.428C107.131 10.1027 107.527 10.9827 107.527 12.068C107.527 13.212 107.131 14.1653 106.339 14.928C105.577 15.6613 104.55 16.028 103.259 16.028ZM113.039 43V10.352H119.903V43H113.039ZM138.021 43.352C135.323 43.352 132.947 42.824 130.893 41.768C128.869 40.712 127.3 39.2747 126.185 37.456C125.071 35.608 124.513 33.5107 124.513 31.164C124.513 28.788 125.056 26.6907 126.141 24.872C127.256 23.024 128.767 21.5867 130.673 20.56C132.58 19.504 134.736 18.976 137.141 18.976C139.459 18.976 141.541 19.4747 143.389 20.472C145.267 21.44 146.748 22.848 147.833 24.696C148.919 26.5147 149.461 28.7 149.461 31.252C149.461 31.516 149.447 31.824 149.417 32.176C149.388 32.4987 149.359 32.8067 149.329 33.1H130.101V29.096H145.721L143.081 30.284C143.081 29.052 142.832 27.9813 142.333 27.072C141.835 26.1627 141.145 25.4587 140.265 24.96C139.385 24.432 138.359 24.168 137.185 24.168C136.012 24.168 134.971 24.432 134.061 24.96C133.181 25.4587 132.492 26.1773 131.993 27.116C131.495 28.0253 131.245 29.1107 131.245 30.372V31.428C131.245 32.7187 131.524 33.8627 132.081 34.86C132.668 35.828 133.475 36.576 134.501 37.104C135.557 37.6027 136.789 37.852 138.197 37.852C139.459 37.852 140.559 37.6613 141.497 37.28C142.465 36.8987 143.345 36.3267 144.137 35.564L147.789 39.524C146.704 40.756 145.34 41.7093 143.697 42.384C142.055 43.0293 140.163 43.352 138.021 43.352Z" fill="black"/>
<path d="M116.542 188.872H138.202V193.356H116.542V188.872ZM118.1 170.518H137.29V174.888H118.1V170.518ZM125.358 159.118H130.032V191.038H125.358V159.118ZM102.9 165.768H115.364V169.91H102.9V165.768ZM108.334 178.764L112.856 173.368V194.458H108.334V178.764ZM108.334 158.776H112.856V167.706H108.334V158.776ZM112.4 174.66C113.73 175.572 118.024 179.372 119.05 180.322L116.276 184.008C114.794 182.032 111.602 178.536 109.892 176.864L112.4 174.66ZM113.692 165.768H114.604L115.402 165.616L117.948 167.288C115.06 174.698 109.322 181.348 103.66 184.92C103.242 183.704 102.178 181.462 101.494 180.588C106.662 177.776 111.678 172.19 113.692 166.604V165.768ZM153.478 188.796H170.502V192.938H153.478V188.796ZM151.578 162.462H165.03V166.49H151.578V162.462ZM152.566 158.51L157.696 159.536C154.466 165.084 149.906 170.176 143.066 174.28C142.42 173.14 140.9 171.468 139.874 170.67C146.144 167.364 150.362 162.728 152.566 158.51ZM163.586 162.462H164.46L165.22 162.234L168.374 163.906C163.928 175.724 153.782 183.476 142.458 187.276C141.888 186.022 140.748 184.16 139.798 183.21C150.286 180.17 160.09 172.798 163.586 163.222V162.462ZM146.6 170.822L149.982 167.858C152.604 169.72 156.062 172.418 157.734 174.394L154.048 177.7C152.604 175.724 149.222 172.798 146.6 170.822ZM168.374 177.206H173.124V194.458H168.374V177.206ZM155.416 177.206H170.654V181.348H155.416V194.382H150.856V180.588L154.314 177.206H155.416Z" fill="black"/>
<path d="M380.428 175.572H401.138V178.194H380.428V175.572ZM384.152 166.224H399.808V168.846H384.152V166.224ZM389.548 159.118H392.322V194.04H389.548V159.118ZM388.484 176.788L390.726 177.51C388.484 183.438 384.418 189.1 380.238 192.178C379.782 191.456 378.908 190.468 378.262 189.974C382.366 187.352 386.394 182.032 388.484 176.788ZM393.5 176.978C395.324 181.842 398.82 187.01 402.202 189.632C401.556 190.126 400.606 191.114 400.112 191.874C396.768 188.796 393.348 183.02 391.41 177.662L393.5 176.978ZM383.886 160.866L386.508 161.322C385.748 166.414 384.304 171.24 382.29 174.47C381.796 174.052 380.656 173.33 379.972 173.026C381.986 170.062 383.202 165.502 383.886 160.866ZM367.052 166.452H380.2V169.074H367.052V166.452ZM372.524 159.08H375.298V194.002H372.524V159.08ZM372.486 168.162L374.196 168.77C373.018 174.926 370.396 182.45 367.736 186.288C367.394 185.49 366.71 184.236 366.178 183.552C368.8 180.17 371.346 173.558 372.486 168.162ZM375.184 170.176C376.058 171.316 379.326 176.484 380.01 177.662L378.3 179.714C377.464 177.738 374.804 172.874 373.816 171.278L375.184 170.176ZM429.942 160.98L431.842 159.346C433.818 160.676 436.212 162.652 437.39 163.982L435.376 165.768C434.236 164.4 431.918 162.348 429.942 160.98ZM405.09 166.186H438.948V168.96H405.09V166.186ZM406.382 174.66H423.178V177.434H406.382V174.66ZM413.222 176.142H416.072V189.708H413.222V176.142ZM405.242 190.088C409.764 189.214 417.212 187.694 424.242 186.174L424.47 188.72C417.972 190.24 411.018 191.836 406.116 192.938L405.242 190.088ZM424.432 159.27H427.472C427.358 176.902 430.778 191.152 435.452 191.152C436.516 191.152 436.972 189.062 437.2 183.97C437.846 184.616 438.948 185.262 439.746 185.528C439.252 192.178 438.15 194.116 435.224 194.116C427.662 194.116 424.584 177.662 424.432 159.27ZM444.686 189.898C451.298 189.746 461.9 189.366 471.78 188.91L471.666 191.532C462.09 192.026 451.792 192.482 445.066 192.71L444.686 189.898ZM444.344 178.156H475.846V180.854H444.344V178.156ZM450.842 170.898H469.006V173.558H450.842V170.898ZM454.756 179.866L457.948 180.778C456.2 184.426 453.996 188.872 452.134 191.722L449.588 190.886C451.374 187.922 453.616 183.21 454.756 179.866ZM463.8 183.894L466.232 182.602C469.728 185.604 473.452 189.708 475.238 192.596L472.654 194.154C470.944 191.304 467.182 186.934 463.8 183.894ZM459.848 161.892C456.732 166.528 450.5 171.734 444.04 174.964C443.698 174.28 442.976 173.254 442.368 172.646C448.904 169.53 455.25 164.02 458.214 159.156H461.14C465.168 164.78 471.818 169.758 477.86 172.228C477.176 172.912 476.492 173.938 475.998 174.774C470.07 171.924 463.382 166.832 459.848 161.892ZM494.39 190.164H515.86V192.976H494.39V190.164ZM495.872 171.544H515.062V174.28H495.872V171.544ZM504.042 159.384H506.93V191.532H504.042V159.384ZM481.09 166.224H493.706V168.846H481.09V166.224ZM487.094 177.624L489.906 174.242V194.078H487.094V177.624ZM487.094 159.118H489.906V167.516H487.094V159.118ZM489.678 175.002C490.97 175.914 495.378 179.79 496.48 180.74L494.732 183.058C493.326 181.424 489.602 177.814 488.044 176.446L489.678 175.002ZM492.642 166.224H493.212L493.744 166.11L495.378 167.174C492.49 174.166 486.676 180.474 481.242 183.97C480.938 183.248 480.254 181.918 479.76 181.424C484.928 178.384 490.362 172.608 492.642 166.832V166.224ZM532.884 191.228C530.883 191.228 529.033 190.899 527.336 190.24C525.639 189.556 524.169 188.606 522.928 187.39C521.687 186.174 520.711 184.743 520.002 183.096C519.318 181.449 518.976 179.651 518.976 177.7C518.976 175.749 519.318 173.951 520.002 172.304C520.711 170.657 521.687 169.226 522.928 168.01C524.195 166.794 525.677 165.857 527.374 165.198C529.071 164.514 530.921 164.172 532.922 164.172C534.847 164.172 536.659 164.501 538.356 165.16C540.053 165.793 541.485 166.756 542.65 168.048L540.864 169.834C539.775 168.719 538.571 167.921 537.254 167.44C535.937 166.933 534.518 166.68 532.998 166.68C531.402 166.68 529.92 166.959 528.552 167.516C527.184 168.048 525.993 168.821 524.98 169.834C523.967 170.822 523.169 171.987 522.586 173.33C522.029 174.647 521.75 176.104 521.75 177.7C521.75 179.296 522.029 180.765 522.586 182.108C523.169 183.425 523.967 184.591 524.98 185.604C525.993 186.592 527.184 187.365 528.552 187.922C529.92 188.454 531.402 188.72 532.998 188.72C534.518 188.72 535.937 188.467 537.254 187.96C538.571 187.453 539.775 186.643 540.864 185.528L542.65 187.314C541.485 188.606 540.053 189.581 538.356 190.24C536.659 190.899 534.835 191.228 532.884 191.228ZM551.153 176.294H565.213V178.688H551.153V176.294ZM551.457 188.568H567.455V191H548.645V164.4H566.885V166.832H551.457V188.568ZM576.572 176.294H590.632V178.688H576.572V176.294ZM576.876 188.568H592.874V191H574.064V164.4H592.304V166.832H576.876V188.568ZM599.484 191V164.4H610.314C613.152 164.4 615.634 164.97 617.762 166.11C619.916 167.225 621.588 168.783 622.778 170.784C623.969 172.785 624.564 175.091 624.564 177.7C624.564 180.309 623.969 182.615 622.778 184.616C621.588 186.617 619.916 188.188 617.762 189.328C615.634 190.443 613.152 191 610.314 191H599.484ZM602.296 188.568H610.162C612.518 188.568 614.558 188.112 616.28 187.2C618.028 186.263 619.384 184.983 620.346 183.362C621.309 181.715 621.79 179.828 621.79 177.7C621.79 175.547 621.309 173.659 620.346 172.038C619.384 170.417 618.028 169.15 616.28 168.238C614.558 167.301 612.518 166.832 610.162 166.832H602.296V188.568Z" fill="black"/>
<path d="M119.392 255.84H123.724V260.476C123.724 264.048 122.926 268.456 118.936 271.192C118.29 270.356 116.466 268.836 115.554 268.266C119.012 265.986 119.392 262.946 119.392 260.362V255.84ZM127.942 255.84H132.236V264.352C132.236 265.416 132.274 265.53 132.692 265.53C132.882 265.53 133.452 265.53 133.68 265.53C134.136 265.53 134.288 265.036 134.364 261.73C135.162 262.376 136.948 263.06 138.088 263.326C137.708 268.076 136.644 269.406 134.136 269.406C133.528 269.406 132.502 269.406 131.894 269.406C128.854 269.406 127.942 268.228 127.942 264.428V255.84ZM123.002 275.22C125.586 280.616 131.02 284.72 138.164 286.468C137.138 287.38 135.808 289.242 135.2 290.382C127.6 288.14 122.242 283.314 118.974 276.512L123.002 275.22ZM131.514 271.116H132.35L133.148 270.964L136.112 272.028C133.49 282.212 126.916 287.684 118.024 290.382C117.568 289.242 116.428 287.342 115.592 286.392C123.496 284.454 129.538 279.514 131.514 271.8V271.116ZM117.568 271.116H133.3V275.22H117.568V271.116ZM121.14 255.84H130.26V259.83H121.14V255.84ZM103.964 266.404H115.706V269.824H103.964V266.404ZM104.078 255.916H115.63V259.374H104.078V255.916ZM103.964 271.572H115.706V275.03H103.964V271.572ZM102.102 261.046H117.074V264.656H102.102V261.046ZM106.054 276.854H115.668V288.406H106.054V284.796H111.754V280.464H106.054V276.854ZM103.85 276.854H107.688V289.926H103.85V276.854ZM141.964 261.388H174.188V265.872H141.964V261.388ZM140.71 284.378H175.328V288.938H140.71V284.378ZM155.53 254.738H160.318V263.896H155.53V254.738ZM164.118 267.202L169.362 268.114C167.88 274.384 165.828 281.338 164.042 285.822L159.596 284.834C161.382 280.198 163.244 272.826 164.118 267.202ZM146.866 268.456L151.198 267.316C153.022 272.028 154.428 277.918 154.808 281.946L150.134 283.2C149.868 279.248 148.5 273.092 146.866 268.456Z" fill="black"/>
<path d="M366.482 287V285.062L377.54 274.232C378.553 273.244 379.313 272.383 379.82 271.648C380.327 270.888 380.669 270.179 380.846 269.52C381.023 268.861 381.112 268.241 381.112 267.658C381.112 266.113 380.58 264.897 379.516 264.01C378.477 263.123 376.932 262.68 374.88 262.68C373.309 262.68 371.916 262.921 370.7 263.402C369.509 263.883 368.483 264.631 367.622 265.644L365.684 263.972C366.723 262.756 368.053 261.819 369.674 261.16C371.295 260.501 373.107 260.172 375.108 260.172C376.907 260.172 378.465 260.463 379.782 261.046C381.099 261.603 382.113 262.427 382.822 263.516C383.557 264.605 383.924 265.885 383.924 267.354C383.924 268.215 383.797 269.064 383.544 269.9C383.316 270.736 382.885 271.623 382.252 272.56C381.644 273.472 380.745 274.511 379.554 275.676L369.408 285.632L368.648 284.568H385.14V287H366.482ZM399.101 287.228C397.049 287.228 395.225 286.696 393.629 285.632C392.033 284.543 390.779 282.997 389.867 280.996C388.955 278.969 388.499 276.537 388.499 273.7C388.499 270.863 388.955 268.443 389.867 266.442C390.779 264.415 392.033 262.87 393.629 261.806C395.225 260.717 397.049 260.172 399.101 260.172C401.153 260.172 402.977 260.717 404.573 261.806C406.169 262.87 407.423 264.415 408.335 266.442C409.273 268.443 409.741 270.863 409.741 273.7C409.741 276.537 409.273 278.969 408.335 280.996C407.423 282.997 406.169 284.543 404.573 285.632C402.977 286.696 401.153 287.228 399.101 287.228ZM399.101 284.72C400.672 284.72 402.04 284.302 403.205 283.466C404.371 282.605 405.283 281.363 405.941 279.742C406.6 278.095 406.929 276.081 406.929 273.7C406.929 271.319 406.6 269.317 405.941 267.696C405.283 266.049 404.371 264.808 403.205 263.972C402.04 263.111 400.672 262.68 399.101 262.68C397.581 262.68 396.226 263.111 395.035 263.972C393.845 264.808 392.92 266.049 392.261 267.696C391.603 269.317 391.273 271.319 391.273 273.7C391.273 276.081 391.603 278.095 392.261 279.742C392.92 281.363 393.845 282.605 395.035 283.466C396.226 284.302 397.581 284.72 399.101 284.72ZM413.166 287V285.062L424.224 274.232C425.237 273.244 425.997 272.383 426.504 271.648C427.01 270.888 427.352 270.179 427.53 269.52C427.707 268.861 427.796 268.241 427.796 267.658C427.796 266.113 427.264 264.897 426.2 264.01C425.161 263.123 423.616 262.68 421.564 262.68C419.993 262.68 418.6 262.921 417.384 263.402C416.193 263.883 415.167 264.631 414.306 265.644L412.368 263.972C413.406 262.756 414.736 261.819 416.358 261.16C417.979 260.501 419.79 260.172 421.792 260.172C423.59 260.172 425.148 260.463 426.466 261.046C427.783 261.603 428.796 262.427 429.506 263.516C430.24 264.605 430.608 265.885 430.608 267.354C430.608 268.215 430.481 269.064 430.228 269.9C430 270.736 429.569 271.623 428.936 272.56C428.328 273.472 427.428 274.511 426.238 275.676L416.092 285.632L415.332 284.568H431.824V287H413.166ZM433.948 280.008V278.032L448.046 260.4H451.086L437.102 278.032L435.62 277.576H457.014V280.008H433.948ZM448.958 287V280.008L449.034 277.576V271.42H451.694V287H448.958ZM468.077 254.966L470.927 255.688C468.837 261.312 465.455 266.594 461.921 270.014C461.351 269.52 460.173 268.57 459.451 268.19C463.061 265.036 466.215 260.096 468.077 254.966ZM467.469 259.678H491.979V262.452H466.101L467.469 259.678ZM465.607 268.304H491.143V270.964H468.457V279.97H465.607V268.304ZM459.337 278.526H493.765V281.3H459.337V278.526ZM477.007 261.122H479.933V290.078H477.007V261.122ZM502.163 287V261.54L503.379 262.832H495.893V260.4H504.899V287H502.163ZM518.895 257.094H538.731V259.868H518.895V257.094ZM518.895 266.252H538.883V268.988H518.895V266.252ZM518.591 275.448H538.693V278.184H518.591V275.448ZM517.147 257.094H520.035V268.836C520.035 275.41 519.085 284.378 512.549 290.078C512.131 289.47 510.991 288.444 510.383 288.026C516.501 282.668 517.147 274.954 517.147 268.836V257.094ZM537.477 257.094H540.441V285.86C540.441 287.874 539.909 288.862 538.465 289.356C536.983 289.85 534.475 289.888 530.371 289.888C530.181 289.052 529.649 287.684 529.155 286.886C532.309 287 535.425 286.962 536.299 286.962C537.173 286.924 537.477 286.658 537.477 285.822V257.094Z" fill="black"/>
<path d="M104.002 354.386L105.978 351.308C108.524 351.916 112.134 353.132 114.034 354.044L111.982 357.502C110.234 356.552 106.624 355.184 104.002 354.386ZM102.33 360.846C105.142 360.314 109.246 359.326 113.274 358.414L113.692 361.986C110.386 362.974 106.89 364 104.04 364.798L102.33 360.846ZM119.164 353.284H133.756V356.476H116.618L119.164 353.284ZM132.692 353.284H133.338L134.022 353.132L137.024 353.892C136.036 355.982 134.668 358.262 133.414 359.668L129.88 358.604C130.906 357.388 132.046 355.412 132.692 353.778V353.284ZM123.04 354.614H127.144C126.384 360.048 124.256 363.316 115.744 365.026C115.364 364.114 114.414 362.594 113.654 361.796C120.988 360.656 122.47 358.452 123.04 354.614ZM126.878 355.602C127.524 358.414 129.196 360.884 137.822 361.872C136.986 362.784 135.998 364.494 135.58 365.634C126.08 364.114 124.218 359.972 123.23 355.944L126.878 355.602ZM119.05 350.738L123.04 351.384C121.558 354.424 119.696 357.198 116.808 359.554C116.01 358.756 114.452 357.806 113.388 357.388C116.162 355.488 118.024 352.942 119.05 350.738ZM111.906 371.41V373.044H128.436V371.41H111.906ZM111.906 375.628V377.3H128.436V375.628H111.906ZM111.906 367.23V368.826H128.436V367.23H111.906ZM107.498 364.494H133.034V379.998H107.498V364.494ZM122.128 381.974L125.928 379.808C129.918 381.252 134.63 383.152 137.328 384.482L132.008 386.534C129.88 385.242 125.966 383.418 122.128 381.974ZM113.692 379.694L117.872 381.556C114.756 383.57 109.816 385.47 105.94 386.572C105.142 385.66 103.584 383.988 102.558 383.228C106.586 382.468 111.108 381.138 113.692 379.694ZM141.204 358.11H174.834V362.746H141.204V358.11ZM149.032 375.362H166.664V379.998H149.032V375.362ZM155.53 350.738H160.394V386.42H155.53V350.738ZM154.162 359.782L158.342 361.112C155.074 369.396 149.678 376.654 143.028 380.834C142.268 379.694 140.748 377.946 139.722 377.034C145.954 373.614 151.464 366.774 154.162 359.782ZM161.762 359.896C164.536 366.66 170.084 373.272 176.468 376.578C175.328 377.528 173.694 379.428 172.934 380.72C166.246 376.616 160.926 369.358 157.62 361.264L161.762 359.896ZM195.848 355.07C192.694 359.516 186.88 364.494 180.648 367.8C180.078 366.736 178.786 365.064 177.798 364.114C184.334 360.922 190.452 355.222 193.264 350.624H198.014C202.118 356.4 208.236 361.188 214.278 363.658C213.176 364.798 212.112 366.356 211.276 367.762C205.462 364.684 199.116 359.554 195.848 355.07ZM186.31 362.138H205.462V366.128H186.31V362.138ZM181.788 369.89H209.946V373.804H181.788V369.89ZM179.85 381.442H212.15V385.356H179.85V381.442ZM193.34 363.734H198.204V383.38H193.34V363.734ZM184.144 375.248L187.83 373.728C189.274 375.666 190.794 378.288 191.364 380.074L187.412 381.784C186.918 380.036 185.512 377.262 184.144 375.248ZM203.486 373.766L207.818 375.4C206.26 377.718 204.588 380.188 203.258 381.784L199.838 380.378C201.054 378.592 202.65 375.818 203.486 373.766Z" fill="black"/>
<path d="M375.374 383.228C373.474 383.228 371.663 382.924 369.94 382.316C368.217 381.683 366.849 380.847 365.836 379.808L367.166 377.642C368.002 378.529 369.142 379.263 370.586 379.846C372.055 380.429 373.639 380.72 375.336 380.72C377.591 380.72 379.301 380.226 380.466 379.238C381.657 378.225 382.252 376.907 382.252 375.286C382.252 374.146 381.973 373.171 381.416 372.36C380.884 371.524 379.972 370.878 378.68 370.422C377.388 369.966 375.615 369.738 373.36 369.738H367.698L369.066 356.4H383.62V358.832H370.168L371.574 357.502L370.396 368.674L368.99 367.306H373.968C376.653 367.306 378.807 367.635 380.428 368.294C382.049 368.953 383.215 369.877 383.924 371.068C384.659 372.233 385.026 373.601 385.026 375.172C385.026 376.667 384.671 378.035 383.962 379.276C383.253 380.492 382.189 381.455 380.77 382.164C379.351 382.873 377.553 383.228 375.374 383.228ZM399.101 383.228C397.049 383.228 395.225 382.696 393.629 381.632C392.033 380.543 390.779 378.997 389.867 376.996C388.955 374.969 388.499 372.537 388.499 369.7C388.499 366.863 388.955 364.443 389.867 362.442C390.779 360.415 392.033 358.87 393.629 357.806C395.225 356.717 397.049 356.172 399.101 356.172C401.153 356.172 402.977 356.717 404.573 357.806C406.169 358.87 407.423 360.415 408.335 362.442C409.273 364.443 409.741 366.863 409.741 369.7C409.741 372.537 409.273 374.969 408.335 376.996C407.423 378.997 406.169 380.543 404.573 381.632C402.977 382.696 401.153 383.228 399.101 383.228ZM399.101 380.72C400.672 380.72 402.04 380.302 403.205 379.466C404.371 378.605 405.283 377.363 405.941 375.742C406.6 374.095 406.929 372.081 406.929 369.7C406.929 367.319 406.6 365.317 405.941 363.696C405.283 362.049 404.371 360.808 403.205 359.972C402.04 359.111 400.672 358.68 399.101 358.68C397.581 358.68 396.226 359.111 395.035 359.972C393.845 360.808 392.92 362.049 392.261 363.696C391.603 365.317 391.273 367.319 391.273 369.7C391.273 372.081 391.603 374.095 392.261 375.742C392.92 377.363 393.845 378.605 395.035 379.466C396.226 380.302 397.581 380.72 399.101 380.72ZM413.403 388.548L415.075 381.518L415.379 383.152C414.797 383.152 414.303 382.962 413.897 382.582C413.517 382.202 413.327 381.708 413.327 381.1C413.327 380.492 413.517 379.998 413.897 379.618C414.303 379.238 414.784 379.048 415.341 379.048C415.924 379.048 416.393 379.251 416.747 379.656C417.127 380.061 417.317 380.543 417.317 381.1C417.317 381.303 417.305 381.505 417.279 381.708C417.254 381.911 417.203 382.139 417.127 382.392C417.051 382.645 416.95 382.949 416.823 383.304L415.227 388.548H413.403ZM431.498 383.228C429.446 383.228 427.622 382.696 426.026 381.632C424.43 380.543 423.176 378.997 422.264 376.996C421.352 374.969 420.896 372.537 420.896 369.7C420.896 366.863 421.352 364.443 422.264 362.442C423.176 360.415 424.43 358.87 426.026 357.806C427.622 356.717 429.446 356.172 431.498 356.172C433.55 356.172 435.374 356.717 436.97 357.806C438.566 358.87 439.82 360.415 440.732 362.442C441.669 364.443 442.138 366.863 442.138 369.7C442.138 372.537 441.669 374.969 440.732 376.996C439.82 378.997 438.566 380.543 436.97 381.632C435.374 382.696 433.55 383.228 431.498 383.228ZM431.498 380.72C433.069 380.72 434.437 380.302 435.602 379.466C436.767 378.605 437.679 377.363 438.338 375.742C438.997 374.095 439.326 372.081 439.326 369.7C439.326 367.319 438.997 365.317 438.338 363.696C437.679 362.049 436.767 360.808 435.602 359.972C434.437 359.111 433.069 358.68 431.498 358.68C429.978 358.68 428.623 359.111 427.432 359.972C426.241 360.808 425.317 362.049 424.658 363.696C423.999 365.317 423.67 367.319 423.67 369.7C423.67 372.081 423.999 374.095 424.658 375.742C425.317 377.363 426.241 378.605 427.432 379.466C428.623 380.302 429.978 380.72 431.498 380.72ZM456.658 383.228C454.606 383.228 452.782 382.696 451.186 381.632C449.59 380.543 448.336 378.997 447.424 376.996C446.512 374.969 446.056 372.537 446.056 369.7C446.056 366.863 446.512 364.443 447.424 362.442C448.336 360.415 449.59 358.87 451.186 357.806C452.782 356.717 454.606 356.172 456.658 356.172C458.71 356.172 460.534 356.717 462.13 357.806C463.726 358.87 464.98 360.415 465.892 362.442C466.829 364.443 467.298 366.863 467.298 369.7C467.298 372.537 466.829 374.969 465.892 376.996C464.98 378.997 463.726 380.543 462.13 381.632C460.534 382.696 458.71 383.228 456.658 383.228ZM456.658 380.72C458.229 380.72 459.597 380.302 460.762 379.466C461.927 378.605 462.839 377.363 463.498 375.742C464.157 374.095 464.486 372.081 464.486 369.7C464.486 367.319 464.157 365.317 463.498 363.696C462.839 362.049 461.927 360.808 460.762 359.972C459.597 359.111 458.229 358.68 456.658 358.68C455.138 358.68 453.783 359.111 452.592 359.972C451.401 360.808 450.477 362.049 449.818 363.696C449.159 365.317 448.83 367.319 448.83 369.7C448.83 372.081 449.159 374.095 449.818 375.742C450.477 377.363 451.401 378.605 452.592 379.466C453.783 380.302 455.138 380.72 456.658 380.72ZM481.818 383.228C479.766 383.228 477.942 382.696 476.346 381.632C474.75 380.543 473.496 378.997 472.584 376.996C471.672 374.969 471.216 372.537 471.216 369.7C471.216 366.863 471.672 364.443 472.584 362.442C473.496 360.415 474.75 358.87 476.346 357.806C477.942 356.717 479.766 356.172 481.818 356.172C483.87 356.172 485.694 356.717 487.29 357.806C488.886 358.87 490.14 360.415 491.052 362.442C491.99 364.443 492.458 366.863 492.458 369.7C492.458 372.537 491.99 374.969 491.052 376.996C490.14 378.997 488.886 380.543 487.29 381.632C485.694 382.696 483.87 383.228 481.818 383.228ZM481.818 380.72C483.389 380.72 484.757 380.302 485.922 379.466C487.088 378.605 488 377.363 488.658 375.742C489.317 374.095 489.646 372.081 489.646 369.7C489.646 367.319 489.317 365.317 488.658 363.696C488 362.049 487.088 360.808 485.922 359.972C484.757 359.111 483.389 358.68 481.818 358.68C480.298 358.68 478.943 359.111 477.752 359.972C476.562 360.808 475.637 362.049 474.978 363.696C474.32 365.317 473.99 367.319 473.99 369.7C473.99 372.081 474.32 374.095 474.978 375.742C475.637 377.363 476.562 378.605 477.752 379.466C478.943 380.302 480.298 380.72 481.818 380.72ZM497.82 353.664H527.612V356.514H500.67V386.078H497.82V353.664ZM526.32 353.664H529.208V382.278C529.208 384.102 528.752 385.014 527.46 385.508C526.206 385.964 524.04 386.04 520.62 386.04C520.468 385.242 519.974 383.95 519.518 383.152C522.14 383.266 524.61 383.228 525.37 383.19C526.092 383.19 526.32 382.962 526.32 382.278V353.664ZM499.378 367.724H527.65V370.536H499.378V367.724ZM511.842 355.108H514.692V369.092H511.842V355.108Z" fill="black"/>
<path d="M113.882 459.544L137.024 456.466L137.67 460.798L114.566 463.914L113.882 459.544ZM128.208 449.132L131.628 447.004C133.604 448.828 135.998 451.374 137.062 453.16L133.414 455.516C132.464 453.768 130.146 451.07 128.208 449.132ZM111.792 447.042L116.124 448.486C113.274 455.212 108.638 462.242 103.888 466.612C103.432 465.51 102.14 463.078 101.342 461.976C105.446 458.442 109.436 452.78 111.792 447.042ZM107.84 457.948L112.514 453.312L112.552 453.388V482.344H107.84V457.948ZM120.988 447.308H125.624C125.89 463.572 128.094 476.188 132.692 476.834C133.566 476.91 134.06 474.934 134.326 470.754C135.2 471.704 137.252 472.92 138.088 473.338C137.1 480.71 135.048 482.458 132.92 482.344C123.914 481.508 121.672 468.018 120.988 447.308ZM142.496 449.246H173.618V453.122H142.496V449.246ZM144.244 455.06H172.136V458.708H144.244V455.06ZM141.09 460.798H174.834V464.674H141.09V460.798ZM155.568 446.738H160.204V464.066H155.568V446.738ZM155.606 462.242L159.558 464.104C155.492 468.474 148.766 472.312 142.572 474.25C141.888 473.148 140.596 471.476 139.646 470.526C145.65 468.968 152.262 465.7 155.606 462.242ZM162.18 462.964C164.156 470.526 168.374 476.036 176.202 478.278C175.176 479.19 173.884 481.09 173.238 482.344C164.726 479.38 160.508 473.072 158.038 463.762L162.18 462.964ZM170.958 465.244L174.72 468.094C171.87 470.146 168.45 472.236 165.828 473.528L162.94 471.096C165.486 469.614 168.906 467.182 170.958 465.244ZM143.674 478.126C148.272 477.328 155.264 475.884 161.762 474.478L162.18 478.582C156.214 479.95 149.754 481.356 145.042 482.382L143.674 478.126ZM148.88 470.412L151.882 467.41L153.44 467.828V478.772H148.88V470.412ZM178.862 458.252H213.062V462.28H178.862V458.252ZM182.168 450.842H203.904V454.794H182.168V450.842ZM188.856 471.514H205.842V474.934H188.856V471.514ZM188.856 477.48H205.842V481.318H188.856V477.48ZM191.136 446.738H195.62V460.494H191.136V446.738ZM207.856 447.84L211.77 449.854C204.322 460.228 192.732 467.866 180.42 472.388C179.888 471.4 178.52 469.5 177.684 468.588C190.034 464.636 201.206 457.378 207.856 447.84ZM186.31 465.32H208.73V482.306H203.98V469.044H190.87V482.458H186.31V465.32Z" fill="black"/>
<path d="M367.47 450.728H400.492V453.198H367.47V450.728ZM382.328 447.08H385.254V451.906H382.328V447.08ZM369.142 465.586H397.376V468.018H371.916V482.078H369.142V465.586ZM396.198 465.586H399.048V478.658C399.048 480.216 398.706 481.052 397.49 481.546C396.274 481.964 394.222 482.002 391.068 482.002C390.954 481.204 390.536 480.064 390.118 479.304C392.626 479.38 394.754 479.38 395.4 479.304C396.046 479.304 396.198 479.114 396.198 478.582V465.586ZM376.742 470.488H379.288V480.444H376.742V470.488ZM378.11 470.488H391.258V478.506H378.11V476.454H388.674V472.54H378.11V470.488ZM376.514 457.416V461.102H391.372V457.416H376.514ZM373.778 455.326H394.26V463.192H373.778V455.326ZM417.212 453.464H439.024V455.782H417.212V453.464ZM424.356 459.962V463.268H431.576V459.962H424.356ZM421.924 458.062H434.122V465.168H421.924V458.062ZM417.706 466.954H436.934V469.196H420.328V482.078H417.706V466.954ZM435.718 466.954H438.378V479.076C438.378 480.444 438.15 481.166 437.124 481.584C436.098 482.002 434.54 482.002 432.146 482.002C432.032 481.318 431.614 480.292 431.272 479.608C433.058 479.684 434.616 479.684 435.11 479.646C435.604 479.608 435.718 479.494 435.718 479.076V466.954ZM435.11 447.65L436.82 449.55C432.184 450.652 424.622 451.222 418.58 451.298C418.504 450.766 418.2 449.854 417.934 449.322C423.862 449.132 431.234 448.562 435.11 447.65ZM431.842 454.262C433.476 457.188 436.782 460.114 439.936 461.52C439.328 461.976 438.53 462.926 438.112 463.572C434.882 461.862 431.538 458.404 429.752 455.022L431.842 454.262ZM425.344 450.348L428.004 450.728C426.636 455.516 423.558 460.38 417.858 463.686C417.44 463.04 416.642 462.166 416.034 461.824C421.43 458.898 424.28 454.414 425.344 450.348ZM424.356 471.248H432.906V478.354H424.356V476.492H430.74V473.11H424.356V471.248ZM423.14 471.248H425.306V480.064H423.14V471.248ZM404.938 455.326H416.832V458.024H404.938V455.326ZM410.03 447.08H412.652V482.002H410.03V447.08ZM409.992 456.922L411.74 457.53C410.638 463.534 408.244 471.058 405.622 474.858C405.28 474.098 404.596 473.034 404.14 472.388C406.572 468.93 409.004 462.356 409.992 456.922ZM412.424 460.646C413.26 461.672 416.376 466.46 417.06 467.524L415.54 469.614C414.742 467.752 412.158 463.268 411.246 461.786L412.424 460.646ZM444.8 471.286H473.186V473.718H444.8V471.286ZM471.97 471.286H474.858C474.858 471.286 474.82 472.122 474.744 472.502C474.174 477.822 473.528 480.102 472.502 481.052C471.78 481.736 470.944 481.926 469.728 481.964C468.588 482.04 466.346 482.002 464.028 481.888C463.952 481.128 463.61 480.102 463.192 479.38C465.472 479.608 467.828 479.646 468.626 479.646C469.424 479.646 469.842 479.608 470.184 479.304C470.906 478.696 471.476 476.606 471.932 471.666L471.97 471.286ZM458.328 468.056H461.254C460.114 475.77 457.112 480.178 444.686 482.154C444.496 481.47 443.888 480.33 443.356 479.76C454.984 478.126 457.416 474.516 458.328 468.056ZM445.75 448.562H471.058V450.804H445.75V448.562ZM470.222 448.562H470.982L471.628 448.41L473.566 450.12C470.146 452.286 465.282 454.414 460.988 455.706C460.646 455.212 459.924 454.376 459.468 453.996C463.306 452.894 467.904 450.842 470.222 449.17V448.562ZM451.64 453.312L453.616 451.754C457.872 452.78 463.534 454.642 466.612 456.162L464.522 457.986C461.672 456.466 456.01 454.452 451.64 453.312ZM449.55 463.344V466.346H470.944V463.344H449.55ZM449.55 458.29V461.292H470.944V458.29H449.55ZM446.814 456.2H473.832V468.474H446.814V456.2ZM458.594 456.808H461.33V467.41H458.594V456.808ZM497.506 453.464H515.518V456.2H496.176L497.506 453.464ZM502.256 461.71H514.644V464.332H502.256V461.71ZM502.218 470.07H515.176V472.768H502.218V470.07ZM500.812 454.338H503.738V482.04H500.812V454.338ZM498.95 447.536L501.724 448.258C499.558 454.3 496.252 460.266 492.756 464.18C492.338 463.686 491.198 462.66 490.552 462.204C494.01 458.67 497.088 453.122 498.95 447.536ZM489.83 447.232L492.566 448.106C490.058 454.528 486.144 461.026 482.002 465.282C481.736 464.598 480.862 463.078 480.33 462.394C484.13 458.708 487.664 453.008 489.83 447.232ZM485.764 457.036L488.576 454.186L488.652 454.224V482.002H485.764V457.036Z" fill="black"/>
<path d="M117.53 542.738H122.166V574.088C122.166 576.33 121.596 577.242 120.152 577.888C118.67 578.458 116.618 578.534 113.388 578.534C113.16 577.47 112.438 575.874 111.868 574.962C113.692 575.038 115.934 575 116.58 575C117.302 574.962 117.53 574.734 117.53 574.088V542.738ZM103.28 545.208H136.72V548.818H103.28V545.208ZM111.526 553.226V555.05H128.322V553.226H111.526ZM107.194 550.338H132.996V557.938H107.194V550.338ZM106.244 559.61H133.642V574.468H129.006V562.726H106.244V559.61ZM102.406 564.322H137.594V567.78H102.406V564.322ZM105.94 569.566H131.476V572.872H105.94V569.566ZM141.128 565.994H175.024V569.718H141.128V565.994ZM141.204 548.932H174.872V552.694H141.204V548.932ZM142.762 555.734H173.428V559.306H142.762V555.734ZM144.662 560.978H171.642V564.284H144.662V560.978ZM155.682 557.558H160.204V578.42H155.682V557.558ZM152.376 542.7H156.632V550.718H152.376V542.7ZM159.406 542.7H163.738V550.452H159.406V542.7ZM154.846 567.666L158.418 569.262C154.808 573.214 148.728 576.444 142.876 577.964C142.268 576.862 140.938 575.114 139.95 574.164C145.688 573.062 151.73 570.554 154.846 567.666ZM161.116 567.552C164.194 570.554 170.122 572.91 176.05 573.898C175.024 574.848 173.656 576.748 172.972 578.002C166.968 576.482 161.154 573.252 157.582 568.958L161.116 567.552ZM168.146 543.004L172.934 544.144C171.718 546.234 170.426 548.286 169.438 549.692L165.752 548.552C166.626 546.994 167.614 544.676 168.146 543.004ZM163.13 551.174L167.956 552.276C166.93 554.1 165.942 555.772 165.144 556.988L161.268 555.886C161.952 554.518 162.75 552.58 163.13 551.174ZM143.94 544.22L147.854 542.89C148.956 544.524 150.21 546.804 150.742 548.286L146.6 549.768C146.182 548.286 144.966 545.968 143.94 544.22ZM148.766 552.732L153.174 552.048C153.82 553.112 154.542 554.594 154.846 555.62L150.21 556.418C149.982 555.43 149.336 553.834 148.766 552.732ZM193.568 559.648L197.026 557.14C200.408 560.18 205.006 564.512 207.248 567.362L203.448 570.288C201.434 567.438 196.988 562.878 193.568 559.648ZM193.682 542.738H198.356V551.858C198.356 558.166 196.76 565.956 188.096 571.124C187.45 570.136 185.892 568.464 184.828 567.666C193.036 563.448 193.682 556.798 193.682 551.82V542.738ZM180.344 549.046H209.224V553.53H184.904V578.496H180.344V549.046ZM207.21 549.046H211.732V573.214C211.732 575.684 211.2 576.938 209.642 577.698C208.046 578.42 205.614 578.458 202.232 578.458C202.08 577.204 201.358 575.114 200.75 573.936C202.992 574.05 205.538 574.05 206.26 574.05C206.982 574.012 207.21 573.784 207.21 573.138V549.046ZM227.046 550.68L231.454 552.124C229.098 555.582 225.26 558.85 221.726 560.826C221.08 559.914 219.484 558.052 218.572 557.216C221.878 555.696 225.184 553.264 227.046 550.68ZM236.318 553.226L239.51 550.604C242.702 552.466 246.996 555.392 249.086 557.52L245.628 560.522C243.728 558.432 239.586 555.316 236.318 553.226ZM234.152 559.572C231.112 563.486 225.184 567.894 219.104 570.554C218.572 569.452 217.432 567.704 216.558 566.716C222.79 564.246 228.756 559.496 231.606 555.43H236.28C240.308 560.37 246.198 564.17 252.012 566.07C250.948 567.248 249.922 568.92 249.162 570.25C243.766 567.894 237.382 563.562 234.152 559.572ZM223.322 565.31H244.906V578.382H240.27V569.3H227.73V578.42H223.322V565.31ZM225.374 573.366H242.588V577.356H225.374V573.366ZM231.53 542.738H236.242V548.134H231.53V542.738ZM217.698 545.778H250.302V553.986H245.628V549.882H222.144V553.986H217.698V545.778Z" fill="black"/>
<path d="M393.69 543.422C394.602 544.752 395.97 546.994 396.73 548.438L394.602 549.388C393.842 547.83 392.55 545.664 391.6 544.296L393.69 543.422ZM398.592 542.472C399.504 543.764 400.91 546.006 401.708 547.488L399.58 548.4C398.744 546.842 397.528 544.638 396.502 543.346L398.592 542.472ZM397.11 550.262C396.882 550.794 396.692 551.44 396.54 552.162C395.742 556.152 393.88 562.308 390.878 566.184C387.42 570.668 382.898 574.164 375.944 576.368L373.36 573.518C380.694 571.656 384.988 568.426 388.142 564.36C390.84 560.94 392.626 555.62 393.12 551.972C390.954 551.972 375.868 551.972 373.702 551.972C372.182 551.972 370.89 552.048 369.902 552.124V548.742C370.966 548.856 372.448 549.008 373.702 549.008C375.868 549.008 391.03 549.008 392.778 549.008C393.348 549.008 394.108 548.97 394.792 548.78L397.11 550.262ZM408.548 548.97C410.03 549.046 411.018 549.046 411.93 549.046C413.944 549.046 430.474 549.046 432.336 549.046C433.134 549.046 434.502 549.046 435.68 549.008C435.604 549.92 435.604 550.984 435.604 551.934C435.604 553.72 435.604 569.224 435.604 570.668C435.604 571.884 435.642 574.848 435.68 575.266H432.374C432.412 574.848 432.45 572.682 432.45 571.086C432.45 569.68 432.45 552.048 432.45 552.048H411.702C411.702 552.048 411.702 569.528 411.702 571.086C411.702 572.34 411.74 574.772 411.74 575.266H408.51C408.51 574.772 408.586 571.998 408.586 570.668C408.586 569.11 408.586 553.416 408.586 551.934C408.586 551.06 408.586 549.92 408.548 548.97ZM433.704 570.136V573.1H410.182V570.136H433.704ZM459.354 553.15C460 554.67 461.862 559.686 462.318 561.32L459.506 562.346C459.088 560.598 457.34 555.772 456.542 554.1L459.354 553.15ZM473.11 555.278C472.844 556.038 472.654 556.646 472.502 557.14C471.514 561.32 469.842 565.424 467.144 568.844C463.61 573.29 458.974 576.254 454.756 577.85L452.248 575.304C456.618 574.012 461.482 571.124 464.598 567.248C467.296 563.942 469.234 559.078 469.842 554.214L473.11 555.278ZM450.5 555.05C451.26 556.646 453.274 561.624 453.958 563.638L451.108 564.702C450.5 562.726 448.448 557.444 447.688 556.114L450.5 555.05ZM512.098 551.25C511.794 551.782 511.414 552.656 511.224 553.264C510.198 557.102 507.88 562.232 504.498 566.374C501.04 570.592 496.48 574.05 489.374 576.71L486.6 574.202C493.592 572.15 498.304 568.73 501.8 564.664C504.726 561.206 507.082 556.266 507.842 552.808H493.782L494.998 550.072C496.518 550.072 505.904 550.072 507.082 550.072C508.108 550.072 508.982 549.958 509.59 549.73L512.098 551.25ZM499.368 545.512C498.76 546.5 498.076 547.792 497.696 548.476C495.454 552.694 491.502 558.128 485.384 562.156L482.724 560.218C489.298 556.304 493.022 550.756 494.694 547.374C495.074 546.69 495.644 545.322 495.872 544.334L499.368 545.512ZM523.308 548.59C526.158 548.742 531.934 548.59 536.076 548.02C539.534 547.564 543.98 546.652 545.842 545.816L547.856 548.476C547.02 548.704 546.298 548.894 545.728 549.046C543.524 549.578 539.99 550.262 536.95 550.68C532.694 551.25 527.45 551.364 524.068 551.44L523.308 548.59ZM525.436 574.506C531.896 571.466 535.126 566.716 535.126 558.888C535.126 558.888 535.126 555.468 535.126 550.262L538.166 549.844C538.166 552.808 538.166 558.812 538.166 558.812C538.166 566.906 535.506 572.492 528.4 576.558L525.436 574.506ZM520.344 557.634C521.18 557.71 522.51 557.824 523.688 557.824C526.12 557.824 546.336 557.824 548.692 557.824C549.49 557.824 550.896 557.748 551.694 557.672V560.788C550.858 560.712 549.68 560.674 548.73 560.674C546.45 560.674 526.082 560.674 523.726 560.674C522.51 560.674 521.256 560.712 520.344 560.788V557.634ZM562.714 555.392C563.55 555.468 564.728 555.544 565.336 555.544H582.854C583.804 555.544 584.754 555.468 585.514 555.392V558.432C584.716 558.356 583.69 558.318 582.854 558.318H565.374C564.766 558.318 563.512 558.356 562.714 558.432V555.392ZM572.366 573.86V557.102H575.406V573.86H572.366ZM560.89 572.112C561.764 572.226 562.752 572.264 563.588 572.264H584.602C585.514 572.264 586.388 572.188 587.148 572.112V575.266C586.388 575.19 585.21 575.152 584.602 575.152H563.588C562.752 575.152 561.802 575.19 560.89 575.266V572.112ZM596.838 558.546C598.016 558.66 599.992 558.774 602.158 558.774C604.932 558.774 620.17 558.774 622.982 558.774C624.882 558.774 626.212 558.622 627.086 558.546V562.27C626.288 562.232 624.692 562.118 623.02 562.118C620.132 562.118 604.97 562.118 602.158 562.118C600.068 562.118 598.054 562.194 596.838 562.27V558.546ZM637.733 547.184C640.393 548.97 645.295 552.922 647.385 555.012L645.029 557.444C643.091 555.468 638.379 551.364 635.529 549.502L637.733 547.184ZM634.465 572.644C641.077 571.656 646.017 569.338 649.627 567.096C655.517 563.41 660.115 557.786 662.319 553.074L664.143 556.342C661.559 561.054 657.151 566.222 651.413 569.832C647.575 572.226 642.787 574.582 636.441 575.76L634.465 572.644ZM684.511 543.08H687.399V574.848C687.399 576.634 686.905 577.318 685.727 577.736C684.511 578.116 682.535 578.154 679.343 578.154C679.191 577.47 678.735 576.406 678.355 575.76C680.635 575.836 682.915 575.798 683.599 575.798C684.283 575.76 684.511 575.532 684.511 574.848V543.08ZM669.653 546.12H702.637V548.476H669.653V546.12ZM676.341 552.732V555.468H695.949V552.732H676.341ZM673.643 550.756H698.837V557.482H673.643V550.756ZM672.541 560.142H699.407V573.974H696.557V562.27H672.541V560.142ZM668.931 564.892H703.359V567.172H668.931V564.892ZM672.161 570.06H698.039V572.264H672.161V570.06ZM707.501 566.564H740.789V568.958H707.501V566.564ZM707.653 549.882H740.637V552.314H707.653V549.882ZM709.173 556.38H739.269V558.736H709.173V556.38ZM711.111 561.51H737.407V563.714H711.111V561.51ZM722.625 557.482H725.437V578.078H722.625V557.482ZM719.129 543.08H721.827V551.022H719.129V543.08ZM726.311 543.08H729.047V550.908H726.311V543.08ZM721.713 567.514L723.993 568.578C720.459 572.53 714.037 575.836 708.375 577.432C707.957 576.71 707.121 575.608 706.513 575C712.137 573.746 718.483 570.82 721.713 567.514ZM726.349 567.438C729.579 570.858 735.963 573.784 741.739 575C741.093 575.608 740.219 576.748 739.801 577.546C734.025 575.95 727.679 572.492 724.107 568.388L726.349 567.438ZM735.127 543.536L738.053 544.334C736.951 546.424 735.583 548.666 734.519 550.148L732.201 549.388C733.227 547.792 734.481 545.284 735.127 543.536ZM730.035 551.592L732.999 552.314C732.049 554.024 731.061 555.772 730.225 556.988L727.831 556.266C728.591 554.936 729.579 552.96 730.035 551.592ZM710.731 544.334L713.163 543.46C714.455 545.17 715.861 547.564 716.393 549.122L713.847 550.072C713.315 548.552 711.947 546.12 710.731 544.334ZM715.671 552.58L718.369 552.048C719.243 553.302 720.117 555.012 720.459 556.152L717.647 556.76C717.343 555.62 716.507 553.834 715.671 552.58Z" fill="black"/>
<path d="M103.014 640.6H119.886V644.742H103.014V640.6ZM123.002 651.62H137.936V655.99H123.002V651.62ZM129.994 654.698H134.516V674.458H129.994V654.698ZM121.178 642.12L126.65 643.412C126.612 643.792 126.346 643.982 125.662 644.096V652.722C125.662 658.878 124.788 668.264 118.746 674.382C118.138 673.394 116.428 671.836 115.364 671.304C120.684 665.908 121.178 658.346 121.178 652.684V642.12ZM104.23 647.592H108.562V657.32C108.562 662.45 108.03 669.822 105.066 674.496C104.344 673.698 102.444 672.254 101.494 671.76C104.002 667.656 104.23 661.69 104.23 657.282V647.592ZM133.68 639.118L137.67 642.538C133.604 644.552 128.246 646.11 123.61 647.136C123.344 646.11 122.622 644.438 122.052 643.488C126.308 642.424 130.944 640.752 133.68 639.118ZM106.738 647.592H119.088V660.588H106.738V656.522H114.68V651.696H106.738V647.592ZM141.09 644.02H174.986V648.39H141.09V644.02ZM153.478 656.332H173.39V660.55H153.478V656.332ZM151.996 669.252H174.834V673.47H151.996V669.252ZM161.23 650.024H165.828V671.494H161.23V650.024ZM153.06 638.7L157.81 639.84C154.998 648.998 150.21 658.232 142.078 663.78C141.622 662.488 140.558 660.474 139.874 659.372C146.752 654.888 151.084 646.376 153.06 638.7ZM145.46 654.622H150.058V674.344H145.46V654.622ZM200.446 638.738H204.74V665.566H200.446V638.738ZM189.198 654.014L208.882 645.654L210.554 649.53L190.908 658.042L189.198 654.014ZM192.96 642.424H197.292V667.048C197.292 669.29 197.634 669.594 199.99 669.594C201.13 669.594 206.184 669.594 207.362 669.594C209.452 669.594 209.832 668.758 210.136 664.844C211.124 665.528 212.91 666.25 214.126 666.478C213.556 671.874 212.188 673.66 207.742 673.66C206.488 673.66 200.788 673.66 199.61 673.66C194.404 673.66 192.96 672.292 192.96 667.01V642.424ZM208.008 646.148H207.742L208.54 645.578L209.338 645.008L212.53 646.148L212.34 646.908C212.34 654.166 212.264 658.764 212.112 660.322C211.96 662.07 211.314 662.982 210.136 663.476C209.034 664.008 207.4 664.008 206.184 664.008C206.032 662.868 205.69 661.158 205.196 660.208C205.842 660.246 206.716 660.246 207.058 660.246C207.514 660.246 207.742 660.132 207.856 659.448C208.008 658.688 208.008 654.546 208.008 646.148ZM178.292 647.554H190.832V651.848H178.292V647.554ZM182.7 639.27H186.956V664.464H182.7V639.27ZM177.76 664.502C180.914 663.362 185.854 661.31 190.49 659.334L191.516 663.362C187.488 665.414 183.118 667.466 179.584 669.062L177.76 664.502Z" fill="black"/>
<path d="M367.47 642.728H400.682V645.388H367.47V642.728ZM382.404 639.118H385.368V674.04H382.404V639.118ZM381.53 660.892L383.924 661.956C380.352 666.744 374.082 671.19 368.534 673.47C368.078 672.748 367.204 671.646 366.52 671.076C372.068 669.138 378.3 665.072 381.53 660.892ZM386.318 660.93C389.586 665.11 395.932 669.176 401.556 671.076C400.872 671.646 399.998 672.748 399.542 673.546C393.918 671.304 387.572 666.744 384 661.994L386.318 660.93ZM373.588 656.636V660.284H394.716V656.636H373.588ZM373.588 650.86V654.47H394.716V650.86H373.588ZM370.814 648.618H397.604V662.564H370.814V648.618ZM405.432 643.488H438.606V646.224H405.432V643.488ZM420.404 639.08H423.406V644.932H420.404V639.08ZM412.918 652.228V658.46H431.234V652.228H412.918ZM410.106 649.72H434.236V661.006H410.106V649.72ZM429.068 664.502L431.652 663.248C434.198 665.718 437.352 669.214 438.91 671.456L436.136 672.9C434.73 670.696 431.652 667.048 429.068 664.502ZM420.442 659.942H423.406V670.734C423.406 672.406 423.026 673.204 421.696 673.622C420.404 674.04 418.238 674.078 414.856 674.04C414.704 673.28 414.286 672.14 413.906 671.38C416.49 671.456 418.884 671.418 419.568 671.38C420.252 671.38 420.442 671.228 420.442 670.696V659.942ZM411.702 663.21L414.59 664.122C412.766 667.124 409.84 670.506 406.99 672.634C406.42 672.102 405.394 671.342 404.748 670.962C407.484 668.986 410.296 665.832 411.702 663.21ZM444.344 643.526H457.644V646.034H444.344V643.526ZM448.372 669.214H459.012V671.646H448.372V669.214ZM448.334 662.906H459.05V665.186H448.334V662.906ZM442.634 650.594H462.28V653.14H442.634V650.594ZM450.234 639.422H452.894V652.228H450.234V639.422ZM460.304 640.41L462.888 641.17C458.708 650.67 451.944 657.966 443.584 662.564C443.242 661.956 442.33 660.816 441.798 660.246C450.044 656.142 456.542 649.226 460.304 640.41ZM449.246 656.826H458.936V659.22H449.246V673.888H446.624V658.498L448.22 656.826H449.246ZM457.796 656.826H460.57V673.356H457.796V656.826ZM463.876 641.284H475.238V643.944H466.726V674.04H463.876V641.284ZM474.516 641.284H475.086L475.542 641.132L477.594 642.462C475.998 646.034 473.946 650.442 472.084 653.938C476.074 657.472 477.1 660.474 477.1 663.21C477.138 665.566 476.568 667.314 475.162 668.226C474.478 668.682 473.604 668.948 472.616 669.062C471.59 669.176 470.222 669.176 469.044 669.1C469.006 668.34 468.664 667.086 468.208 666.326C469.424 666.44 470.564 666.478 471.4 666.402C472.084 666.364 472.73 666.212 473.186 665.946C474.098 665.452 474.364 664.35 474.364 662.944C474.364 660.55 473.148 657.662 469.12 654.356C471.172 650.404 473.3 645.236 474.516 642.158V641.284ZM509.514 639.384L512.288 640.562C508.982 644.59 503.814 648.39 499.064 650.746C498.57 650.138 497.734 649.226 497.012 648.694C501.496 646.642 506.702 642.994 509.514 639.384ZM510.882 649.492L513.656 650.67C510.274 655.192 504.764 659.182 499.406 661.728C498.912 661.044 498.076 660.094 497.354 659.524C502.484 657.396 507.956 653.558 510.882 649.492ZM512.402 660.056L515.214 661.234C511.338 666.972 504.764 671.532 497.316 674.154C496.936 673.47 496.1 672.482 495.416 671.912C502.484 669.594 508.982 665.3 512.402 660.056ZM480.976 647.25H496.518V649.986H480.976V647.25ZM487.664 639.08H490.438V674.002H487.664V639.08ZM487.55 648.922L489.488 649.606C487.968 655.8 484.852 663.21 481.622 667.01C481.318 666.212 480.558 665.072 480.064 664.388C483.104 660.968 486.22 654.508 487.55 648.922ZM490.286 651.316C491.426 652.342 495.53 656.788 496.48 657.852L494.656 660.246C493.478 658.384 490.134 654.28 488.766 652.76L490.286 651.316ZM520.04 646.718H552.036V649.53H520.04V646.718ZM519.014 669.48H552.986V672.406H519.014V669.48ZM530.452 648.58H533.264V671H530.452V648.58ZM538.508 648.58H541.358V671.038H538.508V648.58ZM547.4 652.798L550.44 653.558C549.072 657.738 547.286 662.754 545.728 665.946L543.182 665.224C544.702 661.956 546.488 656.598 547.4 652.798ZM544.284 639.118L547.362 640.03C545.994 642.5 544.322 645.236 542.954 647.06L540.408 646.148C541.738 644.248 543.41 641.246 544.284 639.118ZM521.826 653.862L524.372 653.178C526.272 656.978 527.792 661.918 528.21 665.224L525.474 665.908C525.094 662.64 523.612 657.662 521.826 653.862ZM525.094 640.182L527.602 639.156C529.198 641.17 530.794 643.868 531.478 645.654L528.818 646.832C528.21 644.97 526.614 642.158 525.094 640.182ZM581.904 645.502L584.716 646.452C580.118 655.116 573.278 662.602 565.982 667.504C565.488 666.934 564.386 665.832 563.702 665.3C571.112 660.854 577.762 653.558 581.904 645.502ZM565.26 650.138L567.274 648.314C574.266 652.646 582.55 659.144 586.464 663.932L584.184 666.06C580.46 661.31 572.328 654.584 565.26 650.138ZM558.572 641.436H590.264V644.172H561.384V674.116H558.572V641.436ZM560.396 669.176H591.138V671.95H560.396V669.176ZM595.47 642.728H628.492V645.198H595.47V642.728ZM610.328 639.08H613.254V643.906H610.328V639.08ZM597.142 657.586H625.376V660.018H599.916V674.078H597.142V657.586ZM624.198 657.586H627.048V670.658C627.048 672.216 626.706 673.052 625.49 673.546C624.274 673.964 622.222 674.002 619.068 674.002C618.954 673.204 618.536 672.064 618.118 671.304C620.626 671.38 622.754 671.38 623.4 671.304C624.046 671.304 624.198 671.114 624.198 670.582V657.586ZM604.742 662.488H607.288V672.444H604.742V662.488ZM606.11 662.488H619.258V670.506H606.11V668.454H616.674V664.54H606.11V662.488ZM604.514 649.416V653.102H619.372V649.416H604.514ZM601.778 647.326H622.26V655.192H601.778V647.326ZM641.83 639.27H644.832V654.052C644.832 661.88 643.882 669.29 636.13 674.42C635.598 673.812 634.42 672.786 633.698 672.368C641.032 667.618 641.83 661.12 641.83 654.014V639.27ZM655.358 639.232H658.36V674.04H655.358V639.232ZM633.28 658.802H666.758V661.652H633.28V658.802ZM634.496 646.946H665.884V649.796H634.496V646.946ZM671.584 641.36H704.492V644.134H671.584V641.36ZM676.942 659.03H699.932V661.69H676.942V659.03ZM677.17 648.276H701.604V663.78H698.716V650.936H677.17V648.276ZM675.27 648.276H678.158V656.902C678.158 662.184 677.322 669.48 672.496 674.23C672.078 673.622 670.9 672.634 670.254 672.254C674.776 667.808 675.27 661.652 675.27 656.864V648.276ZM709.47 642.728H742.682V645.388H709.47V642.728ZM724.404 639.118H727.368V674.04H724.404V639.118ZM723.53 660.892L725.924 661.956C722.352 666.744 716.082 671.19 710.534 673.47C710.078 672.748 709.204 671.646 708.52 671.076C714.068 669.138 720.3 665.072 723.53 660.892ZM728.318 660.93C731.586 665.11 737.932 669.176 743.556 671.076C742.872 671.646 741.998 672.748 741.542 673.546C735.918 671.304 729.572 666.744 726 661.994L728.318 660.93ZM715.588 656.636V660.284H736.716V656.636H715.588ZM715.588 650.86V654.47H736.716V650.86H715.588ZM712.814 648.618H739.604V662.564H712.814V648.618ZM749.674 642.804H778.402V645.654H749.674V642.804ZM752.106 655.23H775.4V658.08H752.106V655.23ZM747.47 668.416H780.454V671.304H747.47V668.416ZM785.28 642.576H818.682V645.502H785.28V642.576ZM801.468 643.792H804.736V669.404C804.736 671.684 804.09 672.634 802.494 673.166C800.822 673.698 797.972 673.736 793.564 673.736C793.374 672.786 792.728 671.342 792.196 670.468C795.768 670.582 799.188 670.582 800.176 670.544C801.126 670.506 801.468 670.24 801.468 669.366V643.792ZM828.942 650.442H850.944V653.14H828.942V650.442ZM828.942 659.448H850.944V662.146H828.942V659.448ZM828.942 668.492H850.944V671.266H828.942V668.492ZM826.966 641.436H852.768V673.85H849.804V644.248H829.816V673.85H826.966V641.436ZM860.482 671V669.062L871.54 658.232C872.553 657.244 873.313 656.383 873.82 655.648C874.327 654.888 874.669 654.179 874.846 653.52C875.023 652.861 875.112 652.241 875.112 651.658C875.112 650.113 874.58 648.897 873.516 648.01C872.477 647.123 870.932 646.68 868.88 646.68C867.309 646.68 865.916 646.921 864.7 647.402C863.509 647.883 862.483 648.631 861.622 649.644L859.684 647.972C860.723 646.756 862.053 645.819 863.674 645.16C865.295 644.501 867.107 644.172 869.108 644.172C870.907 644.172 872.465 644.463 873.782 645.046C875.099 645.603 876.113 646.427 876.822 647.516C877.557 648.605 877.924 649.885 877.924 651.354C877.924 652.215 877.797 653.064 877.544 653.9C877.316 654.736 876.885 655.623 876.252 656.56C875.644 657.472 874.745 658.511 873.554 659.676L863.408 669.632L862.648 668.568H879.14V671H860.482ZM892.682 671.228C890.554 671.228 888.717 670.924 887.172 670.316C885.652 669.708 884.474 668.834 883.638 667.694C882.827 666.529 882.422 665.161 882.422 663.59C882.422 662.07 882.814 660.778 883.6 659.714C884.41 658.625 885.576 657.789 887.096 657.206C888.641 656.623 890.503 656.332 892.682 656.332C894.835 656.332 896.684 656.623 898.23 657.206C899.775 657.789 900.953 658.625 901.764 659.714C902.6 660.778 903.018 662.07 903.018 663.59C903.018 665.161 902.6 666.529 901.764 667.694C900.928 668.834 899.737 669.708 898.192 670.316C896.646 670.924 894.81 671.228 892.682 671.228ZM892.682 668.91C895.038 668.91 896.874 668.429 898.192 667.466C899.534 666.503 900.206 665.199 900.206 663.552C900.206 661.905 899.534 660.613 898.192 659.676C896.874 658.713 895.038 658.232 892.682 658.232C890.326 658.232 888.489 658.713 887.172 659.676C885.854 660.613 885.196 661.905 885.196 663.552C885.196 665.199 885.854 666.503 887.172 667.466C888.489 668.429 890.326 668.91 892.682 668.91ZM892.682 657.89C890.706 657.89 889.021 657.624 887.628 657.092C886.26 656.56 885.208 655.8 884.474 654.812C883.739 653.799 883.372 652.595 883.372 651.202C883.372 649.733 883.752 648.479 884.512 647.44C885.297 646.376 886.386 645.565 887.78 645.008C889.173 644.451 890.807 644.172 892.682 644.172C894.556 644.172 896.19 644.451 897.584 645.008C899.002 645.565 900.104 646.376 900.89 647.44C901.675 648.479 902.068 649.733 902.068 651.202C902.068 652.595 901.7 653.799 900.966 654.812C900.231 655.8 899.154 656.56 897.736 657.092C896.342 657.624 894.658 657.89 892.682 657.89ZM892.682 656.066C894.759 656.066 896.38 655.635 897.546 654.774C898.711 653.913 899.294 652.76 899.294 651.316C899.294 649.796 898.686 648.618 897.47 647.782C896.279 646.921 894.683 646.49 892.682 646.49C890.68 646.49 889.084 646.921 887.894 647.782C886.703 648.618 886.108 649.783 886.108 651.278C886.108 652.747 886.678 653.913 887.818 654.774C888.983 655.635 890.604 656.066 892.682 656.066ZM907.11 649.72H940.588V652.114H907.11V649.72ZM922.272 642.424H925.122V658.688H922.272V642.424ZM935.192 639.536L937.092 641.664C930.1 643.146 919.042 644.02 909.884 644.324C909.808 643.716 909.504 642.69 909.238 642.12C918.32 641.74 929.226 640.866 935.192 639.536ZM920.98 650.442L923.298 651.544C919.726 655.8 913.38 659.79 907.946 661.766C907.566 661.12 906.768 660.094 906.122 659.524C911.48 657.814 917.75 654.204 920.98 650.442ZM926.414 650.556C929.682 654.166 936.066 657.548 941.614 659.068C940.93 659.638 940.132 660.74 939.676 661.462C934.166 659.638 927.782 655.724 924.21 651.544L926.414 650.556ZM932.38 643.374L935.42 644.248C934.204 646.3 932.722 648.618 931.582 650.138L929.188 649.302C930.29 647.668 931.658 645.122 932.38 643.374ZM912.658 644.97L915.09 644.02C916.344 645.578 917.636 647.668 918.13 649.112L915.546 650.138C915.052 648.732 913.836 646.528 912.658 644.97ZM911.974 659.41H936.218V673.964H933.33V661.652H914.748V674.116H911.974V659.41ZM913.228 664.958H934.926V667.01H913.228V664.958ZM913.228 670.506H934.926V672.786H913.228V670.506ZM922.348 660.626H925.084V671.988H922.348V660.626ZM944.312 671V669.062L955.37 658.232C956.383 657.244 957.143 656.383 957.65 655.648C958.157 654.888 958.499 654.179 958.676 653.52C958.853 652.861 958.942 652.241 958.942 651.658C958.942 650.113 958.41 648.897 957.346 648.01C956.307 647.123 954.762 646.68 952.71 646.68C951.139 646.68 949.746 646.921 948.53 647.402C947.339 647.883 946.313 648.631 945.452 649.644L943.514 647.972C944.553 646.756 945.883 645.819 947.504 645.16C949.125 644.501 950.937 644.172 952.938 644.172C954.737 644.172 956.295 644.463 957.612 645.046C958.929 645.603 959.943 646.427 960.652 647.516C961.387 648.605 961.754 649.885 961.754 651.354C961.754 652.215 961.627 653.064 961.374 653.9C961.146 654.736 960.715 655.623 960.082 656.56C959.474 657.472 958.575 658.511 957.384 659.676L947.238 669.632L946.478 668.568H962.97V671H944.312ZM966.411 661.88V659.524H976.367V661.88H966.411ZM980.458 664.008V662.032L994.556 644.4H997.596L983.612 662.032L982.13 661.576H1003.52V664.008H980.458ZM995.468 671V664.008L995.544 661.576V655.42H998.204V671H995.468ZM1016.64 671.228C1014.59 671.228 1012.76 670.696 1011.17 669.632C1009.57 668.543 1008.32 666.997 1007.4 664.996C1006.49 662.969 1006.04 660.537 1006.04 657.7C1006.04 654.863 1006.49 652.443 1007.4 650.442C1008.32 648.415 1009.57 646.87 1011.17 645.806C1012.76 644.717 1014.59 644.172 1016.64 644.172C1018.69 644.172 1020.51 644.717 1022.11 645.806C1023.71 646.87 1024.96 648.415 1025.87 650.442C1026.81 652.443 1027.28 654.863 1027.28 657.7C1027.28 660.537 1026.81 662.969 1025.87 664.996C1024.96 666.997 1023.71 668.543 1022.11 669.632C1020.51 670.696 1018.69 671.228 1016.64 671.228ZM1016.64 668.72C1018.21 668.72 1019.58 668.302 1020.74 667.466C1021.91 666.605 1022.82 665.363 1023.48 663.742C1024.14 662.095 1024.47 660.081 1024.47 657.7C1024.47 655.319 1024.14 653.317 1023.48 651.696C1022.82 650.049 1021.91 648.808 1020.74 647.972C1019.58 647.111 1018.21 646.68 1016.64 646.68C1015.12 646.68 1013.76 647.111 1012.57 647.972C1011.38 648.808 1010.46 650.049 1009.8 651.696C1009.14 653.317 1008.81 655.319 1008.81 657.7C1008.81 660.081 1009.14 662.095 1009.8 663.742C1010.46 665.363 1011.38 666.605 1012.57 667.466C1013.76 668.302 1015.12 668.72 1016.64 668.72ZM1035.83 671V645.54L1037.05 646.832H1029.56V644.4H1038.57V671H1035.83ZM1052.83 643.184V649.302H1071.34V643.184H1052.83ZM1050.06 640.676H1074.26V651.848H1050.06V640.676ZM1044.78 654.774H1079.01V657.434H1044.78V654.774ZM1052.91 660.778H1072.29V663.438H1052.91V660.778ZM1071.26 660.778H1074.3C1074.3 660.778 1074.23 661.69 1074.15 662.108C1073.16 668.796 1072.25 671.76 1070.81 673.014C1069.89 673.812 1068.98 674.002 1067.5 674.078C1066.21 674.154 1063.7 674.078 1061.04 673.926C1060.96 673.128 1060.58 671.988 1060.05 671.228C1062.75 671.456 1065.52 671.494 1066.55 671.494C1067.46 671.494 1067.96 671.456 1068.41 671.152C1069.55 670.24 1070.43 667.428 1071.22 661.196L1071.26 660.778ZM1053.63 655.496L1056.63 655.952C1055.61 659.296 1054.2 663.438 1053.1 666.06L1050.06 665.528C1051.2 662.906 1052.68 658.688 1053.63 655.496ZM375.374 717L366.406 690.4H369.294L377.692 715.442H376.248L384.912 690.4H387.496L396.046 715.442H394.678L403.152 690.4H405.85L396.882 717H393.918L385.748 693.25H386.508L378.3 717H375.374ZM410.325 717V697.05H413.023V717H410.325ZM411.693 692.642C411.135 692.642 410.667 692.452 410.287 692.072C409.907 691.692 409.717 691.236 409.717 690.704C409.717 690.172 409.907 689.729 410.287 689.374C410.667 688.994 411.135 688.804 411.693 688.804C412.25 688.804 412.719 688.981 413.099 689.336C413.479 689.691 413.669 690.134 413.669 690.666C413.669 691.223 413.479 691.692 413.099 692.072C412.744 692.452 412.275 692.642 411.693 692.642ZM425.888 717.19C424.241 717.19 422.683 716.962 421.214 716.506C419.744 716.025 418.592 715.429 417.756 714.72L418.972 712.592C419.782 713.2 420.821 713.732 422.088 714.188C423.354 714.619 424.684 714.834 426.078 714.834C427.978 714.834 429.346 714.543 430.182 713.96C431.018 713.352 431.436 712.554 431.436 711.566C431.436 710.831 431.195 710.261 430.714 709.856C430.258 709.425 429.65 709.109 428.89 708.906C428.13 708.678 427.281 708.488 426.344 708.336C425.406 708.184 424.469 708.007 423.532 707.804C422.62 707.601 421.784 707.31 421.024 706.93C420.264 706.525 419.643 705.98 419.162 705.296C418.706 704.612 418.478 703.7 418.478 702.56C418.478 701.471 418.782 700.495 419.39 699.634C419.998 698.773 420.884 698.101 422.05 697.62C423.24 697.113 424.684 696.86 426.382 696.86C427.674 696.86 428.966 697.037 430.258 697.392C431.55 697.721 432.614 698.165 433.45 698.722L432.272 700.888C431.385 700.28 430.435 699.849 429.422 699.596C428.408 699.317 427.395 699.178 426.382 699.178C424.583 699.178 423.253 699.495 422.392 700.128C421.556 700.736 421.138 701.521 421.138 702.484C421.138 703.244 421.366 703.839 421.822 704.27C422.303 704.701 422.924 705.043 423.684 705.296C424.469 705.524 425.318 705.714 426.23 705.866C427.167 706.018 428.092 706.208 429.004 706.436C429.941 706.639 430.79 706.93 431.55 707.31C432.335 707.665 432.956 708.184 433.412 708.868C433.893 709.527 434.134 710.401 434.134 711.49C434.134 712.655 433.804 713.669 433.146 714.53C432.512 715.366 431.575 716.025 430.334 716.506C429.118 716.962 427.636 717.19 425.888 717.19ZM445.392 717.19C443.518 717.19 442.074 716.683 441.06 715.67C440.047 714.657 439.54 713.225 439.54 711.376V692.642H442.238V711.224C442.238 712.389 442.53 713.289 443.112 713.922C443.72 714.555 444.582 714.872 445.696 714.872C446.887 714.872 447.875 714.53 448.66 713.846L449.61 715.784C449.078 716.265 448.432 716.62 447.672 716.848C446.938 717.076 446.178 717.19 445.392 717.19ZM435.968 699.292V697.05H448.318V699.292H435.968ZM467.024 717V712.592L466.91 711.87V704.498C466.91 702.801 466.428 701.496 465.466 700.584C464.528 699.672 463.122 699.216 461.248 699.216C459.956 699.216 458.727 699.431 457.562 699.862C456.396 700.293 455.408 700.863 454.598 701.572L453.382 699.558C454.395 698.697 455.611 698.038 457.03 697.582C458.448 697.101 459.943 696.86 461.514 696.86C464.098 696.86 466.086 697.506 467.48 698.798C468.898 700.065 469.608 702.003 469.608 704.612V717H467.024ZM460.146 717.19C458.651 717.19 457.346 716.949 456.232 716.468C455.142 715.961 454.306 715.277 453.724 714.416C453.141 713.529 452.85 712.516 452.85 711.376C452.85 710.337 453.09 709.4 453.572 708.564C454.078 707.703 454.889 707.019 456.004 706.512C457.144 705.98 458.664 705.714 460.564 705.714H467.442V707.728H460.64C458.714 707.728 457.372 708.07 456.612 708.754C455.877 709.438 455.51 710.287 455.51 711.3C455.51 712.44 455.953 713.352 456.84 714.036C457.726 714.72 458.968 715.062 460.564 715.062C462.084 715.062 463.388 714.72 464.478 714.036C465.592 713.327 466.403 712.313 466.91 710.996L467.518 712.858C467.011 714.175 466.124 715.227 464.858 716.012C463.616 716.797 462.046 717.19 460.146 717.19ZM492.619 717V692.832H483.271V690.4H504.779V692.832H495.431V717H492.619ZM520.09 717V712.592L519.976 711.87V704.498C519.976 702.801 519.495 701.496 518.532 700.584C517.595 699.672 516.189 699.216 514.314 699.216C513.022 699.216 511.794 699.431 510.628 699.862C509.463 700.293 508.475 700.863 507.664 701.572L506.448 699.558C507.462 698.697 508.678 698.038 510.096 697.582C511.515 697.101 513.01 696.86 514.58 696.86C517.164 696.86 519.153 697.506 520.546 698.798C521.965 700.065 522.674 702.003 522.674 704.612V717H520.09ZM513.212 717.19C511.718 717.19 510.413 716.949 509.298 716.468C508.209 715.961 507.373 715.277 506.79 714.416C506.208 713.529 505.916 712.516 505.916 711.376C505.916 710.337 506.157 709.4 506.638 708.564C507.145 707.703 507.956 707.019 509.07 706.512C510.21 705.98 511.73 705.714 513.63 705.714H520.508V707.728H513.706C511.781 707.728 510.438 708.07 509.678 708.754C508.944 709.438 508.576 710.287 508.576 711.3C508.576 712.44 509.02 713.352 509.906 714.036C510.793 714.72 512.034 715.062 513.63 715.062C515.15 715.062 516.455 714.72 517.544 714.036C518.659 713.327 519.47 712.313 519.976 710.996L520.584 712.858C520.078 714.175 519.191 715.227 517.924 716.012C516.683 716.797 515.112 717.19 513.212 717.19ZM532.13 711.832L532.206 708.374L544.632 697.05H547.938L539.16 705.448L537.64 706.74L532.13 711.832ZM530.002 717V688.804H532.7V717H530.002ZM545.468 717L537.146 706.626L538.894 704.536L548.774 717H545.468ZM564.955 717V712.592L564.841 711.87V704.498C564.841 702.801 564.36 701.496 563.397 700.584C562.46 699.672 561.054 699.216 559.179 699.216C557.887 699.216 556.659 699.431 555.493 699.862C554.328 700.293 553.34 700.863 552.529 701.572L551.313 699.558C552.327 698.697 553.543 698.038 554.961 697.582C556.38 697.101 557.875 696.86 559.445 696.86C562.029 696.86 564.018 697.506 565.411 698.798C566.83 700.065 567.539 702.003 567.539 704.612V717H564.955ZM558.077 717.19C556.583 717.19 555.278 716.949 554.163 716.468C553.074 715.961 552.238 715.277 551.655 714.416C551.073 713.529 550.781 712.516 550.781 711.376C550.781 710.337 551.022 709.4 551.503 708.564C552.01 707.703 552.821 707.019 553.935 706.512C555.075 705.98 556.595 705.714 558.495 705.714H565.373V707.728H558.571C556.646 707.728 555.303 708.07 554.543 708.754C553.809 709.438 553.441 710.287 553.441 711.3C553.441 712.44 553.885 713.352 554.771 714.036C555.658 714.72 556.899 715.062 558.495 715.062C560.015 715.062 561.32 714.72 562.409 714.036C563.524 713.327 564.335 712.313 564.841 710.996L565.449 712.858C564.943 714.175 564.056 715.227 562.789 716.012C561.548 716.797 559.977 717.19 558.077 717.19ZM574.867 717V697.05H577.565V717H574.867ZM576.235 692.642C575.678 692.642 575.209 692.452 574.829 692.072C574.449 691.692 574.259 691.236 574.259 690.704C574.259 690.172 574.449 689.729 574.829 689.374C575.209 688.994 575.678 688.804 576.235 688.804C576.793 688.804 577.261 688.981 577.641 689.336C578.021 689.691 578.211 690.134 578.211 690.666C578.211 691.223 578.021 691.692 577.641 692.072C577.287 692.452 576.818 692.642 576.235 692.642ZM593.015 717.19C591.115 717.19 589.405 716.759 587.885 715.898C586.39 715.037 585.212 713.846 584.351 712.326C583.489 710.781 583.059 709.007 583.059 707.006C583.059 704.979 583.489 703.206 584.351 701.686C585.212 700.166 586.39 698.988 587.885 698.152C589.405 697.291 591.115 696.86 593.015 696.86C594.763 696.86 596.321 697.253 597.689 698.038C599.082 698.823 600.184 699.976 600.995 701.496C601.831 702.991 602.249 704.827 602.249 707.006C602.249 709.159 601.843 710.996 601.033 712.516C600.222 714.036 599.12 715.201 597.727 716.012C596.359 716.797 594.788 717.19 593.015 717.19ZM593.205 714.796C594.623 714.796 595.89 714.479 597.005 713.846C598.145 713.187 599.031 712.275 599.665 711.11C600.323 709.919 600.653 708.551 600.653 707.006C600.653 705.435 600.323 704.067 599.665 702.902C599.031 701.737 598.145 700.837 597.005 700.204C595.89 699.545 594.623 699.216 593.205 699.216C591.811 699.216 590.557 699.545 589.443 700.204C588.328 700.837 587.441 701.737 586.783 702.902C586.124 704.067 585.795 705.435 585.795 707.006C585.795 708.551 586.124 709.919 586.783 711.11C587.441 712.275 588.328 713.187 589.443 713.846C590.557 714.479 591.811 714.796 593.205 714.796ZM600.729 717V710.996L600.995 706.968L600.615 702.94V688.804H603.313V717H600.729ZM618.958 717.19C617.033 717.19 615.298 716.759 613.752 715.898C612.232 715.011 611.029 713.808 610.142 712.288C609.256 710.743 608.812 708.982 608.812 707.006C608.812 705.005 609.256 703.244 610.142 701.724C611.029 700.204 612.232 699.013 613.752 698.152C615.272 697.291 617.008 696.86 618.958 696.86C620.934 696.86 622.682 697.291 624.202 698.152C625.748 699.013 626.951 700.204 627.812 701.724C628.699 703.244 629.142 705.005 629.142 707.006C629.142 708.982 628.699 710.743 627.812 712.288C626.951 713.808 625.748 715.011 624.202 715.898C622.657 716.759 620.909 717.19 618.958 717.19ZM618.958 714.796C620.402 714.796 621.682 714.479 622.796 713.846C623.911 713.187 624.785 712.275 625.418 711.11C626.077 709.919 626.406 708.551 626.406 707.006C626.406 705.435 626.077 704.067 625.418 702.902C624.785 701.737 623.911 700.837 622.796 700.204C621.682 699.545 620.415 699.216 618.996 699.216C617.578 699.216 616.311 699.545 615.196 700.204C614.082 700.837 613.195 701.737 612.536 702.902C611.878 704.067 611.548 705.435 611.548 707.006C611.548 708.551 611.878 709.919 612.536 711.11C613.195 712.275 614.082 713.187 615.196 713.846C616.311 714.479 617.565 714.796 618.958 714.796Z" fill="black"/>
</svg>
