<svg width="898" height="607" viewBox="0 0 898 607" fill="none" xmlns="http://www.w3.org/2000/svg">
<path d="M3.652 43V12.2H16.984C19.7413 12.2 22.1173 12.6547 24.112 13.564C26.1067 14.444 27.6467 15.72 28.732 17.392C29.8173 19.064 30.36 21.0587 30.36 23.376C30.36 25.664 29.8173 27.644 28.732 29.316C27.6467 30.988 26.1067 32.2787 24.112 33.188C22.1173 34.068 19.7413 34.508 16.984 34.508H7.612L10.78 31.296V43H3.652ZM10.78 32.088L7.612 28.7H16.588C18.788 28.7 20.4307 28.2307 21.516 27.292C22.6013 26.3533 23.144 25.048 23.144 23.376C23.144 21.6747 22.6013 20.3547 21.516 19.416C20.4307 18.4773 18.788 18.008 16.588 18.008H7.612L10.78 14.62V32.088ZM34.9219 43V19.328H41.4779V26.016L40.5539 24.08C41.2579 22.408 42.3872 21.1467 43.9419 20.296C45.4966 19.416 47.3886 18.976 49.6179 18.976V25.312C49.3246 25.2827 49.0606 25.268 48.8259 25.268C48.5912 25.2387 48.3419 25.224 48.0779 25.224C46.2006 25.224 44.6752 25.7667 43.5019 26.852C42.3579 27.908 41.7859 29.5653 41.7859 31.824V43H34.9219ZM64.7914 43.352C62.2687 43.352 60.0247 42.824 58.0594 41.768C56.1234 40.712 54.5834 39.2747 53.4394 37.456C52.3247 35.608 51.7674 33.5107 51.7674 31.164C51.7674 28.788 52.3247 26.6907 53.4394 24.872C54.5834 23.024 56.1234 21.5867 58.0594 20.56C60.0247 19.504 62.2687 18.976 64.7914 18.976C67.2847 18.976 69.514 19.504 71.4794 20.56C73.4447 21.5867 74.9847 23.0093 76.0994 24.828C77.214 26.6467 77.7714 28.7587 77.7714 31.164C77.7714 33.5107 77.214 35.608 76.0994 37.456C74.9847 39.2747 73.4447 40.712 71.4794 41.768C69.514 42.824 67.2847 43.352 64.7914 43.352ZM64.7914 37.72C65.9354 37.72 66.962 37.456 67.8714 36.928C68.7807 36.4 69.4994 35.652 70.0274 34.684C70.5554 33.6867 70.8194 32.5133 70.8194 31.164C70.8194 29.7853 70.5554 28.612 70.0274 27.644C69.4994 26.676 68.7807 25.928 67.8714 25.4C66.962 24.872 65.9354 24.608 64.7914 24.608C63.6474 24.608 62.6207 24.872 61.7114 25.4C60.802 25.928 60.0687 26.676 59.5114 27.644C58.9834 28.612 58.7194 29.7853 58.7194 31.164C58.7194 32.5133 58.9834 33.6867 59.5114 34.684C60.0687 35.652 60.802 36.4 61.7114 36.928C62.6207 37.456 63.6474 37.72 64.7914 37.72ZM83.1954 43V18.8C83.1954 16.1307 83.9874 14.004 85.5714 12.42C87.1554 10.8067 89.4141 10 92.3474 10C93.3447 10 94.2981 10.1027 95.2074 10.308C96.1461 10.5133 96.9381 10.836 97.5834 11.276L95.7794 16.248C95.3981 15.984 94.9727 15.7787 94.5034 15.632C94.0341 15.4853 93.5354 15.412 93.0074 15.412C92.0101 15.412 91.2327 15.7053 90.6754 16.292C90.1474 16.8493 89.8834 17.7 89.8834 18.844V21.044L90.0594 23.992V43H83.1954ZM79.5434 25.136V19.856H95.9554V25.136H79.5434ZM99.8274 43V19.328H106.691V43H99.8274ZM103.259 16.028C101.998 16.028 100.971 15.6613 100.179 14.928C99.3874 14.1947 98.9914 13.2853 98.9914 12.2C98.9914 11.1147 99.3874 10.2053 100.179 9.472C100.971 8.73866 101.998 8.372 103.259 8.372C104.521 8.372 105.547 8.724 106.339 9.428C107.131 10.1027 107.527 10.9827 107.527 12.068C107.527 13.212 107.131 14.1653 106.339 14.928C105.577 15.6613 104.55 16.028 103.259 16.028ZM113.039 43V10.352H119.903V43H113.039ZM138.021 43.352C135.323 43.352 132.947 42.824 130.893 41.768C128.869 40.712 127.3 39.2747 126.185 37.456C125.071 35.608 124.513 33.5107 124.513 31.164C124.513 28.788 125.056 26.6907 126.141 24.872C127.256 23.024 128.767 21.5867 130.673 20.56C132.58 19.504 134.736 18.976 137.141 18.976C139.459 18.976 141.541 19.4747 143.389 20.472C145.267 21.44 146.748 22.848 147.833 24.696C148.919 26.5147 149.461 28.7 149.461 31.252C149.461 31.516 149.447 31.824 149.417 32.176C149.388 32.4987 149.359 32.8067 149.329 33.1H130.101V29.096H145.721L143.081 30.284C143.081 29.052 142.832 27.9813 142.333 27.072C141.835 26.1627 141.145 25.4587 140.265 24.96C139.385 24.432 138.359 24.168 137.185 24.168C136.012 24.168 134.971 24.432 134.061 24.96C133.181 25.4587 132.492 26.1773 131.993 27.116C131.495 28.0253 131.245 29.1107 131.245 30.372V31.428C131.245 32.7187 131.524 33.8627 132.081 34.86C132.668 35.828 133.475 36.576 134.501 37.104C135.557 37.6027 136.789 37.852 138.197 37.852C139.459 37.852 140.559 37.6613 141.497 37.28C142.465 36.8987 143.345 36.3267 144.137 35.564L147.789 39.524C146.704 40.756 145.34 41.7093 143.697 42.384C142.055 43.0293 140.163 43.352 138.021 43.352Z" fill="black"/>
<path d="M211.816 175.656H225.496V178.488H211.816V175.656ZM212.8 164.064H224.92V166.824H212.8V164.064ZM217.384 156.864H220.336V177.024H217.384V156.864ZM203.2 161.064H211.072V163.68H203.2V161.064ZM206.632 169.272L209.488 165.864V179.184H206.632V169.272ZM206.632 156.648H209.488V162.288H206.632V156.648ZM209.2 166.68C210.04 167.256 212.752 169.656 213.4 170.256L211.648 172.584C210.712 171.336 208.696 169.128 207.616 168.072L209.2 166.68ZM210.016 161.064H210.592L211.096 160.968L212.704 162.024C210.88 166.704 207.256 170.904 203.68 173.16C203.416 172.392 202.744 170.976 202.312 170.424C205.576 168.648 208.744 165.12 210.016 161.592V161.064ZM235.144 175.608H245.896V178.224H235.144V175.608ZM233.944 158.976H242.44V161.52H233.944V158.976ZM234.568 156.48L237.808 157.128C235.768 160.632 232.888 163.848 228.568 166.44C228.16 165.72 227.2 164.664 226.552 164.16C230.512 162.072 233.176 159.144 234.568 156.48ZM241.528 158.976H242.08L242.56 158.832L244.552 159.888C241.744 167.352 235.336 172.248 228.184 174.648C227.824 173.856 227.104 172.68 226.504 172.08C233.128 170.16 239.32 165.504 241.528 159.456V158.976ZM230.8 164.256L232.936 162.384C234.592 163.56 236.776 165.264 237.832 166.512L235.504 168.6C234.592 167.352 232.456 165.504 230.8 164.256ZM244.552 168.288H247.552V179.184H244.552V168.288ZM236.368 168.288H245.992V170.904H236.368V179.136H233.488V170.424L235.672 168.288H236.368Z" fill="black"/>
<path d="M441.744 167.256H454.824V168.912H441.744V167.256ZM444.096 161.352H453.984V163.008H444.096V161.352ZM447.504 156.864H449.256V178.92H447.504V156.864ZM446.832 168.024L448.248 168.48C446.832 172.224 444.264 175.8 441.624 177.744C441.336 177.288 440.784 176.664 440.376 176.352C442.968 174.696 445.512 171.336 446.832 168.024ZM450 168.144C451.152 171.216 453.36 174.48 455.496 176.136C455.088 176.448 454.488 177.072 454.176 177.552C452.064 175.608 449.904 171.96 448.68 168.576L450 168.144ZM443.928 157.968L445.584 158.256C445.104 161.472 444.192 164.52 442.92 166.56C442.608 166.296 441.888 165.84 441.456 165.648C442.728 163.776 443.496 160.896 443.928 157.968ZM433.296 161.496H441.6V163.152H433.296V161.496ZM436.752 156.84H438.504V178.896H436.752V156.84ZM436.728 162.576L437.808 162.96C437.064 166.848 435.408 171.6 433.728 174.024C433.512 173.52 433.08 172.728 432.744 172.296C434.4 170.16 436.008 165.984 436.728 162.576ZM438.432 163.848C438.984 164.568 441.048 167.832 441.48 168.576L440.4 169.872C439.872 168.624 438.192 165.552 437.568 164.544L438.432 163.848ZM473.016 158.04L474.216 157.008C475.464 157.848 476.976 159.096 477.72 159.936L476.448 161.064C475.728 160.2 474.264 158.904 473.016 158.04ZM457.32 161.328H478.704V163.08H457.32V161.328ZM458.136 166.68H468.744V168.432H458.136V166.68ZM462.456 167.616H464.256V176.184H462.456V167.616ZM457.416 176.424C460.272 175.872 464.976 174.912 469.416 173.952L469.56 175.56C465.456 176.52 461.064 177.528 457.968 178.224L457.416 176.424ZM469.536 156.96H471.456C471.384 168.096 473.544 177.096 476.496 177.096C477.168 177.096 477.456 175.776 477.6 172.56C478.008 172.968 478.704 173.376 479.208 173.544C478.896 177.744 478.2 178.968 476.352 178.968C471.576 178.968 469.632 168.576 469.536 156.96ZM482.328 176.304C486.504 176.208 493.2 175.968 499.44 175.68L499.368 177.336C493.32 177.648 486.816 177.936 482.568 178.08L482.328 176.304ZM482.112 168.888H502.008V170.592H482.112V168.888ZM486.216 164.304H497.688V165.984H486.216V164.304ZM488.688 169.968L490.704 170.544C489.6 172.848 488.208 175.656 487.032 177.456L485.424 176.928C486.552 175.056 487.968 172.08 488.688 169.968ZM494.4 172.512L495.936 171.696C498.144 173.592 500.496 176.184 501.624 178.008L499.992 178.992C498.912 177.192 496.536 174.432 494.4 172.512ZM491.904 158.616C489.936 161.544 486 164.832 481.92 166.872C481.704 166.44 481.248 165.792 480.864 165.408C484.992 163.44 489 159.96 490.872 156.888H492.72C495.264 160.44 499.464 163.584 503.28 165.144C502.848 165.576 502.416 166.224 502.104 166.752C498.36 164.952 494.136 161.736 491.904 158.616ZM513.72 176.472H527.28V178.248H513.72V176.472ZM514.656 164.712H526.776V166.44H514.656V164.712ZM519.816 157.032H521.64V177.336H519.816V157.032ZM505.32 161.352H513.288V163.008H505.32V161.352ZM509.112 168.552L510.888 166.416V178.944H509.112V168.552ZM509.112 156.864H510.888V162.168H509.112V156.864ZM510.744 166.896C511.56 167.472 514.344 169.92 515.04 170.52L513.936 171.984C513.048 170.952 510.696 168.672 509.712 167.808L510.744 166.896ZM512.616 161.352H512.976L513.312 161.28L514.344 161.952C512.52 166.368 508.848 170.352 505.416 172.56C505.224 172.104 504.792 171.264 504.48 170.952C507.744 169.032 511.176 165.384 512.616 161.736V161.352ZM538.032 177.144C536.768 177.144 535.6 176.936 534.528 176.52C533.456 176.088 532.528 175.488 531.744 174.72C530.96 173.952 530.344 173.048 529.896 172.008C529.464 170.968 529.248 169.832 529.248 168.6C529.248 167.368 529.464 166.232 529.896 165.192C530.344 164.152 530.96 163.248 531.744 162.48C532.544 161.712 533.48 161.12 534.552 160.704C535.624 160.272 536.792 160.056 538.056 160.056C539.272 160.056 540.416 160.264 541.488 160.68C542.56 161.08 543.464 161.688 544.2 162.504L543.072 163.632C542.384 162.928 541.624 162.424 540.792 162.12C539.96 161.8 539.064 161.64 538.104 161.64C537.096 161.64 536.16 161.816 535.296 162.168C534.432 162.504 533.68 162.992 533.04 163.632C532.4 164.256 531.896 164.992 531.528 165.84C531.176 166.672 531 167.592 531 168.6C531 169.608 531.176 170.536 531.528 171.384C531.896 172.216 532.4 172.952 533.04 173.592C533.68 174.216 534.432 174.704 535.296 175.056C536.16 175.392 537.096 175.56 538.104 175.56C539.064 175.56 539.96 175.4 540.792 175.08C541.624 174.76 542.384 174.248 543.072 173.544L544.2 174.672C543.464 175.488 542.56 176.104 541.488 176.52C540.416 176.936 539.264 177.144 538.032 177.144ZM549.57 167.712H558.45V169.224H549.57V167.712ZM549.762 175.464H559.866V177H547.986V160.2H559.506V161.736H549.762V175.464ZM565.625 167.712H574.505V169.224H565.625V167.712ZM565.817 175.464H575.921V177H564.041V160.2H575.561V161.736H565.817V175.464ZM580.095 177V160.2H586.935C588.727 160.2 590.295 160.56 591.639 161.28C592.999 161.984 594.055 162.968 594.807 164.232C595.559 165.496 595.935 166.952 595.935 168.6C595.935 170.248 595.559 171.704 594.807 172.968C594.055 174.232 592.999 175.224 591.639 175.944C590.295 176.648 588.727 177 586.935 177H580.095ZM581.871 175.464H586.839C588.327 175.464 589.615 175.176 590.703 174.6C591.807 174.008 592.663 173.2 593.271 172.176C593.879 171.136 594.183 169.944 594.183 168.6C594.183 167.24 593.879 166.048 593.271 165.024C592.663 164 591.807 163.2 590.703 162.624C589.615 162.032 588.327 161.736 586.839 161.736H581.871V175.464Z" fill="black"/>
<path d="M213.616 236.32H216.352V239.248C216.352 241.504 215.848 244.288 213.328 246.016C212.92 245.488 211.768 244.528 211.192 244.168C213.376 242.728 213.616 240.808 213.616 239.176V236.32ZM219.016 236.32H221.728V241.696C221.728 242.368 221.752 242.44 222.016 242.44C222.136 242.44 222.496 242.44 222.64 242.44C222.928 242.44 223.024 242.128 223.072 240.04C223.576 240.448 224.704 240.88 225.424 241.048C225.184 244.048 224.512 244.888 222.928 244.888C222.544 244.888 221.896 244.888 221.512 244.888C219.592 244.888 219.016 244.144 219.016 241.744V236.32ZM215.896 248.56C217.528 251.968 220.96 254.56 225.472 255.664C224.824 256.24 223.984 257.416 223.6 258.136C218.8 256.72 215.416 253.672 213.352 249.376L215.896 248.56ZM221.272 245.968H221.8L222.304 245.872L224.176 246.544C222.52 252.976 218.368 256.432 212.752 258.136C212.464 257.416 211.744 256.216 211.216 255.616C216.208 254.392 220.024 251.272 221.272 246.4V245.968ZM212.464 245.968H222.4V248.56H212.464V245.968ZM214.72 236.32H220.48V238.84H214.72V236.32ZM203.872 242.992H211.288V245.152H203.872V242.992ZM203.944 236.368H211.24V238.552H203.944V236.368ZM203.872 246.256H211.288V248.44H203.872V246.256ZM202.696 239.608H212.152V241.888H202.696V239.608ZM205.192 249.592H211.264V256.888H205.192V254.608H208.792V251.872H205.192V249.592ZM203.8 249.592H206.224V257.848H203.8V249.592ZM227.872 239.824H248.224V242.656H227.872V239.824ZM227.08 254.344H248.944V257.224H227.08V254.344ZM236.44 235.624H239.464V241.408H236.44V235.624ZM241.864 243.496L245.176 244.072C244.24 248.032 242.944 252.424 241.816 255.256L239.008 254.632C240.136 251.704 241.312 247.048 241.864 243.496ZM230.968 244.288L233.704 243.568C234.856 246.544 235.744 250.264 235.984 252.808L233.032 253.6C232.864 251.104 232 247.216 230.968 244.288Z" fill="black"/>
<path d="M432.936 256V254.776L439.92 247.936C440.56 247.312 441.04 246.768 441.36 246.304C441.68 245.824 441.896 245.376 442.008 244.96C442.12 244.544 442.176 244.152 442.176 243.784C442.176 242.808 441.84 242.04 441.168 241.48C440.512 240.92 439.536 240.64 438.24 240.64C437.248 240.64 436.368 240.792 435.6 241.096C434.848 241.4 434.2 241.872 433.656 242.512L432.432 241.456C433.088 240.688 433.928 240.096 434.952 239.68C435.976 239.264 437.12 239.056 438.384 239.056C439.52 239.056 440.504 239.24 441.336 239.608C442.168 239.96 442.808 240.48 443.256 241.168C443.72 241.856 443.952 242.664 443.952 243.592C443.952 244.136 443.872 244.672 443.712 245.2C443.568 245.728 443.296 246.288 442.896 246.88C442.512 247.456 441.944 248.112 441.192 248.848L434.784 255.136L434.304 254.464H444.72V256H432.936ZM453.538 256.144C452.242 256.144 451.09 255.808 450.082 255.136C449.074 254.448 448.282 253.472 447.706 252.208C447.13 250.928 446.842 249.392 446.842 247.6C446.842 245.808 447.13 244.28 447.706 243.016C448.282 241.736 449.074 240.76 450.082 240.088C451.09 239.4 452.242 239.056 453.538 239.056C454.834 239.056 455.986 239.4 456.994 240.088C458.002 240.76 458.794 241.736 459.37 243.016C459.962 244.28 460.258 245.808 460.258 247.6C460.258 249.392 459.962 250.928 459.37 252.208C458.794 253.472 458.002 254.448 456.994 255.136C455.986 255.808 454.834 256.144 453.538 256.144ZM453.538 254.56C454.53 254.56 455.394 254.296 456.13 253.768C456.866 253.224 457.442 252.44 457.858 251.416C458.274 250.376 458.482 249.104 458.482 247.6C458.482 246.096 458.274 244.832 457.858 243.808C457.442 242.768 456.866 241.984 456.13 241.456C455.394 240.912 454.53 240.64 453.538 240.64C452.578 240.64 451.722 240.912 450.97 241.456C450.218 241.984 449.634 242.768 449.218 243.808C448.802 244.832 448.594 246.096 448.594 247.6C448.594 249.104 448.802 250.376 449.218 251.416C449.634 252.44 450.218 253.224 450.97 253.768C451.722 254.296 452.578 254.56 453.538 254.56ZM462.42 256V254.776L469.404 247.936C470.044 247.312 470.524 246.768 470.844 246.304C471.164 245.824 471.38 245.376 471.492 244.96C471.604 244.544 471.66 244.152 471.66 243.784C471.66 242.808 471.324 242.04 470.652 241.48C469.996 240.92 469.02 240.64 467.724 240.64C466.732 240.64 465.852 240.792 465.084 241.096C464.332 241.4 463.684 241.872 463.14 242.512L461.916 241.456C462.572 240.688 463.412 240.096 464.436 239.68C465.46 239.264 466.604 239.056 467.868 239.056C469.004 239.056 469.988 239.24 470.82 239.608C471.652 239.96 472.292 240.48 472.74 241.168C473.204 241.856 473.436 242.664 473.436 243.592C473.436 244.136 473.356 244.672 473.196 245.2C473.052 245.728 472.78 246.288 472.38 246.88C471.996 247.456 471.428 248.112 470.676 248.848L464.268 255.136L463.788 254.464H474.204V256H462.42ZM475.546 251.584V250.336L484.45 239.2H486.37L477.538 250.336L476.602 250.048H490.114V251.584H475.546ZM485.026 256V251.584L485.074 250.048V246.16H486.754V256H485.026ZM497.101 235.768L498.901 236.224C497.581 239.776 495.445 243.112 493.213 245.272C492.853 244.96 492.109 244.36 491.653 244.12C493.933 242.128 495.925 239.008 497.101 235.768ZM496.717 238.744H512.197V240.496H495.853L496.717 238.744ZM495.541 244.192H511.669V245.872H497.341V251.56H495.541V244.192ZM491.581 250.648H513.325V252.4H491.581V250.648ZM502.741 239.656H504.589V257.944H502.741V239.656ZM518.629 256V239.92L519.397 240.736H514.669V239.2H520.357V256H518.629ZM529.197 237.112H541.725V238.864H529.197V237.112ZM529.197 242.896H541.821V244.624H529.197V242.896ZM529.005 248.704H541.701V250.432H529.005V248.704ZM528.093 237.112H529.917V244.528C529.917 248.68 529.317 254.344 525.189 257.944C524.925 257.56 524.205 256.912 523.821 256.648C527.685 253.264 528.093 248.392 528.093 244.528V237.112ZM540.933 237.112H542.805V255.28C542.805 256.552 542.469 257.176 541.557 257.488C540.621 257.8 539.037 257.824 536.445 257.824C536.325 257.296 535.989 256.432 535.677 255.928C537.669 256 539.637 255.976 540.189 255.976C540.741 255.952 540.933 255.784 540.933 255.256V237.112Z" fill="black"/>
<path d="M203.896 316.928L205.144 314.984C206.752 315.368 209.032 316.136 210.232 316.712L208.936 318.896C207.832 318.296 205.552 317.432 203.896 316.928ZM202.84 321.008C204.616 320.672 207.208 320.048 209.752 319.472L210.016 321.728C207.928 322.352 205.72 323 203.92 323.504L202.84 321.008ZM213.472 316.232H222.688V318.248H211.864L213.472 316.232ZM222.016 316.232H222.424L222.856 316.136L224.752 316.616C224.128 317.936 223.264 319.376 222.472 320.264L220.24 319.592C220.888 318.824 221.608 317.576 222.016 316.544V316.232ZM215.92 317.072H218.512C218.032 320.504 216.688 322.568 211.312 323.648C211.072 323.072 210.472 322.112 209.992 321.608C214.624 320.888 215.56 319.496 215.92 317.072ZM218.344 317.696C218.752 319.472 219.808 321.032 225.256 321.656C224.728 322.232 224.104 323.312 223.84 324.032C217.84 323.072 216.664 320.456 216.04 317.912L218.344 317.696ZM213.4 314.624L215.92 315.032C214.984 316.952 213.808 318.704 211.984 320.192C211.48 319.688 210.496 319.088 209.824 318.824C211.576 317.624 212.752 316.016 213.4 314.624ZM208.888 327.68V328.712H219.328V327.68H208.888ZM208.888 330.344V331.4H219.328V330.344H208.888ZM208.888 325.04V326.048H219.328V325.04H208.888ZM206.104 323.312H222.232V333.104H206.104V323.312ZM215.344 334.352L217.744 332.984C220.264 333.896 223.24 335.096 224.944 335.936L221.584 337.232C220.24 336.416 217.768 335.264 215.344 334.352ZM210.016 332.912L212.656 334.088C210.688 335.36 207.568 336.56 205.12 337.256C204.616 336.68 203.632 335.624 202.984 335.144C205.528 334.664 208.384 333.824 210.016 332.912ZM227.392 319.28H248.632V322.208H227.392V319.28ZM232.336 330.176H243.472V333.104H232.336V330.176ZM236.44 314.624H239.512V337.16H236.44V314.624ZM235.576 320.336L238.216 321.176C236.152 326.408 232.744 330.992 228.544 333.632C228.064 332.912 227.104 331.808 226.456 331.232C230.392 329.072 233.872 324.752 235.576 320.336ZM240.376 320.408C242.128 324.68 245.632 328.856 249.664 330.944C248.944 331.544 247.912 332.744 247.432 333.56C243.208 330.968 239.848 326.384 237.76 321.272L240.376 320.408ZM261.904 317.36C259.912 320.168 256.24 323.312 252.304 325.4C251.944 324.728 251.128 323.672 250.504 323.072C254.632 321.056 258.496 317.456 260.272 314.552H263.272C265.864 318.2 269.728 321.224 273.544 322.784C272.848 323.504 272.176 324.488 271.648 325.376C267.976 323.432 263.968 320.192 261.904 317.36ZM255.88 321.824H267.976V324.344H255.88V321.824ZM253.024 326.72H270.808V329.192H253.024V326.72ZM251.8 334.016H272.2V336.488H251.8V334.016ZM260.32 322.832H263.392V335.24H260.32V322.832ZM254.512 330.104L256.84 329.144C257.752 330.368 258.712 332.024 259.072 333.152L256.576 334.232C256.264 333.128 255.376 331.376 254.512 330.104ZM266.728 329.168L269.464 330.2C268.48 331.664 267.424 333.224 266.584 334.232L264.424 333.344C265.192 332.216 266.2 330.464 266.728 329.168Z" fill="black"/>
<path d="M438.552 335.144C437.352 335.144 436.208 334.952 435.12 334.568C434.032 334.168 433.168 333.64 432.528 332.984L433.368 331.616C433.896 332.176 434.616 332.64 435.528 333.008C436.456 333.376 437.456 333.56 438.528 333.56C439.952 333.56 441.032 333.248 441.768 332.624C442.52 331.984 442.896 331.152 442.896 330.128C442.896 329.408 442.72 328.792 442.368 328.28C442.032 327.752 441.456 327.344 440.64 327.056C439.824 326.768 438.704 326.624 437.28 326.624H433.704L434.568 318.2H443.76V319.736H435.264L436.152 318.896L435.408 325.952L434.52 325.088H437.664C439.36 325.088 440.72 325.296 441.744 325.712C442.768 326.128 443.504 326.712 443.952 327.464C444.416 328.2 444.648 329.064 444.648 330.056C444.648 331 444.424 331.864 443.976 332.648C443.528 333.416 442.856 334.024 441.96 334.472C441.064 334.92 439.928 335.144 438.552 335.144ZM453.538 335.144C452.242 335.144 451.09 334.808 450.082 334.136C449.074 333.448 448.282 332.472 447.706 331.208C447.13 329.928 446.842 328.392 446.842 326.6C446.842 324.808 447.13 323.28 447.706 322.016C448.282 320.736 449.074 319.76 450.082 319.088C451.09 318.4 452.242 318.056 453.538 318.056C454.834 318.056 455.986 318.4 456.994 319.088C458.002 319.76 458.794 320.736 459.37 322.016C459.962 323.28 460.258 324.808 460.258 326.6C460.258 328.392 459.962 329.928 459.37 331.208C458.794 332.472 458.002 333.448 456.994 334.136C455.986 334.808 454.834 335.144 453.538 335.144ZM453.538 333.56C454.53 333.56 455.394 333.296 456.13 332.768C456.866 332.224 457.442 331.44 457.858 330.416C458.274 329.376 458.482 328.104 458.482 326.6C458.482 325.096 458.274 323.832 457.858 322.808C457.442 321.768 456.866 320.984 456.13 320.456C455.394 319.912 454.53 319.64 453.538 319.64C452.578 319.64 451.722 319.912 450.97 320.456C450.218 320.984 449.634 321.768 449.218 322.808C448.802 323.832 448.594 325.096 448.594 326.6C448.594 328.104 448.802 329.376 449.218 330.416C449.634 331.44 450.218 332.224 450.97 332.768C451.722 333.296 452.578 333.56 453.538 333.56ZM462.571 338.504L463.627 334.064L463.819 335.096C463.451 335.096 463.139 334.976 462.883 334.736C462.643 334.496 462.523 334.184 462.523 333.8C462.523 333.416 462.643 333.104 462.883 332.864C463.139 332.624 463.443 332.504 463.795 332.504C464.163 332.504 464.459 332.632 464.683 332.888C464.923 333.144 465.043 333.448 465.043 333.8C465.043 333.928 465.035 334.056 465.019 334.184C465.003 334.312 464.971 334.456 464.923 334.616C464.875 334.776 464.811 334.968 464.731 335.192L463.723 338.504H462.571ZM473.999 335.144C472.703 335.144 471.551 334.808 470.543 334.136C469.535 333.448 468.743 332.472 468.167 331.208C467.591 329.928 467.303 328.392 467.303 326.6C467.303 324.808 467.591 323.28 468.167 322.016C468.743 320.736 469.535 319.76 470.543 319.088C471.551 318.4 472.703 318.056 473.999 318.056C475.295 318.056 476.447 318.4 477.455 319.088C478.463 319.76 479.255 320.736 479.831 322.016C480.423 323.28 480.719 324.808 480.719 326.6C480.719 328.392 480.423 329.928 479.831 331.208C479.255 332.472 478.463 333.448 477.455 334.136C476.447 334.808 475.295 335.144 473.999 335.144ZM473.999 333.56C474.991 333.56 475.855 333.296 476.591 332.768C477.327 332.224 477.903 331.44 478.319 330.416C478.735 329.376 478.943 328.104 478.943 326.6C478.943 325.096 478.735 323.832 478.319 322.808C477.903 321.768 477.327 320.984 476.591 320.456C475.855 319.912 474.991 319.64 473.999 319.64C473.039 319.64 472.183 319.912 471.431 320.456C470.679 320.984 470.095 321.768 469.679 322.808C469.263 323.832 469.055 325.096 469.055 326.6C469.055 328.104 469.263 329.376 469.679 330.416C470.095 331.44 470.679 332.224 471.431 332.768C472.183 333.296 473.039 333.56 473.999 333.56ZM489.889 335.144C488.593 335.144 487.441 334.808 486.433 334.136C485.425 333.448 484.633 332.472 484.057 331.208C483.481 329.928 483.193 328.392 483.193 326.6C483.193 324.808 483.481 323.28 484.057 322.016C484.633 320.736 485.425 319.76 486.433 319.088C487.441 318.4 488.593 318.056 489.889 318.056C491.185 318.056 492.337 318.4 493.345 319.088C494.353 319.76 495.145 320.736 495.721 322.016C496.313 323.28 496.609 324.808 496.609 326.6C496.609 328.392 496.313 329.928 495.721 331.208C495.145 332.472 494.353 333.448 493.345 334.136C492.337 334.808 491.185 335.144 489.889 335.144ZM489.889 333.56C490.881 333.56 491.745 333.296 492.481 332.768C493.217 332.224 493.793 331.44 494.209 330.416C494.625 329.376 494.833 328.104 494.833 326.6C494.833 325.096 494.625 323.832 494.209 322.808C493.793 321.768 493.217 320.984 492.481 320.456C491.745 319.912 490.881 319.64 489.889 319.64C488.929 319.64 488.073 319.912 487.321 320.456C486.569 320.984 485.985 321.768 485.569 322.808C485.153 323.832 484.945 325.096 484.945 326.6C484.945 328.104 485.153 329.376 485.569 330.416C485.985 331.44 486.569 332.224 487.321 332.768C488.073 333.296 488.929 333.56 489.889 333.56ZM505.78 335.144C504.484 335.144 503.332 334.808 502.324 334.136C501.316 333.448 500.524 332.472 499.948 331.208C499.372 329.928 499.084 328.392 499.084 326.6C499.084 324.808 499.372 323.28 499.948 322.016C500.524 320.736 501.316 319.76 502.324 319.088C503.332 318.4 504.484 318.056 505.78 318.056C507.076 318.056 508.228 318.4 509.236 319.088C510.244 319.76 511.036 320.736 511.612 322.016C512.204 323.28 512.5 324.808 512.5 326.6C512.5 328.392 512.204 329.928 511.612 331.208C511.036 332.472 510.244 333.448 509.236 334.136C508.228 334.808 507.076 335.144 505.78 335.144ZM505.78 333.56C506.772 333.56 507.636 333.296 508.372 332.768C509.108 332.224 509.684 331.44 510.1 330.416C510.516 329.376 510.724 328.104 510.724 326.6C510.724 325.096 510.516 323.832 510.1 322.808C509.684 321.768 509.108 320.984 508.372 320.456C507.636 319.912 506.772 319.64 505.78 319.64C504.82 319.64 503.964 319.912 503.212 320.456C502.46 320.984 501.876 321.768 501.46 322.808C501.044 323.832 500.836 325.096 500.836 326.6C500.836 328.104 501.044 329.376 501.46 330.416C501.876 331.44 502.46 332.224 503.212 332.768C503.964 333.296 504.82 333.56 505.78 333.56ZM515.887 316.472H534.703V318.272H517.687V336.944H515.887V316.472ZM533.887 316.472H535.711V334.544C535.711 335.696 535.423 336.272 534.607 336.584C533.815 336.872 532.447 336.92 530.287 336.92C530.191 336.416 529.879 335.6 529.591 335.096C531.247 335.168 532.807 335.144 533.287 335.12C533.743 335.12 533.887 334.976 533.887 334.544V316.472ZM516.871 325.352H534.727V327.128H516.871V325.352ZM524.743 317.384H526.543V326.216H524.743V317.384Z" fill="black"/>
<path d="M210.136 401.712L224.752 399.768L225.16 402.504L210.568 404.472L210.136 401.712ZM219.184 395.136L221.344 393.792C222.592 394.944 224.104 396.552 224.776 397.68L222.472 399.168C221.872 398.064 220.408 396.36 219.184 395.136ZM208.816 393.816L211.552 394.728C209.752 398.976 206.824 403.416 203.824 406.176C203.536 405.48 202.72 403.944 202.216 403.248C204.808 401.016 207.328 397.44 208.816 393.816ZM206.32 400.704L209.272 397.776L209.296 397.824V416.112H206.32V400.704ZM214.624 393.984H217.552C217.72 404.256 219.112 412.224 222.016 412.632C222.568 412.68 222.88 411.432 223.048 408.792C223.6 409.392 224.896 410.16 225.424 410.424C224.8 415.08 223.504 416.184 222.16 416.112C216.472 415.584 215.056 407.064 214.624 393.984ZM228.208 395.208H247.864V397.656H228.208V395.208ZM229.312 398.88H246.928V401.184H229.312V398.88ZM227.32 402.504H248.632V404.952H227.32V402.504ZM236.464 393.624H239.392V404.568H236.464V393.624ZM236.488 403.416L238.984 404.592C236.416 407.352 232.168 409.776 228.256 411C227.824 410.304 227.008 409.248 226.408 408.648C230.2 407.664 234.376 405.6 236.488 403.416ZM240.64 403.872C241.888 408.648 244.552 412.128 249.496 413.544C248.848 414.12 248.032 415.32 247.624 416.112C242.248 414.24 239.584 410.256 238.024 404.376L240.64 403.872ZM246.184 405.312L248.56 407.112C246.76 408.408 244.6 409.728 242.944 410.544L241.12 409.008C242.728 408.072 244.888 406.536 246.184 405.312ZM228.952 413.448C231.856 412.944 236.272 412.032 240.376 411.144L240.64 413.736C236.872 414.6 232.792 415.488 229.816 416.136L228.952 413.448ZM232.24 408.576L234.136 406.68L235.12 406.944V413.856H232.24V408.576ZM251.176 400.896H272.776V403.44H251.176V400.896ZM253.264 396.216H266.992V398.712H253.264V396.216ZM257.488 409.272H268.216V411.432H257.488V409.272ZM257.488 413.04H268.216V415.464H257.488V413.04ZM258.928 393.624H261.76V402.312H258.928V393.624ZM269.488 394.32L271.96 395.592C267.256 402.144 259.936 406.968 252.16 409.824C251.824 409.2 250.96 408 250.432 407.424C258.232 404.928 265.288 400.344 269.488 394.32ZM255.88 405.36H270.04V416.088H267.04V407.712H258.76V416.184H255.88V405.36Z" fill="black"/>
<path d="M433.56 396.144H454.416V397.704H433.56V396.144ZM442.944 393.84H444.792V396.888H442.944V393.84ZM434.616 405.528H452.448V407.064H436.368V415.944H434.616V405.528ZM451.704 405.528H453.504V413.784C453.504 414.768 453.288 415.296 452.52 415.608C451.752 415.872 450.456 415.896 448.464 415.896C448.392 415.392 448.128 414.672 447.864 414.192C449.448 414.24 450.792 414.24 451.2 414.192C451.608 414.192 451.704 414.072 451.704 413.736V405.528ZM439.416 408.624H441.024V414.912H439.416V408.624ZM440.28 408.624H448.584V413.688H440.28V412.392H446.952V409.92H440.28V408.624ZM439.272 400.368V402.696H448.656V400.368H439.272ZM437.544 399.048H450.48V404.016H437.544V399.048ZM464.976 397.872H478.752V399.336H464.976V397.872ZM469.488 401.976V404.064H474.048V401.976H469.488ZM467.952 400.776H475.656V405.264H467.952V400.776ZM465.288 406.392H477.432V407.808H466.944V415.944H465.288V406.392ZM476.664 406.392H478.344V414.048C478.344 414.912 478.2 415.368 477.552 415.632C476.904 415.896 475.92 415.896 474.408 415.896C474.336 415.464 474.072 414.816 473.856 414.384C474.984 414.432 475.968 414.432 476.28 414.408C476.592 414.384 476.664 414.312 476.664 414.048V406.392ZM476.28 394.2L477.36 395.4C474.432 396.096 469.656 396.456 465.84 396.504C465.792 396.168 465.6 395.592 465.432 395.256C469.176 395.136 473.832 394.776 476.28 394.2ZM474.216 398.376C475.248 400.224 477.336 402.072 479.328 402.96C478.944 403.248 478.44 403.848 478.176 404.256C476.136 403.176 474.024 400.992 472.896 398.856L474.216 398.376ZM470.112 395.904L471.792 396.144C470.928 399.168 468.984 402.24 465.384 404.328C465.12 403.92 464.616 403.368 464.232 403.152C467.64 401.304 469.44 398.472 470.112 395.904ZM469.488 409.104H474.888V413.592H469.488V412.416H473.52V410.28H469.488V409.104ZM468.72 409.104H470.088V414.672H468.72V409.104ZM457.224 399.048H464.736V400.752H457.224V399.048ZM460.44 393.84H462.096V415.896H460.44V393.84ZM460.416 400.056L461.52 400.44C460.824 404.232 459.312 408.984 457.656 411.384C457.44 410.904 457.008 410.232 456.72 409.824C458.256 407.64 459.792 403.488 460.416 400.056ZM461.952 402.408C462.48 403.056 464.448 406.08 464.88 406.752L463.92 408.072C463.416 406.896 461.784 404.064 461.208 403.128L461.952 402.408ZM482.4 409.128H500.328V410.664H482.4V409.128ZM499.56 409.128H501.384C501.384 409.128 501.36 409.656 501.312 409.896C500.952 413.256 500.544 414.696 499.896 415.296C499.44 415.728 498.912 415.848 498.144 415.872C497.424 415.92 496.008 415.896 494.544 415.824C494.496 415.344 494.28 414.696 494.016 414.24C495.456 414.384 496.944 414.408 497.448 414.408C497.952 414.408 498.216 414.384 498.432 414.192C498.888 413.808 499.248 412.488 499.536 409.368L499.56 409.128ZM490.944 407.088H492.792C492.072 411.96 490.176 414.744 482.328 415.992C482.208 415.56 481.824 414.84 481.488 414.48C488.832 413.448 490.368 411.168 490.944 407.088ZM483 394.776H498.984V396.192H483V394.776ZM498.456 394.776H498.936L499.344 394.68L500.568 395.76C498.408 397.128 495.336 398.472 492.624 399.288C492.408 398.976 491.952 398.448 491.664 398.208C494.088 397.512 496.992 396.216 498.456 395.16V394.776ZM486.72 397.776L487.968 396.792C490.656 397.44 494.232 398.616 496.176 399.576L494.856 400.728C493.056 399.768 489.48 398.496 486.72 397.776ZM485.4 404.112V406.008H498.912V404.112H485.4ZM485.4 400.92V402.816H498.912V400.92H485.4ZM483.672 399.6H500.736V407.352H483.672V399.6ZM491.112 399.984H492.84V406.68H491.112V399.984ZM515.688 397.872H527.064V399.6H514.848L515.688 397.872ZM518.688 403.08H526.512V404.736H518.688V403.08ZM518.664 408.36H526.848V410.064H518.664V408.36ZM517.776 398.424H519.624V415.92H517.776V398.424ZM516.6 394.128L518.352 394.584C516.984 398.4 514.896 402.168 512.688 404.64C512.424 404.328 511.704 403.68 511.296 403.392C513.48 401.16 515.424 397.656 516.6 394.128ZM510.84 393.936L512.568 394.488C510.984 398.544 508.512 402.648 505.896 405.336C505.728 404.904 505.176 403.944 504.84 403.512C507.24 401.184 509.472 397.584 510.84 393.936ZM508.272 400.128L510.048 398.328L510.096 398.352V415.896H508.272V400.128Z" fill="black"/>
<path d="M212.44 472.624H215.368V492.424C215.368 493.84 215.008 494.416 214.096 494.824C213.16 495.184 211.864 495.232 209.824 495.232C209.68 494.56 209.224 493.552 208.864 492.976C210.016 493.024 211.432 493 211.84 493C212.296 492.976 212.44 492.832 212.44 492.424V472.624ZM203.44 474.184H224.56V476.464H203.44V474.184ZM208.648 479.248V480.4H219.256V479.248H208.648ZM205.912 477.424H222.208V482.224H205.912V477.424ZM205.312 483.28H222.616V492.664H219.688V485.248H205.312V483.28ZM202.888 486.256H225.112V488.44H202.888V486.256ZM205.12 489.568H221.248V491.656H205.12V489.568ZM227.344 487.312H248.752V489.664H227.344V487.312ZM227.392 476.536H248.656V478.912H227.392V476.536ZM228.376 480.832H247.744V483.088H228.376V480.832ZM229.576 484.144H246.616V486.232H229.576V484.144ZM236.536 481.984H239.392V495.16H236.536V481.984ZM234.448 472.6H237.136V477.664H234.448V472.6ZM238.888 472.6H241.624V477.496H238.888V472.6ZM236.008 488.368L238.264 489.376C235.984 491.872 232.144 493.912 228.448 494.872C228.064 494.176 227.224 493.072 226.6 492.472C230.224 491.776 234.04 490.192 236.008 488.368ZM239.968 488.296C241.912 490.192 245.656 491.68 249.4 492.304C248.752 492.904 247.888 494.104 247.456 494.896C243.664 493.936 239.992 491.896 237.736 489.184L239.968 488.296ZM244.408 472.792L247.432 473.512C246.664 474.832 245.848 476.128 245.224 477.016L242.896 476.296C243.448 475.312 244.072 473.848 244.408 472.792ZM241.24 477.952L244.288 478.648C243.64 479.8 243.016 480.856 242.512 481.624L240.064 480.928C240.496 480.064 241 478.84 241.24 477.952ZM229.12 473.56L231.592 472.72C232.288 473.752 233.08 475.192 233.416 476.128L230.8 477.064C230.536 476.128 229.768 474.664 229.12 473.56ZM232.168 478.936L234.952 478.504C235.36 479.176 235.816 480.112 236.008 480.76L233.08 481.264C232.936 480.64 232.528 479.632 232.168 478.936ZM260.464 483.304L262.648 481.72C264.784 483.64 267.688 486.376 269.104 488.176L266.704 490.024C265.432 488.224 262.624 485.344 260.464 483.304ZM260.536 472.624H263.488V478.384C263.488 482.368 262.48 487.288 257.008 490.552C256.6 489.928 255.616 488.872 254.944 488.368C260.128 485.704 260.536 481.504 260.536 478.36V472.624ZM252.112 476.608H270.352V479.44H254.992V495.208H252.112V476.608ZM269.08 476.608H271.936V491.872C271.936 493.432 271.6 494.224 270.616 494.704C269.608 495.16 268.072 495.184 265.936 495.184C265.84 494.392 265.384 493.072 265 492.328C266.416 492.4 268.024 492.4 268.48 492.4C268.936 492.376 269.08 492.232 269.08 491.824V476.608ZM281.608 477.64L284.392 478.552C282.904 480.736 280.48 482.8 278.248 484.048C277.84 483.472 276.832 482.296 276.256 481.768C278.344 480.808 280.432 479.272 281.608 477.64ZM287.464 479.248L289.48 477.592C291.496 478.768 294.208 480.616 295.528 481.96L293.344 483.856C292.144 482.536 289.528 480.568 287.464 479.248ZM286.096 483.256C284.176 485.728 280.432 488.512 276.592 490.192C276.256 489.496 275.536 488.392 274.984 487.768C278.92 486.208 282.688 483.208 284.488 480.64H287.44C289.984 483.76 293.704 486.16 297.376 487.36C296.704 488.104 296.056 489.16 295.576 490C292.168 488.512 288.136 485.776 286.096 483.256ZM279.256 486.88H292.888V495.136H289.96V489.4H282.04V495.16H279.256V486.88ZM280.552 491.968H291.424V494.488H280.552V491.968ZM284.44 472.624H287.416V476.032H284.44V472.624ZM275.704 474.544H296.296V479.728H293.344V477.136H278.512V479.728H275.704V474.544Z" fill="black"/>
<path d="M450.12 473.056C450.696 473.896 451.56 475.312 452.04 476.224L450.696 476.824C450.216 475.84 449.4 474.472 448.8 473.608L450.12 473.056ZM453.216 472.456C453.792 473.272 454.68 474.688 455.184 475.624L453.84 476.2C453.312 475.216 452.544 473.824 451.896 473.008L453.216 472.456ZM452.28 477.376C452.136 477.712 452.016 478.12 451.92 478.576C451.416 481.096 450.24 484.984 448.344 487.432C446.16 490.264 443.304 492.472 438.912 493.864L437.28 492.064C441.912 490.888 444.624 488.848 446.616 486.28C448.32 484.12 449.448 480.76 449.76 478.456C448.392 478.456 438.864 478.456 437.496 478.456C436.536 478.456 435.72 478.504 435.096 478.552V476.416C435.768 476.488 436.704 476.584 437.496 476.584C438.864 476.584 448.44 476.584 449.544 476.584C449.904 476.584 450.384 476.56 450.816 476.44L452.28 477.376ZM459.504 476.56C460.44 476.608 461.064 476.608 461.64 476.608C462.912 476.608 473.352 476.608 474.528 476.608C475.032 476.608 475.896 476.608 476.64 476.584C476.592 477.16 476.592 477.832 476.592 478.432C476.592 479.56 476.592 489.352 476.592 490.264C476.592 491.032 476.616 492.904 476.64 493.168H474.552C474.576 492.904 474.6 491.536 474.6 490.528C474.6 489.64 474.6 478.504 474.6 478.504H461.496C461.496 478.504 461.496 489.544 461.496 490.528C461.496 491.32 461.52 492.856 461.52 493.168H459.48C459.48 492.856 459.528 491.104 459.528 490.264C459.528 489.28 459.528 479.368 459.528 478.432C459.528 477.88 459.528 477.16 459.504 476.56ZM475.392 489.928V491.8H460.536V489.928H475.392ZM491.592 479.2C492 480.16 493.176 483.328 493.464 484.36L491.688 485.008C491.424 483.904 490.32 480.856 489.816 479.8L491.592 479.2ZM500.28 480.544C500.112 481.024 499.992 481.408 499.896 481.72C499.272 484.36 498.216 486.952 496.512 489.112C494.28 491.92 491.352 493.792 488.688 494.8L487.104 493.192C489.864 492.376 492.936 490.552 494.904 488.104C496.608 486.016 497.832 482.944 498.216 479.872L500.28 480.544ZM486 480.4C486.48 481.408 487.752 484.552 488.184 485.824L486.384 486.496C486 485.248 484.704 481.912 484.224 481.072L486 480.4ZM524.904 478C524.712 478.336 524.472 478.888 524.352 479.272C523.704 481.696 522.24 484.936 520.104 487.552C517.92 490.216 515.04 492.4 510.552 494.08L508.8 492.496C513.216 491.2 516.192 489.04 518.4 486.472C520.248 484.288 521.736 481.168 522.216 478.984H513.336L514.104 477.256C515.064 477.256 520.992 477.256 521.736 477.256C522.384 477.256 522.936 477.184 523.32 477.04L524.904 478ZM516.864 474.376C516.48 475 516.048 475.816 515.808 476.248C514.392 478.912 511.896 482.344 508.032 484.888L506.352 483.664C510.504 481.192 512.856 477.688 513.912 475.552C514.152 475.12 514.512 474.256 514.656 473.632L516.864 474.376ZM531.984 476.32C533.784 476.416 537.432 476.32 540.048 475.96C542.232 475.672 545.04 475.096 546.216 474.568L547.488 476.248C546.96 476.392 546.504 476.512 546.144 476.608C544.752 476.944 542.52 477.376 540.6 477.64C537.912 478 534.6 478.072 532.464 478.12L531.984 476.32ZM533.328 492.688C537.408 490.768 539.448 487.768 539.448 482.824C539.448 482.824 539.448 480.664 539.448 477.376L541.368 477.112C541.368 478.984 541.368 482.776 541.368 482.776C541.368 487.888 539.688 491.416 535.2 493.984L533.328 492.688ZM530.112 482.032C530.64 482.08 531.48 482.152 532.224 482.152C533.76 482.152 546.528 482.152 548.016 482.152C548.52 482.152 549.408 482.104 549.912 482.056V484.024C549.384 483.976 548.64 483.952 548.04 483.952C546.6 483.952 533.736 483.952 532.248 483.952C531.48 483.952 530.688 483.976 530.112 484.024V482.032ZM556.872 480.616C557.4 480.664 558.144 480.712 558.528 480.712H569.592C570.192 480.712 570.792 480.664 571.272 480.616V482.536C570.768 482.488 570.12 482.464 569.592 482.464H558.552C558.168 482.464 557.376 482.488 556.872 482.536V480.616ZM562.968 492.28V481.696H564.888V492.28H562.968ZM555.72 491.176C556.272 491.248 556.896 491.272 557.424 491.272H570.696C571.272 491.272 571.824 491.224 572.304 491.176V493.168C571.824 493.12 571.08 493.096 570.696 493.096H557.424C556.896 493.096 556.296 493.12 555.72 493.168V491.176ZM578.424 482.608C579.168 482.68 580.416 482.752 581.784 482.752C583.536 482.752 593.16 482.752 594.936 482.752C596.136 482.752 596.976 482.656 597.528 482.608V484.96C597.024 484.936 596.016 484.864 594.96 484.864C593.136 484.864 583.56 484.864 581.784 484.864C580.464 484.864 579.192 484.912 578.424 484.96V482.608ZM604.253 475.432C605.933 476.56 609.029 479.056 610.349 480.376L608.861 481.912C607.637 480.664 604.661 478.072 602.861 476.896L604.253 475.432ZM602.189 491.512C606.365 490.888 609.485 489.424 611.765 488.008C615.485 485.68 618.389 482.128 619.781 479.152L620.933 481.216C619.301 484.192 616.517 487.456 612.893 489.736C610.469 491.248 607.445 492.736 603.437 493.48L602.189 491.512ZM633.797 472.84H635.621V492.904C635.621 494.032 635.309 494.464 634.565 494.728C633.797 494.968 632.549 494.992 630.533 494.992C630.437 494.56 630.149 493.888 629.909 493.48C631.349 493.528 632.789 493.504 633.221 493.504C633.653 493.48 633.797 493.336 633.797 492.904V472.84ZM624.413 474.76H645.245V476.248H624.413V474.76ZM628.637 478.936V480.664H641.021V478.936H628.637ZM626.933 477.688H642.845V481.936H626.933V477.688ZM626.237 483.616H643.205V492.352H641.405V484.96H626.237V483.616ZM623.957 486.616H645.701V488.056H623.957V486.616ZM625.997 489.88H642.341V491.272H625.997V489.88ZM648.317 487.672H669.341V489.184H648.317V487.672ZM648.413 477.136H669.245V478.672H648.413V477.136ZM649.373 481.24H668.381V482.728H649.373V481.24ZM650.597 484.48H667.205V485.872H650.597V484.48ZM657.869 481.936H659.645V494.944H657.869V481.936ZM655.661 472.84H657.365V477.856H655.661V472.84ZM660.197 472.84H661.925V477.784H660.197V472.84ZM657.293 488.272L658.733 488.944C656.501 491.44 652.445 493.528 648.869 494.536C648.605 494.08 648.077 493.384 647.693 493C651.245 492.208 655.253 490.36 657.293 488.272ZM660.221 488.224C662.261 490.384 666.293 492.232 669.941 493C669.533 493.384 668.981 494.104 668.717 494.608C665.069 493.6 661.061 491.416 658.805 488.824L660.221 488.224ZM665.765 473.128L667.613 473.632C666.917 474.952 666.053 476.368 665.381 477.304L663.917 476.824C664.565 475.816 665.357 474.232 665.765 473.128ZM662.549 478.216L664.421 478.672C663.821 479.752 663.197 480.856 662.669 481.624L661.157 481.168C661.637 480.328 662.261 479.08 662.549 478.216ZM650.357 473.632L651.893 473.08C652.709 474.16 653.597 475.672 653.933 476.656L652.325 477.256C651.989 476.296 651.125 474.76 650.357 473.632ZM653.477 478.84L655.181 478.504C655.733 479.296 656.285 480.376 656.501 481.096L654.725 481.48C654.533 480.76 654.005 479.632 653.477 478.84Z" fill="black"/>
<path d="M203.272 552.8H213.928V555.416H203.272V552.8ZM215.896 559.76H225.328V562.52H215.896V559.76ZM220.312 561.704H223.168V574.184H220.312V561.704ZM214.744 553.76L218.2 554.576C218.176 554.816 218.008 554.936 217.576 555.008V560.456C217.576 564.344 217.024 570.272 213.208 574.136C212.824 573.512 211.744 572.528 211.072 572.192C214.432 568.784 214.744 564.008 214.744 560.432V553.76ZM204.04 557.216H206.776V563.36C206.776 566.6 206.44 571.256 204.568 574.208C204.112 573.704 202.912 572.792 202.312 572.48C203.896 569.888 204.04 566.12 204.04 563.336V557.216ZM222.64 551.864L225.16 554.024C222.592 555.296 219.208 556.28 216.28 556.928C216.112 556.28 215.656 555.224 215.296 554.624C217.984 553.952 220.912 552.896 222.64 551.864ZM205.624 557.216H213.424V565.424H205.624V562.856H210.64V559.808H205.624V557.216ZM227.32 554.96H248.728V557.72H227.32V554.96ZM235.144 562.736H247.72V565.4H235.144V562.736ZM234.208 570.896H248.632V573.56H234.208V570.896ZM240.04 558.752H242.944V572.312H240.04V558.752ZM234.88 551.6L237.88 552.32C236.104 558.104 233.08 563.936 227.944 567.44C227.656 566.624 226.984 565.352 226.552 564.656C230.896 561.824 233.632 556.448 234.88 551.6ZM230.08 561.656H232.984V574.112H230.08V561.656ZM264.808 551.624H267.52V568.568H264.808V551.624ZM257.704 561.272L270.136 555.992L271.192 558.44L258.784 563.816L257.704 561.272ZM260.08 553.952H262.816V569.504C262.816 570.92 263.032 571.112 264.52 571.112C265.24 571.112 268.432 571.112 269.176 571.112C270.496 571.112 270.736 570.584 270.928 568.112C271.552 568.544 272.68 569 273.448 569.144C273.088 572.552 272.224 573.68 269.416 573.68C268.624 573.68 265.024 573.68 264.28 573.68C260.992 573.68 260.08 572.816 260.08 569.48V553.952ZM269.584 556.304H269.416L269.92 555.944L270.424 555.584L272.44 556.304L272.32 556.784C272.32 561.368 272.272 564.272 272.176 565.256C272.08 566.36 271.672 566.936 270.928 567.248C270.232 567.584 269.2 567.584 268.432 567.584C268.336 566.864 268.12 565.784 267.808 565.184C268.216 565.208 268.768 565.208 268.984 565.208C269.272 565.208 269.416 565.136 269.488 564.704C269.584 564.224 269.584 561.608 269.584 556.304ZM250.816 557.192H258.736V559.904H250.816V557.192ZM253.6 551.96H256.288V567.872H253.6V551.96ZM250.48 567.896C252.472 567.176 255.592 565.88 258.52 564.632L259.168 567.176C256.624 568.472 253.864 569.768 251.632 570.776L250.48 567.896Z" fill="black"/>
<path d="M433.56 554.144H454.536V555.824H433.56V554.144ZM442.992 551.864H444.864V573.92H442.992V551.864ZM442.44 565.616L443.952 566.288C441.696 569.312 437.736 572.12 434.232 573.56C433.944 573.104 433.392 572.408 432.96 572.048C436.464 570.824 440.4 568.256 442.44 565.616ZM445.464 565.64C447.528 568.28 451.536 570.848 455.088 572.048C454.656 572.408 454.104 573.104 453.816 573.608C450.264 572.192 446.256 569.312 444 566.312L445.464 565.64ZM437.424 562.928V565.232H450.768V562.928H437.424ZM437.424 559.28V561.56H450.768V559.28H437.424ZM435.672 557.864H452.592V566.672H435.672V557.864ZM457.536 554.624H478.488V556.352H457.536V554.624ZM466.992 551.84H468.888V555.536H466.992V551.84ZM462.264 560.144V564.08H473.832V560.144H462.264ZM460.488 558.56H475.728V565.688H460.488V558.56ZM472.464 567.896L474.096 567.104C475.704 568.664 477.696 570.872 478.68 572.288L476.928 573.2C476.04 571.808 474.096 569.504 472.464 567.896ZM467.016 565.016H468.888V571.832C468.888 572.888 468.648 573.392 467.808 573.656C466.992 573.92 465.624 573.944 463.488 573.92C463.392 573.44 463.128 572.72 462.888 572.24C464.52 572.288 466.032 572.264 466.464 572.24C466.896 572.24 467.016 572.144 467.016 571.808V565.016ZM461.496 567.08L463.32 567.656C462.168 569.552 460.32 571.688 458.52 573.032C458.16 572.696 457.512 572.216 457.104 571.976C458.832 570.728 460.608 568.736 461.496 567.08ZM482.112 554.648H490.512V556.232H482.112V554.648ZM484.656 570.872H491.376V572.408H484.656V570.872ZM484.632 566.888H491.4V568.328H484.632V566.888ZM481.032 559.112H493.44V560.72H481.032V559.112ZM485.832 552.056H487.512V560.144H485.832V552.056ZM492.192 552.68L493.824 553.16C491.184 559.16 486.912 563.768 481.632 566.672C481.416 566.288 480.84 565.568 480.504 565.208C485.712 562.616 489.816 558.248 492.192 552.68ZM485.208 563.048H491.328V564.56H485.208V573.824H483.552V564.104L484.56 563.048H485.208ZM490.608 563.048H492.36V573.488H490.608V563.048ZM494.448 553.232H501.624V554.912H496.248V573.92H494.448V553.232ZM501.168 553.232H501.528L501.816 553.136L503.112 553.976C502.104 556.232 500.808 559.016 499.632 561.224C502.152 563.456 502.8 565.352 502.8 567.08C502.824 568.568 502.464 569.672 501.576 570.248C501.144 570.536 500.592 570.704 499.968 570.776C499.32 570.848 498.456 570.848 497.712 570.8C497.688 570.32 497.472 569.528 497.184 569.048C497.952 569.12 498.672 569.144 499.2 569.096C499.632 569.072 500.04 568.976 500.328 568.808C500.904 568.496 501.072 567.8 501.072 566.912C501.072 565.4 500.304 563.576 497.76 561.488C499.056 558.992 500.4 555.728 501.168 553.784V553.232ZM523.272 552.032L525.024 552.776C522.936 555.32 519.672 557.72 516.672 559.208C516.36 558.824 515.832 558.248 515.376 557.912C518.208 556.616 521.496 554.312 523.272 552.032ZM524.136 558.416L525.888 559.16C523.752 562.016 520.272 564.536 516.888 566.144C516.576 565.712 516.048 565.112 515.592 564.752C518.832 563.408 522.288 560.984 524.136 558.416ZM525.096 565.088L526.872 565.832C524.424 569.456 520.272 572.336 515.568 573.992C515.328 573.56 514.8 572.936 514.368 572.576C518.832 571.112 522.936 568.4 525.096 565.088ZM505.248 557H515.064V558.728H505.248V557ZM509.472 551.84H511.224V573.896H509.472V551.84ZM509.4 558.056L510.624 558.488C509.664 562.4 507.696 567.08 505.656 569.48C505.464 568.976 504.984 568.256 504.672 567.824C506.592 565.664 508.56 561.584 509.4 558.056ZM511.128 559.568C511.848 560.216 514.44 563.024 515.04 563.696L513.888 565.208C513.144 564.032 511.032 561.44 510.168 560.48L511.128 559.568ZM529.92 556.664H550.128V558.44H529.92V556.664ZM529.272 571.04H550.728V572.888H529.272V571.04ZM536.496 557.84H538.272V572H536.496V557.84ZM541.584 557.84H543.384V572.024H541.584V557.84ZM547.2 560.504L549.12 560.984C548.256 563.624 547.128 566.792 546.144 568.808L544.536 568.352C545.496 566.288 546.624 562.904 547.2 560.504ZM545.232 551.864L547.176 552.44C546.312 554 545.256 555.728 544.392 556.88L542.784 556.304C543.624 555.104 544.68 553.208 545.232 551.864ZM531.048 561.176L532.656 560.744C533.856 563.144 534.816 566.264 535.08 568.352L533.352 568.784C533.112 566.72 532.176 563.576 531.048 561.176ZM533.112 552.536L534.696 551.888C535.704 553.16 536.712 554.864 537.144 555.992L535.464 556.736C535.08 555.56 534.072 553.784 533.112 552.536ZM568.992 555.896L570.768 556.496C567.864 561.968 563.544 566.696 558.936 569.792C558.624 569.432 557.928 568.736 557.496 568.4C562.176 565.592 566.376 560.984 568.992 555.896ZM558.48 558.824L559.752 557.672C564.168 560.408 569.4 564.512 571.872 567.536L570.432 568.88C568.08 565.88 562.944 561.632 558.48 558.824ZM554.256 553.328H574.272V555.056H556.032V573.968H554.256V553.328ZM555.408 570.848H574.824V572.6H555.408V570.848ZM577.56 554.144H598.416V555.704H577.56V554.144ZM586.944 551.84H588.792V554.888H586.944V551.84ZM578.616 563.528H596.448V565.064H580.368V573.944H578.616V563.528ZM595.704 563.528H597.504V571.784C597.504 572.768 597.288 573.296 596.52 573.608C595.752 573.872 594.456 573.896 592.464 573.896C592.392 573.392 592.128 572.672 591.864 572.192C593.448 572.24 594.792 572.24 595.2 572.192C595.608 572.192 595.704 572.072 595.704 571.736V563.528ZM583.416 566.624H585.024V572.912H583.416V566.624ZM584.28 566.624H592.584V571.688H584.28V570.392H590.952V567.92H584.28V566.624ZM583.272 558.368V560.696H592.656V558.368H583.272ZM581.544 557.048H594.48V562.016H581.544V557.048ZM606.84 551.96H608.736V561.296C608.736 566.24 608.136 570.92 603.24 574.16C602.904 573.776 602.16 573.128 601.704 572.864C606.336 569.864 606.84 565.76 606.84 561.272V551.96ZM615.384 551.936H617.28V573.92H615.384V551.936ZM601.44 564.296H622.584V566.096H601.44V564.296ZM602.208 556.808H622.032V558.608H602.208V556.808ZM625.632 553.28H646.416V555.032H625.632V553.28ZM629.016 564.44H643.536V566.12H629.016V564.44ZM629.16 557.648H644.592V567.44H642.768V559.328H629.16V557.648ZM627.96 557.648H629.784V563.096C629.784 566.432 629.256 571.04 626.208 574.04C625.944 573.656 625.2 573.032 624.792 572.792C627.648 569.984 627.96 566.096 627.96 563.072V557.648ZM649.56 554.144H670.536V555.824H649.56V554.144ZM658.992 551.864H660.864V573.92H658.992V551.864ZM658.44 565.616L659.952 566.288C657.696 569.312 653.736 572.12 650.232 573.56C649.944 573.104 649.392 572.408 648.96 572.048C652.464 570.824 656.4 568.256 658.44 565.616ZM661.464 565.64C663.528 568.28 667.536 570.848 671.088 572.048C670.656 572.408 670.104 573.104 669.816 573.608C666.264 572.192 662.256 569.312 660 566.312L661.464 565.64ZM653.424 562.928V565.232H666.768V562.928H653.424ZM653.424 559.28V561.56H666.768V559.28H653.424ZM651.672 557.864H668.592V566.672H651.672V557.864ZM674.952 554.192H693.096V555.992H674.952V554.192ZM676.488 562.04H691.2V563.84H676.488V562.04ZM673.56 570.368H694.392V572.192H673.56V570.368ZM697.44 554.048H718.536V555.896H697.44V554.048ZM707.664 554.816H709.728V570.992C709.728 572.432 709.32 573.032 708.312 573.368C707.256 573.704 705.456 573.728 702.672 573.728C702.552 573.128 702.144 572.216 701.808 571.664C704.064 571.736 706.224 571.736 706.848 571.712C707.448 571.688 707.664 571.52 707.664 570.968V554.816ZM725.016 559.016H738.912V560.72H725.016V559.016ZM725.016 564.704H738.912V566.408H725.016V564.704ZM725.016 570.416H738.912V572.168H725.016V570.416ZM723.768 553.328H740.064V573.8H738.192V555.104H725.568V573.8H723.768V553.328ZM744.936 572V570.776L751.92 563.936C752.56 563.312 753.04 562.768 753.36 562.304C753.68 561.824 753.896 561.376 754.008 560.96C754.12 560.544 754.176 560.152 754.176 559.784C754.176 558.808 753.84 558.04 753.168 557.48C752.512 556.92 751.536 556.64 750.24 556.64C749.248 556.64 748.368 556.792 747.6 557.096C746.848 557.4 746.2 557.872 745.656 558.512L744.432 557.456C745.088 556.688 745.928 556.096 746.952 555.68C747.976 555.264 749.12 555.056 750.384 555.056C751.52 555.056 752.504 555.24 753.336 555.608C754.168 555.96 754.808 556.48 755.256 557.168C755.72 557.856 755.952 558.664 755.952 559.592C755.952 560.136 755.872 560.672 755.712 561.2C755.568 561.728 755.296 562.288 754.896 562.88C754.512 563.456 753.944 564.112 753.192 564.848L746.784 571.136L746.304 570.464H756.72V572H744.936ZM765.273 572.144C763.929 572.144 762.769 571.952 761.793 571.568C760.833 571.184 760.089 570.632 759.561 569.912C759.049 569.176 758.793 568.312 758.793 567.32C758.793 566.36 759.041 565.544 759.537 564.872C760.049 564.184 760.785 563.656 761.745 563.288C762.721 562.92 763.897 562.736 765.273 562.736C766.633 562.736 767.801 562.92 768.777 563.288C769.753 563.656 770.497 564.184 771.009 564.872C771.537 565.544 771.801 566.36 771.801 567.32C771.801 568.312 771.537 569.176 771.009 569.912C770.481 570.632 769.729 571.184 768.753 571.568C767.777 571.952 766.617 572.144 765.273 572.144ZM765.273 570.68C766.761 570.68 767.921 570.376 768.753 569.768C769.601 569.16 770.025 568.336 770.025 567.296C770.025 566.256 769.601 565.44 768.753 564.848C767.921 564.24 766.761 563.936 765.273 563.936C763.785 563.936 762.625 564.24 761.793 564.848C760.961 565.44 760.545 566.256 760.545 567.296C760.545 568.336 760.961 569.16 761.793 569.768C762.625 570.376 763.785 570.68 765.273 570.68ZM765.273 563.72C764.025 563.72 762.961 563.552 762.081 563.216C761.217 562.88 760.553 562.4 760.089 561.776C759.625 561.136 759.393 560.376 759.393 559.496C759.393 558.568 759.633 557.776 760.113 557.12C760.609 556.448 761.297 555.936 762.177 555.584C763.057 555.232 764.089 555.056 765.273 555.056C766.457 555.056 767.489 555.232 768.369 555.584C769.265 555.936 769.961 556.448 770.457 557.12C770.953 557.776 771.201 558.568 771.201 559.496C771.201 560.376 770.969 561.136 770.505 561.776C770.041 562.4 769.361 562.88 768.465 563.216C767.585 563.552 766.521 563.72 765.273 563.72ZM765.273 562.568C766.585 562.568 767.609 562.296 768.345 561.752C769.081 561.208 769.449 560.48 769.449 559.568C769.449 558.608 769.065 557.864 768.297 557.336C767.545 556.792 766.537 556.52 765.273 556.52C764.009 556.52 763.001 556.792 762.249 557.336C761.497 557.864 761.121 558.6 761.121 559.544C761.121 560.472 761.481 561.208 762.201 561.752C762.937 562.296 763.961 562.568 765.273 562.568ZM774.385 558.56H795.529V560.072H774.385V558.56ZM783.961 553.952H785.761V564.224H783.961V553.952ZM792.121 552.128L793.321 553.472C788.905 554.408 781.921 554.96 776.137 555.152C776.089 554.768 775.897 554.12 775.729 553.76C781.465 553.52 788.353 552.968 792.121 552.128ZM783.145 559.016L784.609 559.712C782.353 562.4 778.345 564.92 774.913 566.168C774.673 565.76 774.169 565.112 773.761 564.752C777.145 563.672 781.105 561.392 783.145 559.016ZM786.577 559.088C788.641 561.368 792.673 563.504 796.177 564.464C795.745 564.824 795.241 565.52 794.953 565.976C791.473 564.824 787.441 562.352 785.185 559.712L786.577 559.088ZM790.345 554.552L792.265 555.104C791.497 556.4 790.561 557.864 789.841 558.824L788.329 558.296C789.025 557.264 789.889 555.656 790.345 554.552ZM777.889 555.56L779.425 554.96C780.217 555.944 781.033 557.264 781.345 558.176L779.713 558.824C779.401 557.936 778.633 556.544 777.889 555.56ZM777.457 564.68H792.769V573.872H790.945V566.096H779.209V573.968H777.457V564.68ZM778.249 568.184H791.953V569.48H778.249V568.184ZM778.249 571.688H791.953V573.128H778.249V571.688ZM784.009 565.448H785.737V572.624H784.009V565.448ZM432.936 601V599.776L439.92 592.936C440.56 592.312 441.04 591.768 441.36 591.304C441.68 590.824 441.896 590.376 442.008 589.96C442.12 589.544 442.176 589.152 442.176 588.784C442.176 587.808 441.84 587.04 441.168 586.48C440.512 585.92 439.536 585.64 438.24 585.64C437.248 585.64 436.368 585.792 435.6 586.096C434.848 586.4 434.2 586.872 433.656 587.512L432.432 586.456C433.088 585.688 433.928 585.096 434.952 584.68C435.976 584.264 437.12 584.056 438.384 584.056C439.52 584.056 440.504 584.24 441.336 584.608C442.168 584.96 442.808 585.48 443.256 586.168C443.72 586.856 443.952 587.664 443.952 588.592C443.952 589.136 443.872 589.672 443.712 590.2C443.568 590.728 443.296 591.288 442.896 591.88C442.512 592.456 441.944 593.112 441.192 593.848L434.784 600.136L434.304 599.464H444.72V601H432.936ZM446.893 595.24V593.752H453.181V595.24H446.893ZM455.765 596.584V595.336L464.669 584.2H466.589L457.757 595.336L456.821 595.048H470.333V596.584H455.765ZM465.245 601V596.584L465.293 595.048V591.16H466.973V601H465.245ZM478.616 601.144C477.32 601.144 476.168 600.808 475.16 600.136C474.152 599.448 473.36 598.472 472.784 597.208C472.208 595.928 471.92 594.392 471.92 592.6C471.92 590.808 472.208 589.28 472.784 588.016C473.36 586.736 474.152 585.76 475.16 585.088C476.168 584.4 477.32 584.056 478.616 584.056C479.912 584.056 481.064 584.4 482.072 585.088C483.08 585.76 483.872 586.736 484.448 588.016C485.04 589.28 485.336 590.808 485.336 592.6C485.336 594.392 485.04 595.928 484.448 597.208C483.872 598.472 483.08 599.448 482.072 600.136C481.064 600.808 479.912 601.144 478.616 601.144ZM478.616 599.56C479.608 599.56 480.472 599.296 481.208 598.768C481.944 598.224 482.52 597.44 482.936 596.416C483.352 595.376 483.56 594.104 483.56 592.6C483.56 591.096 483.352 589.832 482.936 588.808C482.52 587.768 481.944 586.984 481.208 586.456C480.472 585.912 479.608 585.64 478.616 585.64C477.656 585.64 476.8 585.912 476.048 586.456C475.296 586.984 474.712 587.768 474.296 588.808C473.88 589.832 473.672 591.096 473.672 592.6C473.672 594.104 473.88 595.376 474.296 596.416C474.712 597.44 475.296 598.224 476.048 598.768C476.8 599.296 477.656 599.56 478.616 599.56ZM490.739 601V584.92L491.507 585.736H486.779V584.2H492.467V601H490.739ZM501.474 583.432V587.296H513.162V583.432H501.474ZM499.722 581.848H515.01V588.904H499.722V581.848ZM496.386 590.752H518.01V592.432H496.386V590.752ZM501.522 594.544H513.762V596.224H501.522V594.544ZM513.114 594.544H515.034C515.034 594.544 514.986 595.12 514.938 595.384C514.314 599.608 513.738 601.48 512.826 602.272C512.25 602.776 511.674 602.896 510.738 602.944C509.922 602.992 508.338 602.944 506.658 602.848C506.61 602.344 506.37 601.624 506.034 601.144C507.738 601.288 509.49 601.312 510.138 601.312C510.714 601.312 511.026 601.288 511.314 601.096C512.034 600.52 512.586 598.744 513.09 594.808L513.114 594.544ZM501.978 591.208L503.874 591.496C503.226 593.608 502.338 596.224 501.642 597.88L499.722 597.544C500.442 595.888 501.378 593.224 501.978 591.208ZM549.786 601L544.122 584.2H545.946L551.25 600.016H550.338L555.81 584.2H557.442L562.842 600.016H561.978L567.33 584.2H569.034L563.37 601H561.498L556.338 586H556.818L551.634 601H549.786ZM571.86 601V588.4H573.564V601H571.86ZM572.724 585.616C572.372 585.616 572.076 585.496 571.836 585.256C571.596 585.016 571.476 584.728 571.476 584.392C571.476 584.056 571.596 583.776 571.836 583.552C572.076 583.312 572.372 583.192 572.724 583.192C573.076 583.192 573.372 583.304 573.612 583.528C573.852 583.752 573.972 584.032 573.972 584.368C573.972 584.72 573.852 585.016 573.612 585.256C573.388 585.496 573.092 585.616 572.724 585.616ZM581.69 601.12C580.65 601.12 579.666 600.976 578.738 600.688C577.81 600.384 577.082 600.008 576.554 599.56L577.322 598.216C577.834 598.6 578.49 598.936 579.29 599.224C580.09 599.496 580.93 599.632 581.81 599.632C583.01 599.632 583.874 599.448 584.402 599.08C584.93 598.696 585.194 598.192 585.194 597.568C585.194 597.104 585.042 596.744 584.738 596.488C584.45 596.216 584.066 596.016 583.586 595.888C583.106 595.744 582.57 595.624 581.978 595.528C581.386 595.432 580.794 595.32 580.202 595.192C579.626 595.064 579.098 594.88 578.618 594.64C578.138 594.384 577.746 594.04 577.442 593.608C577.154 593.176 577.01 592.6 577.01 591.88C577.01 591.192 577.202 590.576 577.586 590.032C577.97 589.488 578.53 589.064 579.266 588.76C580.018 588.44 580.93 588.28 582.002 588.28C582.818 588.28 583.634 588.392 584.45 588.616C585.266 588.824 585.938 589.104 586.466 589.456L585.722 590.824C585.162 590.44 584.562 590.168 583.922 590.008C583.282 589.832 582.642 589.744 582.002 589.744C580.866 589.744 580.026 589.944 579.482 590.344C578.954 590.728 578.69 591.224 578.69 591.832C578.69 592.312 578.834 592.688 579.122 592.96C579.426 593.232 579.818 593.448 580.298 593.608C580.794 593.752 581.33 593.872 581.906 593.968C582.498 594.064 583.082 594.184 583.658 594.328C584.25 594.456 584.786 594.64 585.266 594.88C585.762 595.104 586.154 595.432 586.442 595.864C586.746 596.28 586.898 596.832 586.898 597.52C586.898 598.256 586.69 598.896 586.274 599.44C585.874 599.968 585.282 600.384 584.498 600.688C583.73 600.976 582.794 601.12 581.69 601.12ZM594.008 601.12C592.824 601.12 591.912 600.8 591.272 600.16C590.632 599.52 590.312 598.616 590.312 597.448V585.616H592.016V597.352C592.016 598.088 592.2 598.656 592.568 599.056C592.952 599.456 593.496 599.656 594.2 599.656C594.952 599.656 595.576 599.44 596.072 599.008L596.672 600.232C596.336 600.536 595.928 600.76 595.448 600.904C594.984 601.048 594.504 601.12 594.008 601.12ZM588.056 589.816V588.4H595.856V589.816H588.056ZM607.67 601V598.216L607.598 597.76V593.104C607.598 592.032 607.294 591.208 606.686 590.632C606.094 590.056 605.206 589.768 604.022 589.768C603.206 589.768 602.43 589.904 601.694 590.176C600.958 590.448 600.334 590.808 599.822 591.256L599.054 589.984C599.694 589.44 600.462 589.024 601.358 588.736C602.254 588.432 603.198 588.28 604.19 588.28C605.822 588.28 607.078 588.688 607.958 589.504C608.854 590.304 609.302 591.528 609.302 593.176V601H607.67ZM603.326 601.12C602.382 601.12 601.558 600.968 600.854 600.664C600.166 600.344 599.638 599.912 599.27 599.368C598.902 598.808 598.718 598.168 598.718 597.448C598.718 596.792 598.87 596.2 599.174 595.672C599.494 595.128 600.006 594.696 600.71 594.376C601.43 594.04 602.39 593.872 603.59 593.872H607.934V595.144H603.638C602.422 595.144 601.574 595.36 601.094 595.792C600.63 596.224 600.398 596.76 600.398 597.4C600.398 598.12 600.678 598.696 601.238 599.128C601.798 599.56 602.582 599.776 603.59 599.776C604.55 599.776 605.374 599.56 606.062 599.128C606.766 598.68 607.278 598.04 607.598 597.208L607.982 598.384C607.662 599.216 607.102 599.88 606.302 600.376C605.518 600.872 604.526 601.12 603.326 601.12ZM623.836 601V585.736H617.932V584.2H631.516V585.736H625.612V601H623.836ZM641.186 601V598.216L641.114 597.76V593.104C641.114 592.032 640.81 591.208 640.202 590.632C639.61 590.056 638.722 589.768 637.538 589.768C636.722 589.768 635.946 589.904 635.21 590.176C634.474 590.448 633.85 590.808 633.338 591.256L632.57 589.984C633.21 589.44 633.978 589.024 634.874 588.736C635.77 588.432 636.714 588.28 637.706 588.28C639.338 588.28 640.594 588.688 641.474 589.504C642.37 590.304 642.818 591.528 642.818 593.176V601H641.186ZM636.842 601.12C635.898 601.12 635.074 600.968 634.37 600.664C633.682 600.344 633.154 599.912 632.786 599.368C632.418 598.808 632.234 598.168 632.234 597.448C632.234 596.792 632.386 596.2 632.69 595.672C633.01 595.128 633.522 594.696 634.226 594.376C634.946 594.04 635.906 593.872 637.106 593.872H641.45V595.144H637.154C635.938 595.144 635.09 595.36 634.61 595.792C634.146 596.224 633.914 596.76 633.914 597.4C633.914 598.12 634.194 598.696 634.754 599.128C635.314 599.56 636.098 599.776 637.106 599.776C638.066 599.776 638.89 599.56 639.578 599.128C640.282 598.68 640.794 598.04 641.114 597.208L641.498 598.384C641.178 599.216 640.618 599.88 639.818 600.376C639.034 600.872 638.042 601.12 636.842 601.12ZM648.79 597.736L648.838 595.552L656.686 588.4H658.774L653.23 593.704L652.27 594.52L648.79 597.736ZM647.446 601V583.192H649.15V601H647.446ZM657.214 601L651.958 594.448L653.062 593.128L659.302 601H657.214ZM669.522 601V598.216L669.45 597.76V593.104C669.45 592.032 669.146 591.208 668.538 590.632C667.946 590.056 667.058 589.768 665.874 589.768C665.058 589.768 664.282 589.904 663.546 590.176C662.81 590.448 662.186 590.808 661.674 591.256L660.906 589.984C661.546 589.44 662.314 589.024 663.21 588.736C664.106 588.432 665.05 588.28 666.042 588.28C667.674 588.28 668.93 588.688 669.81 589.504C670.706 590.304 671.154 591.528 671.154 593.176V601H669.522ZM665.178 601.12C664.234 601.12 663.41 600.968 662.706 600.664C662.018 600.344 661.49 599.912 661.122 599.368C660.754 598.808 660.57 598.168 660.57 597.448C660.57 596.792 660.722 596.2 661.026 595.672C661.346 595.128 661.858 594.696 662.562 594.376C663.282 594.04 664.242 593.872 665.442 593.872H669.786V595.144H665.49C664.274 595.144 663.426 595.36 662.946 595.792C662.482 596.224 662.25 596.76 662.25 597.4C662.25 598.12 662.53 598.696 663.09 599.128C663.65 599.56 664.434 599.776 665.442 599.776C666.402 599.776 667.226 599.56 667.914 599.128C668.618 598.68 669.13 598.04 669.45 597.208L669.834 598.384C669.514 599.216 668.954 599.88 668.154 600.376C667.37 600.872 666.378 601.12 665.178 601.12ZM675.782 601V588.4H677.486V601H675.782ZM676.646 585.616C676.294 585.616 675.998 585.496 675.758 585.256C675.518 585.016 675.398 584.728 675.398 584.392C675.398 584.056 675.518 583.776 675.758 583.552C675.998 583.312 676.294 583.192 676.646 583.192C676.998 583.192 677.294 583.304 677.534 583.528C677.774 583.752 677.894 584.032 677.894 584.368C677.894 584.72 677.774 585.016 677.534 585.256C677.31 585.496 677.014 585.616 676.646 585.616ZM687.244 601.12C686.044 601.12 684.964 600.848 684.004 600.304C683.06 599.76 682.316 599.008 681.772 598.048C681.228 597.072 680.956 595.952 680.956 594.688C680.956 593.408 681.228 592.288 681.772 591.328C682.316 590.368 683.06 589.624 684.004 589.096C684.964 588.552 686.044 588.28 687.244 588.28C688.348 588.28 689.332 588.528 690.196 589.024C691.076 589.52 691.772 590.248 692.284 591.208C692.812 592.152 693.076 593.312 693.076 594.688C693.076 596.048 692.82 597.208 692.308 598.168C691.796 599.128 691.1 599.864 690.22 600.376C689.356 600.872 688.364 601.12 687.244 601.12ZM687.364 599.608C688.26 599.608 689.06 599.408 689.764 599.008C690.484 598.592 691.044 598.016 691.444 597.28C691.86 596.528 692.068 595.664 692.068 594.688C692.068 593.696 691.86 592.832 691.444 592.096C691.044 591.36 690.484 590.792 689.764 590.392C689.06 589.976 688.26 589.768 687.364 589.768C686.484 589.768 685.692 589.976 684.988 590.392C684.284 590.792 683.724 591.36 683.308 592.096C682.892 592.832 682.684 593.696 682.684 594.688C682.684 595.664 682.892 596.528 683.308 597.28C683.724 598.016 684.284 598.592 684.988 599.008C685.692 599.408 686.484 599.608 687.364 599.608ZM692.116 601V597.208L692.284 594.664L692.044 592.12V583.192H693.748V601H692.116ZM703.629 601.12C702.413 601.12 701.317 600.848 700.341 600.304C699.381 599.744 698.621 598.984 698.061 598.024C697.501 597.048 697.221 595.936 697.221 594.688C697.221 593.424 697.501 592.312 698.061 591.352C698.621 590.392 699.381 589.64 700.341 589.096C701.301 588.552 702.397 588.28 703.629 588.28C704.877 588.28 705.981 588.552 706.941 589.096C707.917 589.64 708.677 590.392 709.221 591.352C709.781 592.312 710.061 593.424 710.061 594.688C710.061 595.936 709.781 597.048 709.221 598.024C708.677 598.984 707.917 599.744 706.941 600.304C705.965 600.848 704.861 601.12 703.629 601.12ZM703.629 599.608C704.541 599.608 705.349 599.408 706.053 599.008C706.757 598.592 707.309 598.016 707.709 597.28C708.125 596.528 708.333 595.664 708.333 594.688C708.333 593.696 708.125 592.832 707.709 592.096C707.309 591.36 706.757 590.792 706.053 590.392C705.349 589.976 704.549 589.768 703.653 589.768C702.757 589.768 701.957 589.976 701.253 590.392C700.549 590.792 699.989 591.36 699.573 592.096C699.157 592.832 698.949 593.696 698.949 594.688C698.949 595.664 699.157 596.528 699.573 597.28C699.989 598.016 700.549 598.592 701.253 599.008C701.957 599.408 702.749 599.608 703.629 599.608Z" fill="black"/>
</svg>
