<svg width="144" height="142" viewBox="0 0 144 142" fill="none" xmlns="http://www.w3.org/2000/svg">
<path d="M28.7164 115.644L1 100.745V70.9453L28.7164 85.8455V115.644Z" fill="#937DBD" stroke="#372F47" stroke-miterlimit="1"/>
<path d="M28.7188 115.644L56.4351 100.745V70.9453L28.7188 85.8455V115.644Z" fill="#937DBD" stroke="#372F47" stroke-miterlimit="1"/>
<path d="M56.4327 70.9499L28.7164 56.0508L1 70.9499L28.7164 85.849L56.4327 70.9499Z" fill="#B89CEC" stroke="#372F47" stroke-miterlimit="1"/>
<path d="M91.9 140.766L41 113.404V58.6797L91.9 86.0417V140.766Z" fill="#C1B5E7" stroke="#2C4248" stroke-miterlimit="1"/>
<path d="M91.8984 140.766L142.798 113.404V58.6797L91.8984 86.0417V140.766Z" fill="#C1B5E7" stroke="#2C4248" stroke-miterlimit="1"/>
<path d="M142.799 58.6823L91.9 31.3203L41 58.6823L91.9 86.0443L142.799 58.6823Z" fill="#DFD6FB" stroke="#2C4248" stroke-miterlimit="1"/>
<path d="M93.7164 60.8117L66 45.9126V16.1133L93.7164 31.0135V60.8117Z" fill="#937DBD" stroke="#372F47" stroke-miterlimit="1"/>
<path d="M93.7188 60.8117L121.435 45.9126V16.1133L93.7188 31.0135V60.8117Z" fill="#937DBD" stroke="#372F47" stroke-miterlimit="1"/>
<path d="M121.433 16.1179L93.7164 1.21875L66 16.1179L93.7164 31.017L121.433 16.1179Z" fill="#B89CEC" stroke="#372F47" stroke-miterlimit="1"/>
</svg>
