<svg width="1062" height="310" viewBox="0 0 1062 310" fill="none" xmlns="http://www.w3.org/2000/svg">
<g filter="url(#filter0_d_1253_32)">
<path d="M869.999 139.79L806 105.093V35.6992L869.999 70.3961V139.79Z" fill="#CCCCCC" stroke="#4D4D4D" stroke-miterlimit="1"/>
<path d="M870 139.79L933.999 105.093V35.6992L870 70.3961V139.79Z" fill="#CCCCCC" stroke="#4D4D4D" stroke-miterlimit="1"/>
<path d="M933.999 35.6969L869.999 1L806 35.6969L869.999 70.3937L933.999 35.6969Z" fill="white" stroke="#4D4D4D" stroke-miterlimit="1"/>
</g>
<g filter="url(#filter1_d_1253_32)">
<path d="M607.487 294.175L562.212 288.84L546.07 248.5L591.345 253.835L607.487 294.175Z" fill="#CCCCCC" stroke="#4D4D4D" stroke-miterlimit="1"/>
<path d="M607.486 294.174L636.619 259.169L620.477 218.829L591.344 253.834L607.486 294.174Z" fill="#CCCCCC" stroke="#4D4D4D" stroke-miterlimit="1"/>
<path d="M620.479 218.828L575.204 213.493L546.071 248.498L591.345 253.833L620.479 218.828Z" fill="white" stroke="#4D4D4D" stroke-miterlimit="1"/>
</g>
<g filter="url(#filter2_d_1253_32)">
<path d="M504.955 152.254L455.645 151.421L433.883 109.754L483.192 110.586L504.955 152.254Z" fill="#CCCCCC" stroke="#4D4D4D" stroke-miterlimit="1"/>
<path d="M504.957 152.255L532.503 111.42L510.741 69.7528L483.194 110.588L504.957 152.255Z" fill="#CCCCCC" stroke="#4D4D4D" stroke-miterlimit="1"/>
<path d="M510.738 69.753L461.428 68.9208L433.881 109.756L483.191 110.588L510.738 69.753Z" fill="white" stroke="#4D4D4D" stroke-miterlimit="1"/>
</g>
<g filter="url(#filter3_d_1253_32)">
<path d="M290.161 89.1988L257.308 85.9145L245.102 56.9102L277.954 60.1942L290.161 89.1988Z" fill="#CCCCCC" stroke="#4D4D4D" stroke-miterlimit="1"/>
<path d="M290.161 89.1982L310.807 63.4775L298.601 34.4732L277.955 60.1936L290.161 89.1982Z" fill="#CCCCCC" stroke="#4D4D4D" stroke-miterlimit="1"/>
<path d="M298.603 34.4719L265.75 31.188L245.103 56.9085L277.956 60.1925L298.603 34.4719Z" fill="white" stroke="#4D4D4D" stroke-miterlimit="1"/>
</g>
<g filter="url(#filter4_d_1253_32)">
<path d="M1054.62 151.707L977.312 113.117L900 151.707L977.312 190.296L1054.62 151.707Z" fill="#372F47" stroke="#372F47" stroke-miterlimit="1"/>
<path d="M1054.63 151.709L977.312 113.119V35.9414L1054.63 74.5302V151.709Z" fill="#6E5E8E" stroke="#372F47" stroke-miterlimit="1"/>
<path d="M977.312 113.119L900 151.709V74.5302L977.312 35.9414V113.119Z" fill="#6E5E8E" stroke="#372F47" stroke-miterlimit="1"/>
<path d="M977.312 190.299L900 151.71V74.5312L977.312 113.12V190.299Z" fill="#937DBD" stroke="#372F47" stroke-miterlimit="1"/>
<path d="M977.312 190.299L1054.63 151.71V74.5312L977.312 113.12V190.299Z" fill="#937DBD" stroke="#372F47" stroke-miterlimit="1"/>
<path d="M1054.62 74.5302L977.312 35.9414L900 74.5302L977.312 113.119L1054.62 74.5302Z" fill="#B89CEC" stroke="#372F47" stroke-miterlimit="1"/>
</g>
<g filter="url(#filter5_d_1253_32)">
<path d="M790.625 203.12L748.312 182L706 203.12L748.312 224.239L790.625 203.12Z" fill="#372F47" stroke="#372F47" stroke-miterlimit="1"/>
<path d="M790.625 203.12L748.312 182V139.762L790.625 160.881V203.12Z" fill="#6E5E8E" stroke="#372F47" stroke-miterlimit="1"/>
<path d="M748.312 182L706 203.12V160.881L748.312 139.762V182Z" fill="#6E5E8E" stroke="#372F47" stroke-miterlimit="1"/>
<path d="M748.312 224.241L706 203.122V160.883L748.312 182.002V224.241Z" fill="#937DBD" stroke="#372F47" stroke-miterlimit="1"/>
<path d="M748.312 224.241L790.625 203.122V160.883L748.312 182.002V224.241Z" fill="#937DBD" stroke="#372F47" stroke-miterlimit="1"/>
<path d="M790.625 160.881L748.312 139.762L706 160.881L748.312 182L790.625 160.881Z" fill="#B89CEC" stroke="#372F47" stroke-miterlimit="1"/>
</g>
<g filter="url(#filter6_d_1253_32)">
<path d="M615.865 182.335L598.359 149.347L561.615 143.118L579.121 176.105L615.865 182.335Z" fill="#372F47" stroke="#372F47" stroke-miterlimit="1"/>
<path d="M616.022 182.255L598.415 149.18L617.766 122.352L635.373 155.427L616.022 182.255Z" fill="#6E5E8E" stroke="#372F47" stroke-miterlimit="1"/>
<path d="M598.736 149.313L561.779 143.067L581.129 116.238L618.087 122.485L598.736 149.313Z" fill="#6E5E8E" stroke="#372F47" stroke-miterlimit="1"/>
<path d="M579.279 176.185L561.673 143.11L581.023 116.281L598.63 149.356L579.279 176.185Z" fill="#937DBD" stroke="#372F47" stroke-miterlimit="1"/>
<path d="M578.958 176.055L615.916 182.302L635.267 155.473L598.309 149.227L578.958 176.055Z" fill="#937DBD" stroke="#372F47" stroke-miterlimit="1"/>
<path d="M635.428 155.42L617.922 122.433L581.178 116.203L598.684 149.191L635.428 155.42Z" fill="#B89CEC" stroke="#372F47" stroke-miterlimit="1"/>
</g>
<g filter="url(#filter7_d_1253_32)">
<path d="M688.865 167.362L671.359 134.374L634.615 128.145L652.121 161.133L688.865 167.362Z" fill="#372F47" stroke="#372F47" stroke-miterlimit="1"/>
<path d="M689.022 167.283L671.415 134.207L690.766 107.379L708.373 140.454L689.022 167.283Z" fill="#6E5E8E" stroke="#372F47" stroke-miterlimit="1"/>
<path d="M671.736 134.34L634.779 128.094L654.129 101.266L691.087 107.512L671.736 134.34Z" fill="#6E5E8E" stroke="#372F47" stroke-miterlimit="1"/>
<path d="M652.279 161.212L634.673 128.137L654.023 101.309L671.63 134.383L652.279 161.212Z" fill="#937DBD" stroke="#372F47" stroke-miterlimit="1"/>
<path d="M651.958 161.083L688.916 167.329L708.267 140.501L671.309 134.254L651.958 161.083Z" fill="#937DBD" stroke="#372F47" stroke-miterlimit="1"/>
<path d="M708.428 140.448L690.922 107.46L654.178 101.231L671.684 134.218L708.428 140.448Z" fill="#B89CEC" stroke="#372F47" stroke-miterlimit="1"/>
</g>
<g filter="url(#filter8_d_1253_32)">
<path d="M848.9 202.452L798 177.046V126.234L848.9 151.64V202.452Z" fill="#C1B5E7" stroke="#2C4248" stroke-miterlimit="1"/>
<path d="M848.898 202.452L899.798 177.046V126.234L848.898 151.64V202.452Z" fill="#C1B5E7" stroke="#2C4248" stroke-miterlimit="1"/>
<path d="M899.799 126.234L848.9 100.828L798 126.234L848.9 151.64L899.799 126.234Z" fill="#DFD6FB" stroke="#2C4248" stroke-miterlimit="1"/>
</g>
<g filter="url(#filter9_d_1253_32)">
<path d="M447.591 201.44L390.696 200.241L368.898 154.324L425.794 155.523L447.591 201.44Z" fill="#C1B5E7" stroke="#2C4248" stroke-miterlimit="1"/>
<path d="M447.586 201.441L482.684 156.724L460.887 110.807L425.789 155.525L447.586 201.441Z" fill="#C1B5E7" stroke="#2C4248" stroke-miterlimit="1"/>
<path d="M460.891 110.807L403.997 109.608L368.899 154.326L425.794 155.525L460.891 110.807Z" fill="#DFD6FB" stroke="#2C4248" stroke-miterlimit="1"/>
</g>
<g filter="url(#filter10_d_1253_32)">
<path d="M193.414 198.301L152.021 194.416L138.578 159.805L179.971 163.69L193.414 198.301Z" fill="#C1B5E7" stroke="#2C4248" stroke-miterlimit="1"/>
<path d="M193.415 198.303L221.365 167.578L207.921 132.967L179.972 163.692L193.415 198.303Z" fill="#C1B5E7" stroke="#2C4248" stroke-miterlimit="1"/>
<path d="M207.923 132.966L166.531 129.08L138.581 159.805L179.974 163.691L207.923 132.966Z" fill="#DFD6FB" stroke="#2C4248" stroke-miterlimit="1"/>
</g>
<g filter="url(#filter11_d_1253_32)">
<path d="M292.671 180.418L263.303 177.661L253.766 153.105L283.133 155.862L292.671 180.418Z" fill="#C1B5E7" stroke="#2C4248" stroke-miterlimit="1"/>
<path d="M292.674 180.42L312.503 158.621L302.966 134.065L283.136 155.864L292.674 180.42Z" fill="#C1B5E7" stroke="#2C4248" stroke-miterlimit="1"/>
<path d="M302.965 134.068L273.599 131.311L253.769 153.11L283.136 155.867L302.965 134.068Z" fill="#DFD6FB" stroke="#2C4248" stroke-miterlimit="1"/>
</g>
<g filter="url(#filter12_d_1253_32)">
<path d="M113.773 142.179L85.6605 141.586L74.8906 118.898L103.003 119.491L113.773 142.179Z" fill="#C1B5E7" stroke="#2C4248" stroke-miterlimit="1"/>
<path d="M113.772 142.181L131.115 120.085L120.345 97.3973L103.002 119.492L113.772 142.181Z" fill="#C1B5E7" stroke="#2C4248" stroke-miterlimit="1"/>
<path d="M120.347 97.3966L92.2354 96.8035L74.8927 118.899L103.005 119.492L120.347 97.3966Z" fill="#DFD6FB" stroke="#2C4248" stroke-miterlimit="1"/>
</g>
<g filter="url(#filter13_d_1253_32)">
<path d="M430.265 101.05L402.153 100.458L391.383 77.7695L419.495 78.3624L430.265 101.05Z" fill="#C1B5E7" stroke="#2C4248" stroke-miterlimit="1"/>
<path d="M430.264 101.052L447.607 78.9564L436.837 56.2684L419.494 78.3635L430.264 101.052Z" fill="#C1B5E7" stroke="#2C4248" stroke-miterlimit="1"/>
<path d="M436.84 56.2677L408.728 55.6746L391.385 77.7698L419.497 78.3627L436.84 56.2677Z" fill="#DFD6FB" stroke="#2C4248" stroke-miterlimit="1"/>
</g>
<g filter="url(#filter14_d_1253_32)">
<path d="M367.265 131L339.153 130.407L328.383 107.719L356.495 108.312L367.265 131Z" fill="#C1B5E7" stroke="#2C4248" stroke-miterlimit="1"/>
<path d="M367.264 131.001L384.607 108.906L373.837 86.2176L356.494 108.313L367.264 131.001Z" fill="#C1B5E7" stroke="#2C4248" stroke-miterlimit="1"/>
<path d="M373.84 86.2169L345.728 85.6239L328.385 107.719L356.497 108.312L373.84 86.2169Z" fill="#DFD6FB" stroke="#2C4248" stroke-miterlimit="1"/>
</g>
<g filter="url(#filter15_d_1253_32)">
<path d="M22.5281 200.698L7.46642 176.994L20.4375 155.484L35.4992 179.188L22.5281 200.698Z" fill="#C1B5E7" stroke="#2C4248" stroke-miterlimit="1"/>
<path d="M22.5199 200.694L50.5527 202.888L63.5238 181.378L35.491 179.185L22.5199 200.694Z" fill="#C1B5E7" stroke="#2C4248" stroke-miterlimit="1"/>
<path d="M63.5304 181.382L48.4691 157.679L20.4363 155.485L35.498 179.189L63.5304 181.382Z" fill="#DFD6FB" stroke="#2C4248" stroke-miterlimit="1"/>
</g>
<defs>
<filter id="filter0_d_1253_32" x="803.5" y="0.558594" width="137" height="148.672" filterUnits="userSpaceOnUse" color-interpolation-filters="sRGB">
<feFlood flood-opacity="0" result="BackgroundImageFix"/>
<feColorMatrix in="SourceAlpha" type="matrix" values="0 0 0 0 0 0 0 0 0 0 0 0 0 0 0 0 0 0 127 0" result="hardAlpha"/>
<feOffset dx="2" dy="5"/>
<feGaussianBlur stdDeviation="2"/>
<feComposite in2="hardAlpha" operator="out"/>
<feColorMatrix type="matrix" values="0 0 0 0 0 0 0 0 0 0 0 0 0 0 0 0 0 0 0.25 0"/>
<feBlend mode="normal" in2="BackgroundImageFix" result="effect1_dropShadow_1253_32"/>
<feBlend mode="normal" in="SourceGraphic" in2="effect1_dropShadow_1253_32" result="shape"/>
</filter>
<filter id="filter1_d_1253_32" x="543.609" y="212.996" width="99.4766" height="90.6758" filterUnits="userSpaceOnUse" color-interpolation-filters="sRGB">
<feFlood flood-opacity="0" result="BackgroundImageFix"/>
<feColorMatrix in="SourceAlpha" type="matrix" values="0 0 0 0 0 0 0 0 0 0 0 0 0 0 0 0 0 0 127 0" result="hardAlpha"/>
<feOffset dx="2" dy="5"/>
<feGaussianBlur stdDeviation="2"/>
<feComposite in2="hardAlpha" operator="out"/>
<feColorMatrix type="matrix" values="0 0 0 0 0 0 0 0 0 0 0 0 0 0 0 0 0 0 0.25 0"/>
<feBlend mode="normal" in2="BackgroundImageFix" result="effect1_dropShadow_1253_32"/>
<feBlend mode="normal" in="SourceGraphic" in2="effect1_dropShadow_1253_32" result="shape"/>
</filter>
<filter id="filter2_d_1253_32" x="431.438" y="68.4219" width="107.508" height="93.332" filterUnits="userSpaceOnUse" color-interpolation-filters="sRGB">
<feFlood flood-opacity="0" result="BackgroundImageFix"/>
<feColorMatrix in="SourceAlpha" type="matrix" values="0 0 0 0 0 0 0 0 0 0 0 0 0 0 0 0 0 0 127 0" result="hardAlpha"/>
<feOffset dx="2" dy="5"/>
<feGaussianBlur stdDeviation="2"/>
<feComposite in2="hardAlpha" operator="out"/>
<feColorMatrix type="matrix" values="0 0 0 0 0 0 0 0 0 0 0 0 0 0 0 0 0 0 0.25 0"/>
<feBlend mode="normal" in2="BackgroundImageFix" result="effect1_dropShadow_1253_32"/>
<feBlend mode="normal" in="SourceGraphic" in2="effect1_dropShadow_1253_32" result="shape"/>
</filter>
<filter id="filter3_d_1253_32" x="242.641" y="30.6914" width="74.625" height="68.0039" filterUnits="userSpaceOnUse" color-interpolation-filters="sRGB">
<feFlood flood-opacity="0" result="BackgroundImageFix"/>
<feColorMatrix in="SourceAlpha" type="matrix" values="0 0 0 0 0 0 0 0 0 0 0 0 0 0 0 0 0 0 127 0" result="hardAlpha"/>
<feOffset dx="2" dy="5"/>
<feGaussianBlur stdDeviation="2"/>
<feComposite in2="hardAlpha" operator="out"/>
<feColorMatrix type="matrix" values="0 0 0 0 0 0 0 0 0 0 0 0 0 0 0 0 0 0 0.25 0"/>
<feBlend mode="normal" in2="BackgroundImageFix" result="effect1_dropShadow_1253_32"/>
<feBlend mode="normal" in="SourceGraphic" in2="effect1_dropShadow_1253_32" result="shape"/>
</filter>
<filter id="filter4_d_1253_32" x="897.5" y="35.4922" width="163.625" height="164.254" filterUnits="userSpaceOnUse" color-interpolation-filters="sRGB">
<feFlood flood-opacity="0" result="BackgroundImageFix"/>
<feColorMatrix in="SourceAlpha" type="matrix" values="0 0 0 0 0 0 0 0 0 0 0 0 0 0 0 0 0 0 127 0" result="hardAlpha"/>
<feOffset dx="2" dy="5"/>
<feGaussianBlur stdDeviation="2"/>
<feComposite in2="hardAlpha" operator="out"/>
<feColorMatrix type="matrix" values="0 0 0 0 0 0 0 0 0 0 0 0 0 0 0 0 0 0 0.25 0"/>
<feBlend mode="normal" in2="BackgroundImageFix" result="effect1_dropShadow_1253_32"/>
<feBlend mode="normal" in="SourceGraphic" in2="effect1_dropShadow_1253_32" result="shape"/>
</filter>
<filter id="filter5_d_1253_32" x="703.5" y="139.312" width="93.625" height="94.375" filterUnits="userSpaceOnUse" color-interpolation-filters="sRGB">
<feFlood flood-opacity="0" result="BackgroundImageFix"/>
<feColorMatrix in="SourceAlpha" type="matrix" values="0 0 0 0 0 0 0 0 0 0 0 0 0 0 0 0 0 0 127 0" result="hardAlpha"/>
<feOffset dx="2" dy="5"/>
<feGaussianBlur stdDeviation="2"/>
<feComposite in2="hardAlpha" operator="out"/>
<feColorMatrix type="matrix" values="0 0 0 0 0 0 0 0 0 0 0 0 0 0 0 0 0 0 0.25 0"/>
<feBlend mode="normal" in2="BackgroundImageFix" result="effect1_dropShadow_1253_32"/>
<feBlend mode="normal" in="SourceGraphic" in2="effect1_dropShadow_1253_32" result="shape"/>
</filter>
<filter id="filter6_d_1253_32" x="559.172" y="115.711" width="82.6953" height="76.1172" filterUnits="userSpaceOnUse" color-interpolation-filters="sRGB">
<feFlood flood-opacity="0" result="BackgroundImageFix"/>
<feColorMatrix in="SourceAlpha" type="matrix" values="0 0 0 0 0 0 0 0 0 0 0 0 0 0 0 0 0 0 127 0" result="hardAlpha"/>
<feOffset dx="2" dy="5"/>
<feGaussianBlur stdDeviation="2"/>
<feComposite in2="hardAlpha" operator="out"/>
<feColorMatrix type="matrix" values="0 0 0 0 0 0 0 0 0 0 0 0 0 0 0 0 0 0 0.25 0"/>
<feBlend mode="normal" in2="BackgroundImageFix" result="effect1_dropShadow_1253_32"/>
<feBlend mode="normal" in="SourceGraphic" in2="effect1_dropShadow_1253_32" result="shape"/>
</filter>
<filter id="filter7_d_1253_32" x="632.172" y="100.738" width="82.6953" height="76.1172" filterUnits="userSpaceOnUse" color-interpolation-filters="sRGB">
<feFlood flood-opacity="0" result="BackgroundImageFix"/>
<feColorMatrix in="SourceAlpha" type="matrix" values="0 0 0 0 0 0 0 0 0 0 0 0 0 0 0 0 0 0 127 0" result="hardAlpha"/>
<feOffset dx="2" dy="5"/>
<feGaussianBlur stdDeviation="2"/>
<feComposite in2="hardAlpha" operator="out"/>
<feColorMatrix type="matrix" values="0 0 0 0 0 0 0 0 0 0 0 0 0 0 0 0 0 0 0.25 0"/>
<feBlend mode="normal" in2="BackgroundImageFix" result="effect1_dropShadow_1253_32"/>
<feBlend mode="normal" in="SourceGraphic" in2="effect1_dropShadow_1253_32" result="shape"/>
</filter>
<filter id="filter8_d_1253_32" x="795.5" y="100.379" width="110.797" height="111.52" filterUnits="userSpaceOnUse" color-interpolation-filters="sRGB">
<feFlood flood-opacity="0" result="BackgroundImageFix"/>
<feColorMatrix in="SourceAlpha" type="matrix" values="0 0 0 0 0 0 0 0 0 0 0 0 0 0 0 0 0 0 127 0" result="hardAlpha"/>
<feOffset dx="2" dy="5"/>
<feGaussianBlur stdDeviation="2"/>
<feComposite in2="hardAlpha" operator="out"/>
<feColorMatrix type="matrix" values="0 0 0 0 0 0 0 0 0 0 0 0 0 0 0 0 0 0 0.25 0"/>
<feBlend mode="normal" in2="BackgroundImageFix" result="effect1_dropShadow_1253_32"/>
<feBlend mode="normal" in="SourceGraphic" in2="effect1_dropShadow_1253_32" result="shape"/>
</filter>
<filter id="filter9_d_1253_32" x="366.445" y="109.109" width="122.688" height="101.832" filterUnits="userSpaceOnUse" color-interpolation-filters="sRGB">
<feFlood flood-opacity="0" result="BackgroundImageFix"/>
<feColorMatrix in="SourceAlpha" type="matrix" values="0 0 0 0 0 0 0 0 0 0 0 0 0 0 0 0 0 0 127 0" result="hardAlpha"/>
<feOffset dx="2" dy="5"/>
<feGaussianBlur stdDeviation="2"/>
<feComposite in2="hardAlpha" operator="out"/>
<feColorMatrix type="matrix" values="0 0 0 0 0 0 0 0 0 0 0 0 0 0 0 0 0 0 0.25 0"/>
<feBlend mode="normal" in2="BackgroundImageFix" result="effect1_dropShadow_1253_32"/>
<feBlend mode="normal" in="SourceGraphic" in2="effect1_dropShadow_1253_32" result="shape"/>
</filter>
<filter id="filter10_d_1253_32" x="136.109" y="128.582" width="91.7188" height="79.2148" filterUnits="userSpaceOnUse" color-interpolation-filters="sRGB">
<feFlood flood-opacity="0" result="BackgroundImageFix"/>
<feColorMatrix in="SourceAlpha" type="matrix" values="0 0 0 0 0 0 0 0 0 0 0 0 0 0 0 0 0 0 127 0" result="hardAlpha"/>
<feOffset dx="2" dy="5"/>
<feGaussianBlur stdDeviation="2"/>
<feComposite in2="hardAlpha" operator="out"/>
<feColorMatrix type="matrix" values="0 0 0 0 0 0 0 0 0 0 0 0 0 0 0 0 0 0 0.25 0"/>
<feBlend mode="normal" in2="BackgroundImageFix" result="effect1_dropShadow_1253_32"/>
<feBlend mode="normal" in="SourceGraphic" in2="effect1_dropShadow_1253_32" result="shape"/>
</filter>
<filter id="filter11_d_1253_32" x="251.297" y="130.812" width="67.6719" height="59.1016" filterUnits="userSpaceOnUse" color-interpolation-filters="sRGB">
<feFlood flood-opacity="0" result="BackgroundImageFix"/>
<feColorMatrix in="SourceAlpha" type="matrix" values="0 0 0 0 0 0 0 0 0 0 0 0 0 0 0 0 0 0 127 0" result="hardAlpha"/>
<feOffset dx="2" dy="5"/>
<feGaussianBlur stdDeviation="2"/>
<feComposite in2="hardAlpha" operator="out"/>
<feColorMatrix type="matrix" values="0 0 0 0 0 0 0 0 0 0 0 0 0 0 0 0 0 0 0.25 0"/>
<feBlend mode="normal" in2="BackgroundImageFix" result="effect1_dropShadow_1253_32"/>
<feBlend mode="normal" in="SourceGraphic" in2="effect1_dropShadow_1253_32" result="shape"/>
</filter>
<filter id="filter12_d_1253_32" x="72.4375" y="96.3047" width="65.1328" height="55.375" filterUnits="userSpaceOnUse" color-interpolation-filters="sRGB">
<feFlood flood-opacity="0" result="BackgroundImageFix"/>
<feColorMatrix in="SourceAlpha" type="matrix" values="0 0 0 0 0 0 0 0 0 0 0 0 0 0 0 0 0 0 127 0" result="hardAlpha"/>
<feOffset dx="2" dy="5"/>
<feGaussianBlur stdDeviation="2"/>
<feComposite in2="hardAlpha" operator="out"/>
<feColorMatrix type="matrix" values="0 0 0 0 0 0 0 0 0 0 0 0 0 0 0 0 0 0 0.25 0"/>
<feBlend mode="normal" in2="BackgroundImageFix" result="effect1_dropShadow_1253_32"/>
<feBlend mode="normal" in="SourceGraphic" in2="effect1_dropShadow_1253_32" result="shape"/>
</filter>
<filter id="filter13_d_1253_32" x="388.93" y="55.1758" width="65.1328" height="55.375" filterUnits="userSpaceOnUse" color-interpolation-filters="sRGB">
<feFlood flood-opacity="0" result="BackgroundImageFix"/>
<feColorMatrix in="SourceAlpha" type="matrix" values="0 0 0 0 0 0 0 0 0 0 0 0 0 0 0 0 0 0 127 0" result="hardAlpha"/>
<feOffset dx="2" dy="5"/>
<feGaussianBlur stdDeviation="2"/>
<feComposite in2="hardAlpha" operator="out"/>
<feColorMatrix type="matrix" values="0 0 0 0 0 0 0 0 0 0 0 0 0 0 0 0 0 0 0.25 0"/>
<feBlend mode="normal" in2="BackgroundImageFix" result="effect1_dropShadow_1253_32"/>
<feBlend mode="normal" in="SourceGraphic" in2="effect1_dropShadow_1253_32" result="shape"/>
</filter>
<filter id="filter14_d_1253_32" x="325.93" y="85.125" width="65.1328" height="55.375" filterUnits="userSpaceOnUse" color-interpolation-filters="sRGB">
<feFlood flood-opacity="0" result="BackgroundImageFix"/>
<feColorMatrix in="SourceAlpha" type="matrix" values="0 0 0 0 0 0 0 0 0 0 0 0 0 0 0 0 0 0 127 0" result="hardAlpha"/>
<feOffset dx="2" dy="5"/>
<feGaussianBlur stdDeviation="2"/>
<feComposite in2="hardAlpha" operator="out"/>
<feColorMatrix type="matrix" values="0 0 0 0 0 0 0 0 0 0 0 0 0 0 0 0 0 0 0.25 0"/>
<feBlend mode="normal" in2="BackgroundImageFix" result="effect1_dropShadow_1253_32"/>
<feBlend mode="normal" in="SourceGraphic" in2="effect1_dropShadow_1253_32" result="shape"/>
</filter>
<filter id="filter15_d_1253_32" x="5.03906" y="154.988" width="64.9141" height="57.3984" filterUnits="userSpaceOnUse" color-interpolation-filters="sRGB">
<feFlood flood-opacity="0" result="BackgroundImageFix"/>
<feColorMatrix in="SourceAlpha" type="matrix" values="0 0 0 0 0 0 0 0 0 0 0 0 0 0 0 0 0 0 127 0" result="hardAlpha"/>
<feOffset dx="2" dy="5"/>
<feGaussianBlur stdDeviation="2"/>
<feComposite in2="hardAlpha" operator="out"/>
<feColorMatrix type="matrix" values="0 0 0 0 0 0 0 0 0 0 0 0 0 0 0 0 0 0 0.25 0"/>
<feBlend mode="normal" in2="BackgroundImageFix" result="effect1_dropShadow_1253_32"/>
<feBlend mode="normal" in="SourceGraphic" in2="effect1_dropShadow_1253_32" result="shape"/>
</filter>
</defs>
</svg>
